<?xml version="1.0" standalone="no"?>
<!DOCTYPE svg PUBLIC "-//W3C//DTD SVG 1.1//EN" "http://www.w3.org/Graphics/SVG/1.1/DTD/svg11.dtd" >
<svg xmlns="http://www.w3.org/2000/svg">
<metadata></metadata>
<defs>
<font id="skolar_peregular" horiz-adv-x="1126" >
<font-face units-per-em="2048" ascent="1536" descent="-512" />
<missing-glyph horiz-adv-x="430" />
<glyph unicode="&#xfb01;" horiz-adv-x="1259" d="M55 90q89 9 164 35q8 60 8 115v598q-67 16 -153 26q-11 36 -4 82q77 17 157 23v20q0 176 45.5 303.5t145.5 202t248 74.5q211 0 419 -105q0 -153 -67 -276q-50 -21 -105 0q-36 91 -36 215q-78 33 -240 33q-55 0 -100 -11.5t-58 -25.5q-33 -38 -56.5 -132.5t-23.5 -234.5 v-65h285q150 0 350 22l17 -16q-9 -307 -9 -590v-102q0 -68 7 -154q90 -10 153 -37q0 -65 -12 -92q-110 4 -229 4q-43 0 -126.5 -2t-121.5 -2q-15 30 -15 92q80 8 164 37q8 52 8 113v598h-471v-557q0 -68 7 -154q99 -12 153 -37q0 -62 -12 -92q-164 4 -230 4q-42 0 -123.5 -2 t-123.5 -2q-15 30 -15 92z" />
<glyph unicode="&#xfb02;" horiz-adv-x="1241" d="M55 90q80 8 164 37q8 60 8 113v598q-67 16 -153 26q-11 36 -4 82q77 17 157 23v20q0 278 108.5 429t315.5 151q94 0 217 -29q78 21 156 29l16 -17q-8 -273 -8 -589v-682q0 -80 6 -154q92 -10 154 -37q0 -65 -12 -92q-110 4 -230 4q-44 0 -127 -2t-121 -2q-14 28 -14 92 q89 9 164 35q8 60 8 115v1140q-123 56 -244 56q-46 0 -87.5 -10.5t-55.5 -24.5q-31 -40 -52.5 -134.5t-21.5 -234.5v-65l248 -4q0 -70 -8 -125h-240v-557q0 -68 7 -154q84 -7 153 -37q0 -65 -12 -92q-180 4 -262 4q-36 0 -107 -2t-108 -2q-15 30 -15 92z" />
<glyph horiz-adv-x="0" />
<glyph horiz-adv-x="0" />
<glyph horiz-adv-x="682" />
<glyph unicode="&#xd;" horiz-adv-x="0" />
<glyph unicode=" "  horiz-adv-x="430" />
<glyph unicode="&#x09;" horiz-adv-x="430" />
<glyph unicode="&#xa0;" horiz-adv-x="430" />
<glyph unicode="!" horiz-adv-x="612" d="M180 96q0 50 36.5 83.5t90.5 33.5q53 0 89 -34t36 -83q0 -50 -36.5 -87.5t-88.5 -37.5q-53 0 -90 37.5t-37 87.5zM203 1167q0 129 8 197q50 12 98 12q49 0 101 -12q6 -71 6 -190q0 -280 -49 -814q-33 -10 -60 -10q-26 0 -49 10q-55 496 -55 807z" />
<glyph unicode="&#x22;" horiz-adv-x="724" d="M90 1579q77 26 172 20l17 -16q-11 -282 -46 -493q-48 -14 -88 -9q-49 260 -55 498zM424 1579q77 26 172 20l16 -16q-11 -290 -45 -493q-48 -14 -88 -9q-49 260 -55 498z" />
<glyph unicode="#" horiz-adv-x="1251" d="M96 213q-14 67 0 131h232l49 281h-209q-14 65 0 131h231l41 225q69 0 135 -25l-34 -200h272l41 225q69 0 135 -25l-35 -200h201q14 -69 0 -131h-225l-49 -281h204q11 -66 0 -131h-227l-41 -229q-63 0 -135 22l37 207h-275l-41 -229q-67 0 -135 22l37 207h-209zM467 344 h274l50 281h-275z" />
<glyph unicode="$" horiz-adv-x="927" d="M94 68q6 137 41 266q51 13 107 -6q8 -100 22 -176q69 -21 152 -27v344l-27 10q-52 18 -92.5 37.5t-84 50.5t-67.5 73.5t-24 94.5q0 63 25.5 114t69.5 83t96 51.5t112 26.5v141q43 16 104 0v-137q157 -7 293 -56q-3 -117 -33 -235q-63 -15 -106 6q-7 81 -25 143 q-70 14 -129 17v-291l68 -23q246 -87 246 -249q0 -127 -87 -218t-235 -106v-139q-58 -12 -104 0v137q-202 10 -322 68zM295 774q0 -82 129 -139v252q-67 -6 -84 -17q-45 -33 -45 -96zM520 129q64 10 92 29q52 43 52 129q0 85 -144 145v-303z" />
<glyph unicode="%" horiz-adv-x="1497" d="M51 1014q0 92 37.5 176.5t112 141.5t168.5 57t161.5 -50t98 -127.5t30.5 -171.5q0 -91 -37 -175t-111.5 -140.5t-168.5 -56.5q-140 0 -215.5 100t-75.5 246zM209 1057q0 -118 41.5 -195.5t116.5 -77.5q52 0 73 21q62 67 62 194q0 118 -41.5 195.5t-116.5 77.5 q-22 0 -44 -7.5t-30 -15.5q-61 -66 -61 -192zM252 23l891 1404q63 -13 104 -67l-891 -1403q-68 19 -104 66zM838 332q0 92 36 176.5t109.5 141.5t167.5 57q140 0 217.5 -101.5t77.5 -247.5q0 -91 -37.5 -175.5t-112 -141.5t-168.5 -57q-71 0 -128 28.5t-91.5 77.5 t-52.5 110.5t-18 131.5zM995 375q0 -118 41.5 -195.5t116.5 -77.5q22 0 44 6.5t30 14.5q61 66 61 194q0 118 -41.5 195.5t-116.5 77.5q-22 0 -43.5 -7.5t-29.5 -15.5q-62 -67 -62 -192z" />
<glyph unicode="&#x26;" horiz-adv-x="1509" d="M55 324q0 273 289 426q-98 167 -98 280q0 94 31 168.5t83 119t114.5 68t129.5 23.5q125 0 205 -74.5t80 -201.5q0 -103 -77.5 -206t-246.5 -190q158 -223 400 -438q94 100 142 199.5t75 210.5q-78 24 -178 34q0 61 16 93q43 0 128.5 -2.5t123.5 -2.5q86 0 203 5 q12 -27 12 -93q-59 -26 -154 -36q-73 -268 -276 -484q138 -102 223 -102q86 0 178 33q33 -25 37 -78q-158 -96 -262 -96q-73 0 -149 31t-171 100q-105 -74 -205.5 -111t-218.5 -37q-198 0 -316 104.5t-118 256.5zM233 391q0 -112 91.5 -196t242.5 -84q126 0 252 75 q-107 90 -219 215.5t-199 253.5q-168 -112 -168 -264zM416 1092q0 -111 94 -269q103 62 152 132.5t49 125.5q0 75 -42.5 128t-105.5 53q-33 0 -64 -10t-42 -21q-16 -16 -28.5 -53t-12.5 -86z" />
<glyph unicode="'" horiz-adv-x="387" d="M90 1579q77 26 172 20l17 -16q-11 -282 -46 -493q-48 -14 -88 -9q-49 260 -55 498z" />
<glyph unicode="(" horiz-adv-x="755" d="M213 659q0 277 89.5 546t289.5 556q31 -8 56.5 -25.5t35.5 -39.5q-154 -278 -219.5 -531.5t-65.5 -505.5q0 -522 285 -1036q-10 -24 -35.5 -42.5t-56.5 -26.5q-199 286 -289 557.5t-90 547.5z" />
<glyph unicode=")" horiz-adv-x="755" d="M72 -377q284 512 284 1036q0 253 -65 506t-219 531q10 22 35.5 39.5t56.5 25.5q200 -287 289.5 -556t89.5 -546q0 -276 -90 -547.5t-289 -557.5q-31 8 -56.5 26.5t-35.5 42.5z" />
<glyph unicode="*" horiz-adv-x="774" d="M35 1233q0 81 45 143q31 -7 72.5 -24t71 -32.5t69 -37t51.5 -27.5q-91 162 -119 275q66 39 146 33q14 -40 19.5 -93t6.5 -121t2 -77q93 160 181 241q64 -37 100 -108q-28 -32 -71 -64t-103 -69t-66 -41q184 5 301 -33q0 -74 -45 -141q-41 8 -91 30t-108 53.5t-71 37.5 q35 -53 72 -132.5t51 -144.5q-67 -39 -143 -33q-15 40 -21.5 91t-8 125t-1.5 77q-100 -173 -178 -241q-69 38 -103 108q28 32 71 64t101.5 67.5t65.5 40.5q-175 -5 -297 33z" />
<glyph unicode="+" d="M141 461q-13 59 0 135h355v354q69 15 135 0v-354h354q15 -69 0 -135h-354v-355q-59 -13 -135 0v355h-355z" />
<glyph unicode="," horiz-adv-x="552" d="M84 -240q54 51 93.5 120t39.5 126q0 80 -80 105q6 62 45 100.5t90 38.5q70 0 111 -42t41 -112q0 -108 -90 -226.5t-199 -170.5q-48 17 -51 61z" />
<glyph unicode="-" horiz-adv-x="778" d="M133 430q-17 65 2 137l510 11q19 -75 0 -140z" />
<glyph unicode="." horiz-adv-x="552" d="M135 111q0 57 40.5 94t100.5 37t101 -37t41 -94q0 -59 -41 -99.5t-101 -40.5t-100.5 40.5t-40.5 99.5z" />
<glyph unicode="/" horiz-adv-x="868" d="M90 -158l551 1598q69 -6 145 -49l-550 -1602q-94 9 -146 53z" />
<glyph unicode="0" horiz-adv-x="1177" d="M88 524q0 73 18 144.5t57 139.5t95 119.5t138 83t179 31.5q96 0 180.5 -32.5t144.5 -87.5t103.5 -126t65 -149.5t21.5 -157.5q0 -73 -18 -145t-57.5 -139.5t-95.5 -119t-138 -83t-179 -31.5q-96 0 -180.5 32.5t-144.5 87.5t-103.5 126t-64.5 149.5t-21 157.5zM266 463 q0 -85 35 -168.5t84 -134.5q21 -22 72.5 -36.5t101.5 -14.5q95 0 165 36t109.5 99.5t58.5 140t19 166.5q0 85 -34 169t-82 134q-21 22 -72.5 36.5t-101.5 14.5q-76 0 -137 -24t-101.5 -65t-67 -98.5t-38 -120.5t-11.5 -134z" />
<glyph unicode="1" horiz-adv-x="722" d="M51 934q166 68 418 102l16 -16q-8 -273 -8 -590v-143q0 -81 6 -158q119 -10 203 -37q0 -65 -16 -94q-136 4 -279 4q-52 0 -153.5 -2t-147.5 -2q-18 29 -18 94q119 9 225 39q8 52 8 115v604h-235q-19 39 -19 84z" />
<glyph unicode="2" horiz-adv-x="987" d="M86 928q80 49 176.5 81.5t186.5 32.5q160 0 255 -80.5t95 -207.5q0 -82 -33.5 -160.5t-95 -147.5t-128.5 -124.5t-155 -114.5l-123 -82v-2h459q49 104 74 217q43 12 96 -8q6 -155 -16 -318l-17 -16q-127 4 -502 4h-225q-42 59 -45 145q99 60 187 124t170 137t130 147 t48 135q0 93 -65.5 154t-170.5 61q-63 0 -119 -18q-16 -70 -16 -193q-61 -28 -115 -14q-51 133 -51 248z" />
<glyph unicode="3" horiz-adv-x="911" d="M33 928q80 49 186 81.5t217 32.5q139 0 233.5 -80t94.5 -202q0 -92 -61 -175.5t-162 -129.5q127 -19 200.5 -93.5t73.5 -183.5q0 -219 -189 -356t-569 -184q-28 43 -20 90q117 26 219.5 62.5t191 84.5t140 111t51.5 131q0 99 -69.5 158t-172.5 59q-69 0 -106 -6l-17 12 q-14 52 15 133q124 2 212.5 72t88.5 172q0 78 -60 133t-159 55q-82 0 -156 -18q-16 -67 -16 -185q-61 -28 -115 -14q-51 127 -51 240z" />
<glyph unicode="4" horiz-adv-x="1005" d="M29 205l563 794q77 24 164 27l16 -16v-789l238 -14q0 -58 -13 -121h-225v-408q-69 -31 -149 -36l-17 16v428h-549q-28 46 -28 119zM186 217h420v637h-2l-51 -141z" />
<glyph unicode="5" horiz-adv-x="870" d="M72 -270q109 30 203.5 69.5t177 92t130.5 120.5t48 142q0 118 -68 190t-186 72q-122 0 -232 -27l-16 17v589l16 17h185q144 0 438 4l16 -17q-3 -65 -20 -118h-463v-340q73 12 137 12q169 0 269 -89.5t100 -236.5q0 -229 -179.5 -382t-535.5 -207q-28 44 -20 92z" />
<glyph unicode="6" horiz-adv-x="1064" d="M92 516q0 62 8.5 123t31.5 132t58.5 135.5t94 129.5t133.5 118t181.5 97.5t234.5 71.5q31 -24 34 -82q-280 -100 -430 -241.5t-168 -352.5h2q142 162 336 162q171 0 276 -102t105 -263q0 -111 -41.5 -203t-109.5 -149.5t-151.5 -89t-170.5 -31.5q-92 0 -167 38 t-121.5 96.5t-78.5 133t-44.5 144t-12.5 133.5zM272 508q20 -167 103 -283t200 -116q46 0 88 11.5t60 24.5q40 27 66 92t26 144q0 125 -79 208t-177 83q-146 0 -287 -164z" />
<glyph unicode="7" horiz-adv-x="927" d="M51 999l17 17q172 -4 376 -4h414q42 -42 49 -119q-310 -618 -530 -1272q-113 0 -182 66l-5 26l560 1168h-537q-23 -131 -29 -265q-69 -15 -114 0q-19 167 -19 383z" />
<glyph unicode="8" horiz-adv-x="1067" d="M96 299q0 107 71.5 202t217.5 165v2q-125 68 -186.5 132.5t-61.5 147.5q0 85 39.5 157.5t101.5 119t134 72.5t141 26q175 0 274 -78t99 -194q0 -186 -244 -324v-4q146 -75 222.5 -153.5t76.5 -176.5q0 -81 -36 -157.5t-98.5 -135t-153.5 -94t-193 -35.5q-196 0 -300 82 t-104 246zM264 342q0 -65 25 -112.5t67 -72.5t87 -36.5t94 -11.5q63 0 123 17.5t79 33.5q66 55 66 172q0 25 -9 48t-21.5 42t-38 40.5t-45.5 36.5t-57.5 36.5t-61 34.5t-68.5 36q-112 -47 -176 -117.5t-64 -146.5zM313 1022q0 -65 67 -121t200 -125q81 47 129.5 100 t48.5 103q0 87 -71 147t-173 60q-43 0 -88.5 -12t-56.5 -21q-56 -49 -56 -131z" />
<glyph unicode="9" horiz-adv-x="1064" d="M76 569q0 111 41.5 203t109.5 149.5t151.5 89t170.5 31.5q92 0 167 -39.5t121.5 -100t78.5 -138.5t44.5 -149.5t12.5 -137.5q0 -65 -8.5 -129t-31.5 -137.5t-58.5 -140.5t-94 -134.5t-133.5 -122.5t-181.5 -101t-234.5 -74q-31 24 -34 81q289 108 439.5 262t160.5 388h-2 q-143 -164 -338 -164q-171 0 -276 101.5t-105 262.5zM250 633q0 -125 79 -208t177 -83q144 0 282 160q-21 170 -103 286.5t-196 116.5q-46 0 -87 -12t-60 -25q-40 -27 -66 -91.5t-26 -143.5z" />
<glyph unicode=":" horiz-adv-x="552" d="M137 106q0 54 41 90.5t98 36.5t97.5 -36.5t40.5 -90.5q0 -56 -40.5 -95.5t-97.5 -39.5t-98 40t-41 95zM137 836q0 54 41 90.5t98 36.5t97.5 -36.5t40.5 -90.5q0 -56 -40.5 -96t-97.5 -40t-98 40t-41 96z" />
<glyph unicode=";" horiz-adv-x="552" d="M86 -240q54 51 93.5 120t39.5 126q0 80 -80 105q6 62 45 100.5t90 38.5q70 0 111 -42t41 -112q0 -108 -90 -226.5t-199 -170.5q-48 17 -51 61zM137 836q0 54 41 90.5t98 36.5t97.5 -36.5t40.5 -90.5q0 -56 -40.5 -96t-97.5 -40t-98 40t-41 96z" />
<glyph unicode="&#x3c;" d="M111 479q-23 68 0 142l864 407q40 -55 55 -121l-774 -356l774 -356q-15 -66 -57 -123z" />
<glyph unicode="=" d="M141 297q-13 59 0 135h844q15 -69 0 -135h-844zM141 625q-13 59 0 135h844q15 -69 0 -135h-844z" />
<glyph unicode="&#x3e;" d="M94 193l774 356l-774 356q14 64 58 123l862 -407q23 -68 0 -142l-864 -407q-42 57 -56 121z" />
<glyph unicode="?" horiz-adv-x="815" d="M76 1311q56 39 143 65.5t178 26.5q174 0 268.5 -97.5t94.5 -254.5q0 -77 -24 -142.5t-63 -112t-78.5 -82.5t-80 -72.5t-57.5 -63.5q-21 -35 -21 -191q-25 -22 -69 -29.5t-80 2.5q-31 118 -31 220q0 37 34 76.5t82 75.5t96 75t82 88.5t34 101.5q0 103 -66 175.5t-164 72.5 q-54 0 -94 -6q-31 -96 -43 -211q-56 -19 -106 -8q-35 146 -35 291zM242 96q0 50 36.5 83.5t90.5 33.5q53 0 89 -34t36 -83q0 -50 -36.5 -87.5t-88.5 -37.5q-53 0 -90 37.5t-37 87.5z" />
<glyph unicode="@" horiz-adv-x="1837" d="M86 393q0 197 69 369.5t192.5 298.5t303.5 199t391 73q153 0 288.5 -65t229 -172.5t147.5 -248.5t54 -290q0 -256 -153.5 -421t-386.5 -165q-33 0 -62.5 55.5t-42.5 129.5q-157 -185 -278 -185q-105 0 -179.5 67t-109.5 177t-35 250q0 146 57.5 268.5t148 190t189.5 67.5 q101 0 187 -20.5t186 -69.5v-620q0 -106 10 -162q73 0 146.5 41t97.5 84q68 120 68 262q0 189 -82 346t-227 247.5t-322 90.5q-135 0 -284.5 -53.5t-199.5 -102.5q-239 -236 -239 -565q0 -151 50 -282.5t137 -224.5t209.5 -146.5t262.5 -53.5q107 0 181.5 12t187.5 44 q32 -32 35 -90q-193 -111 -443 -111q-225 0 -404.5 102t-279.5 279t-100 395zM688 522q0 -107 22 -196.5t68.5 -148t110.5 -58.5q74 0 221 151v508q-103 76 -201 76q-51 0 -85.5 -12t-47.5 -27q-37 -47 -62.5 -126.5t-25.5 -166.5z" />
<glyph unicode="A" horiz-adv-x="1386" d="M10 96q67 7 164 39l420 1219q74 28 180 28l440 -1247q75 -8 152 -39v-17q0 -42 -12 -81q-59 4 -254 4q-45 0 -130.5 -2t-129.5 -2q-17 47 -17 98l193 39l-113 318q-145 8 -323 8h-150l-108 -326l180 -39v-15q0 -41 -13 -83q-59 4 -227 4q-32 0 -110 -2t-125 -2 q-17 47 -17 98zM471 586h387l-166 471l-10 149h-2z" />
<glyph unicode="B" horiz-adv-x="1212" d="M66 96q75 8 178 39q10 66 10 211v608q0 156 -10 283q-103 31 -178 39q0 54 16 98q44 0 129.5 -2t130.5 -2q78 0 201 4t166 4q142 0 235.5 -88.5t93.5 -222.5q0 -212 -198 -301q147 -30 225 -116t78 -199q0 -84 -29 -163t-85.5 -146t-153 -107.5t-218.5 -40.5 q-47 0 -149.5 4t-165.5 4q-45 0 -130.5 -2t-129.5 -2q-16 44 -16 98zM434 131h195q62 0 117.5 8.5t84 17.5t35.5 15q90 76 90 227q0 107 -90 180.5t-219 73.5h-213v-522zM434 791h154q130 0 197 64t67 155q0 99 -64 167t-159 68q-24 0 -56.5 -1t-74.5 -2.5t-64 -2.5v-448z " />
<glyph unicode="C" horiz-adv-x="1241" d="M92 662q0 108 27 213.5t82.5 201t133 168t186 115.5t233.5 43q211 0 374 -55v-20q0 -163 -47 -318q-25 -4 -46 -4q-35 0 -58 12q-5 107 -31 225q-83 12 -229 12q-64 0 -152 -20.5t-121 -48.5q-68 -66 -116.5 -177.5t-48.5 -258.5q0 -104 16 -195t53.5 -172.5t93.5 -139.5 t141 -92t191 -34q111 0 199 18q22 121 28 250q31 13 66 13q21 0 43 -5q31 -163 31 -354q-217 -70 -422 -70q-124 0 -227 35.5t-176.5 98.5t-124 150t-75 190t-24.5 219z" />
<glyph unicode="D" horiz-adv-x="1357" d="M66 96q75 8 178 39q10 49 10 125v694q0 156 -10 283q-103 31 -178 39q0 54 16 98q44 0 129.5 -2t130.5 -2q78 0 196.5 4t161.5 4q178 0 307.5 -87.5t194 -238.5t64.5 -347q0 -107 -26 -210t-78.5 -193.5t-125 -159t-172 -108.5t-213.5 -40q-37 0 -139 4t-170 4 q-45 0 -130.5 -2t-129.5 -2q-16 44 -16 98zM434 131h184q80 0 166 17t115 40q180 140 180 430q0 95 -15.5 183.5t-50 169.5t-84.5 141.5t-124 96.5t-164 36q-18 0 -207 -6v-1108z" />
<glyph unicode="E" horiz-adv-x="1193" d="M66 96q75 8 178 39q10 49 10 125v694q0 156 -10 283q-103 31 -178 39q0 54 16 98q44 0 129.5 -2t130.5 -2h211q354 0 481 4l17 -16q1 -32 1 -65q0 -136 -20 -279q-27 -10 -54 -10l-54 10q-6 118 -33 225h-457v-467l420 8l16 -16q-3 -75 -20 -127l-416 8v-512h481 q46 131 74 250q19 4 38 4q34 0 71 -12q0 -187 -23 -361l-16 -16q-127 4 -481 4h-236q-45 0 -130.5 -2t-129.5 -2q-16 44 -16 98z" />
<glyph unicode="F" horiz-adv-x="1073" d="M66 96q75 8 178 39q10 66 10 211v608q0 156 -10 283q-103 31 -178 39q0 54 16 98q44 0 129.5 -2t130.5 -2h211q354 0 481 4l17 -16q1 -34 1 -69q0 -146 -20 -300q-27 -9 -54 -9l-54 9q-6 131 -33 250h-457v-496l420 9l16 -17q-3 -75 -20 -127l-416 8v-311q0 -99 8 -170 q102 -8 207 -39v-16q0 -45 -14 -82q-68 4 -285 4q-46 0 -134 -2t-134 -2q-16 44 -16 98z" />
<glyph unicode="G" horiz-adv-x="1349" d="M92 662q0 108 26.5 213.5t82.5 201t135 168t191 115.5t243 43q222 0 385 -55v-20q0 -162 -47 -318q-25 -4 -46 -4q-34 0 -58 12q-5 107 -31 225q-102 12 -256 12q-64 0 -152 -20.5t-121 -48.5q-68 -66 -116.5 -177.5t-48.5 -258.5q0 -104 16 -195t53.5 -172.5 t93.5 -139.5t141 -92t191 -34q89 0 197 24v66q0 155 -10 282q-105 29 -191 37q0 55 16 99q44 0 124 -2t114 -2q195 0 254 4q12 -39 12 -82v-17q-71 -31 -141 -39q-6 -79 -6 -344v-61q-250 -113 -455 -113q-116 0 -213.5 35.5t-167.5 98.5t-119 149.5t-72.5 190t-23.5 219.5z " />
<glyph unicode="H" horiz-adv-x="1544" d="M66 96q75 8 178 39q10 61 10 195v624q0 156 -10 283q-103 31 -178 39q0 54 16 98q44 0 129.5 -2t130.5 -2q195 0 254 4q12 -38 12 -81v-17q-84 -31 -166 -39q-8 -90 -8 -354v-101h680v172q0 156 -10 283q-103 31 -178 39q0 54 16 98q44 0 129.5 -2t130.5 -2q195 0 254 4 q12 -38 12 -81v-17q-85 -31 -165 -39q-9 -101 -9 -354v-578q0 -91 9 -170q80 -8 165 -39v-17q0 -42 -12 -81q-59 4 -254 4q-45 0 -130.5 -2t-129.5 -2q-16 44 -16 98q75 8 178 39q10 61 10 195v315q-238 10 -422 10h-258v-350q0 -99 8 -170q82 -8 166 -39v-17q0 -42 -12 -81 q-59 4 -254 4q-45 0 -130.5 -2t-129.5 -2q-16 44 -16 98z" />
<glyph unicode="I" horiz-adv-x="684" d="M66 96q75 8 178 39q10 49 10 125v694q0 156 -10 283q-103 31 -178 39q0 54 16 98q44 0 129.5 -2t130.5 -2q195 0 254 4q12 -38 12 -81v-17q-84 -31 -166 -39q-8 -101 -8 -283v-649q0 -99 8 -170q82 -8 166 -39v-17q0 -42 -12 -81q-59 4 -254 4q-45 0 -130.5 -2t-129.5 -2 q-16 44 -16 98z" />
<glyph unicode="J" horiz-adv-x="626" d="M-90 -336q110 42 177 94.5t103.5 135.5t36.5 202v858q0 156 -10 283q-103 31 -178 39q0 54 16 98q44 0 129.5 -2t130.5 -2q195 0 254 4q13 -41 13 -83v-15q-84 -31 -166 -39q-8 -101 -8 -283v-899q0 -236 -119.5 -353t-343.5 -142q-35 35 -35 104z" />
<glyph unicode="K" horiz-adv-x="1349" d="M66 96q75 8 178 39q10 61 10 195v624q0 156 -10 283q-103 31 -178 39q0 54 16 98q44 0 129.5 -2t130.5 -2q195 0 254 4q12 -38 12 -81v-17q-84 -31 -166 -39q-8 -90 -8 -354v-183l529 537l-191 37q0 56 16 100q46 0 126.5 -2t115.5 -2q184 0 250 4q12 -38 12 -81v-17 q-77 -31 -151 -39l-430 -436l450 -666q103 -12 178 -39q0 -70 -14 -98q-70 2 -235 2h-74l-447 657l-135 -137v-215q0 -99 8 -170q82 -8 166 -39v-17q0 -42 -12 -81q-59 4 -254 4q-45 0 -130.5 -2t-129.5 -2q-16 44 -16 98z" />
<glyph unicode="L" horiz-adv-x="1128" d="M66 96q75 8 178 39q10 49 10 125v694q0 156 -10 283q-103 31 -178 39q0 54 16 98q48 0 141 -2t142 -2q209 0 270 4q14 -37 14 -82v-16q-105 -31 -207 -39q-8 -101 -8 -283v-821h481q46 142 74 275q17 4 36 4q34 0 73 -13q0 -200 -23 -385l-16 -16q-127 4 -481 4h-236 q-45 0 -130.5 -2t-129.5 -2q-16 44 -16 98z" />
<glyph unicode="M" horiz-adv-x="1882" d="M45 96q73 7 184 41l99 1100q-127 33 -189 39q0 51 17 98q46 0 126 -2t115 -2q113 0 201 -8l313 -989l4 -199h3l362 1190q66 6 188 6q199 0 258 4q13 -41 13 -83v-15q-74 -27 -172 -39l96 -1102q90 -8 174 -39q1 -9 1 -17q0 -42 -13 -81q-59 4 -260 4q-45 0 -131.5 -2 t-130.5 -2q-17 47 -17 98l187 39l-80 920l-7 184h-2l-372 -1221q-83 -25 -187 -28l-338 1065l-24 184h-2l-96 -1104l172 -39v-15q0 -41 -13 -83q-59 4 -229 4q-35 0 -112.5 -2t-121.5 -2q-16 44 -16 98z" />
<glyph unicode="N" horiz-adv-x="1517" d="M66 96q75 8 178 39q10 49 10 125v694q0 156 -10 283q-103 31 -178 39q0 54 16 98q46 0 127.5 -2t116.5 -2q111 0 176 -8l594 -985l55 -184h2v761q0 156 -10 283q-103 31 -178 39q0 54 16 98q46 0 127.5 -2t116.5 -2q176 0 235 4q13 -41 13 -83v-15q-84 -31 -166 -39 q-9 -114 -9 -283v-936q-92 -25 -192 -28l-645 1065l-60 184h-2v-934q0 -91 9 -170q80 -8 165 -39q1 -9 1 -17q0 -42 -13 -81q-59 4 -235 4q-35 0 -116.5 -2t-127.5 -2q-16 44 -16 98z" />
<glyph unicode="O" horiz-adv-x="1413" d="M92 662q0 107 28 213.5t83 202.5t130 170t176.5 117.5t215.5 43.5q141 0 255 -53.5t188 -148t113.5 -221.5t39.5 -275q0 -107 -28 -214.5t-83 -203t-130 -169.5t-176.5 -117.5t-215.5 -43.5q-142 0 -256.5 54t-188 149t-112.5 221.5t-39 274.5zM279 750 q0 -104 16.5 -196.5t52.5 -174.5t89.5 -141t132 -93t175.5 -34q52 0 124 20.5t100 48.5q68 66 117 180.5t49 262.5q0 131 -27 243t-81.5 202.5t-146.5 142t-212 51.5q-51 0 -123.5 -21t-100.5 -49q-67 -66 -116 -179.5t-49 -262.5z" />
<glyph unicode="P" horiz-adv-x="1153" d="M66 96q75 8 178 39q10 49 10 125v694q0 156 -10 283q-103 31 -178 39q0 54 16 98q44 0 129.5 -2t130.5 -2q78 0 209 4t174 4q99 0 172.5 -31t116.5 -85t63.5 -121t20.5 -146q0 -109 -62 -221.5t-170 -189t-227 -76.5q-121 0 -205 16v-219q0 -99 8 -170q102 -8 207 -39 v-16q0 -45 -14 -82q-68 4 -285 4q-46 0 -134 -2t-134 -2q-16 44 -16 98zM434 659q68 -8 180 -8q45 0 95 13t78.5 25.5t35.5 19.5q40 35 64 95.5t24 133.5q0 43 -7.5 84.5t-26 82.5t-45.5 71.5t-69 49.5t-93 19q-26 0 -236 -6v-580z" />
<glyph unicode="Q" horiz-adv-x="1413" d="M92 662q0 107 28 213.5t83 202.5t130 170t176.5 117.5t215.5 43.5q141 0 255 -53.5t188 -148t113.5 -221.5t39.5 -275q0 -116 -33.5 -231.5t-93.5 -214.5t-152 -174.5t-202 -106.5q49 -61 94.5 -101.5t114 -71t145.5 -30.5q52 0 96 8q29 -33 29 -72q0 -16 -4 -32 q-132 -56 -301 -56q-88 0 -183.5 86.5t-216.5 251.5q-126 14 -225.5 72.5t-164 151.5t-98.5 212.5t-34 258.5zM279 750q0 -104 16.5 -196.5t52.5 -174.5t89.5 -141t132 -93t175.5 -34q52 0 124 20.5t100 48.5q68 66 117 180.5t49 262.5q0 131 -27 243t-81.5 202.5 t-146.5 142t-212 51.5q-51 0 -123.5 -21t-100.5 -49q-67 -66 -116 -179.5t-49 -262.5z" />
<glyph unicode="R" horiz-adv-x="1263" d="M66 96q75 8 178 39q10 66 10 211v608q0 156 -10 283q-103 31 -178 39q0 54 16 98q44 0 129.5 -2t130.5 -2q78 0 209 4t174 4q102 0 177.5 -30t116.5 -80.5t60 -107.5t19 -120q0 -123 -76 -243t-199 -179l238 -483q103 -12 178 -39q0 -70 -14 -98q-68 2 -230 2h-75 l-285 578q-106 0 -201 14v-287q0 -99 8 -170q82 -8 166 -39v-17q0 -42 -12 -81q-59 4 -254 4q-45 0 -130.5 -2t-129.5 -2q-16 44 -16 98zM434 729q81 -8 176 -8q43 0 93.5 10.5t81 21t36.5 15.5q42 32 65 86t23 119q0 125 -64.5 198.5t-174.5 73.5q-26 0 -236 -6v-510z" />
<glyph unicode="S" horiz-adv-x="1114" d="M98 59q6 179 49 353q17 4 36 4q33 0 73 -13q6 -122 29 -249q110 -37 276 -37q44 0 91 11t73.5 22.5t32.5 17.5q69 66 69 209q0 74 -58.5 132.5t-145.5 90.5l-150 57q-54 20 -95.5 39t-91.5 51.5t-83 68t-55.5 87.5t-22.5 111q0 83 28.5 150.5t74.5 111t107 73t124 42 t129 12.5q94 0 202 -19.5t193 -52.5q-3 -161 -45 -311q-26 -6 -48 -6q-33 0 -59 14q-10 120 -30 201q-98 26 -236 26q-65 0 -124 -11.5t-70 -20.5q-60 -53 -60 -146q0 -82 63 -140.5t150 -90.5l176 -64q318 -114 318 -352q0 -197 -128 -329t-341 -132q-133 0 -253.5 24 t-197.5 66z" />
<glyph unicode="T" horiz-adv-x="1241" d="M33 1358l16 16q127 -4 481 -4h181q354 0 481 4l16 -16q1 -37 1 -74q0 -147 -19 -295q-32 -9 -59 -9t-50 9q-7 137 -32 250h-338v-934q0 -99 8 -170q102 -8 207 -39v-15q0 -44 -15 -83q-68 4 -293 4q-52 0 -150 -2t-149 -2q-18 42 -18 98q88 7 219 39q10 49 10 125v979 h-337q-27 -122 -33 -250q-30 -10 -57 -9.5t-52 9.5q-19 143 -19 293q0 38 1 76z" />
<glyph unicode="U" horiz-adv-x="1423" d="M20 1276q0 51 17 98q44 0 129.5 -2t130.5 -2q193 0 252 4q13 -38 13 -81q0 -8 -1 -17q-84 -31 -166 -39q-6 -76 -6 -283v-411q0 -230 79 -331t280 -101q81 0 153 22.5t96 48.5q17 18 33.5 48.5t33.5 99t17 151.5v473q0 156 -10 283q-103 31 -178 39q0 54 16 98 q44 0 129.5 -2t130.5 -2q161 0 220 4q13 -38 13 -81q0 -8 -1 -17q-84 -31 -166 -39q-8 -101 -8 -283v-448q0 -121 -32.5 -219t-98.5 -171t-172 -113t-246 -40q-236 0 -352.5 122.5t-116.5 393.5v475q0 156 -10 283q-102 31 -179 39z" />
<glyph unicode="V" horiz-adv-x="1386" d="M10 1276q0 51 17 98q44 0 129.5 -2t130.5 -2q195 0 254 4q13 -38 13 -81q0 -8 -1 -17l-180 -39l315 -899l19 -174h2l358 1073l-193 39q0 51 17 98q47 0 125 -2t110 -2q169 0 228 4q12 -38 12 -81v-17q-77 -31 -152 -39l-419 -1219q-74 -28 -181 -28l-440 1247 q-97 32 -164 39z" />
<glyph unicode="W" horiz-adv-x="1970" d="M10 1276q0 51 17 98q44 0 129.5 -2t130.5 -2q195 0 254 4q13 -38 13 -81q0 -8 -1 -17l-180 -39l231 -899l10 -174h2l316 1192q71 26 168 26l264 -1044l12 -174h2l273 1073l-193 39q0 51 17 98q47 0 125.5 -2t109.5 -2q168 0 227 4q13 -41 13 -83v-15q-77 -31 -152 -39 l-323 -1219q-74 -28 -205 -28l-244 964l-8 207h-2l-297 -1143q-74 -28 -215 -28l-330 1247q-97 32 -164 39z" />
<glyph unicode="X" horiz-adv-x="1347" d="M8 96q69 8 172 39l385 561l-375 541q-97 32 -163 39q0 54 16 98q45 0 134 -2t138 -2q199 0 256 4q13 -40 13 -98l-164 -39l276 -399l277 397l-178 39q0 56 16 100q45 0 121.5 -2t109.5 -2q175 0 238 4q12 -37 12 -98q-77 -31 -151 -39l-365 -516l408 -586q74 -8 151 -39 q1 -9 1 -17q0 -42 -13 -81q-59 4 -270 4q-51 0 -141.5 -2t-133.5 -2q-16 44 -16 98l192 39l-307 443l-305 -443l180 -39v-17q0 -42 -12 -81q-59 4 -234 4q-33 0 -116.5 -2t-134.5 -2q-17 47 -17 98z" />
<glyph unicode="Y" horiz-adv-x="1331" d="M10 1276q0 51 17 98q43 0 131.5 -2t138.5 -2q201 0 260 4q13 -38 13 -81q0 -8 -1 -17l-180 -39l307 -571l312 571l-193 39q0 54 16 98q46 0 125.5 -2t112.5 -2q170 0 229 4q13 -41 13 -83v-15q-77 -31 -152 -39l-395 -727v-205q0 -99 8 -170q102 -8 207 -39v-16 q0 -45 -14 -82q-68 4 -293 4q-52 0 -150 -2t-149 -2q-19 45 -19 98q88 7 219 39q11 54 11 125v223l-410 754q-97 32 -164 39z" />
<glyph unicode="Z" horiz-adv-x="1241" d="M66 133l808 1106h-591q-27 -110 -33 -225q-30 -10 -57 -10t-52 10q-19 133 -19 275q0 35 1 71l16 14q127 -4 482 -4h430q41 -53 59 -131l-813 -1106h659q46 131 74 250q18 4 37 4q34 0 72 -12q0 -187 -23 -361l-16 -16q-127 4 -482 4h-530q-22 57 -22 117v14z" />
<glyph unicode="[" horiz-adv-x="755" d="M250 -412v2138l16 17q214 -6 432 -6q15 -59 0 -117q-130 -19 -288 -23v-1880q166 -5 288 -22q12 -59 0 -117q-218 0 -432 -6z" />
<glyph unicode="\" horiz-adv-x="868" d="M82 1391q76 43 145 49l551 -1598q-52 -44 -145 -53z" />
<glyph unicode="]" horiz-adv-x="755" d="M57 -305q121 17 289 22v1880q-159 4 -289 23q-15 58 0 117q217 0 432 6l17 -17v-2138l-17 -16q-215 6 -432 6q-12 58 0 117z" />
<glyph unicode="^" horiz-adv-x="1040" d="M121 834l350 528q39 8 94 8l355 -532q-39 -57 -105 -78l-299 381l-305 -377q-64 20 -90 70z" />
<glyph unicode="_" horiz-adv-x="1024" d="M0 -127h1024v-121h-1024v121z" />
<glyph unicode="`" horiz-adv-x="849" d="M137 1425l10 39q75 40 170 43l240 -377q-24 -44 -82 -53z" />
<glyph unicode="a" horiz-adv-x="997" d="M72 215q0 66 33.5 123t87 98t129 74t150 54t159.5 36q-2 130 -38.5 196t-133.5 66q-91 0 -162 -16q-14 -62 -14 -166q-43 -20 -81 -20q-20 0 -38 6q-49 100 -49 219q173 104 364 104q42 0 81 -6.5t85 -27.5t79.5 -54.5t56 -94t22.5 -140.5v-385q0 -106 10 -162 q42 6 131 33q31 -31 31 -76q-50 -43 -116 -74t-118 -31q-31 0 -58.5 45.5t-41.5 116.5q-88 -75 -178.5 -118.5t-159.5 -43.5q-103 0 -167 66t-64 178zM254 266q0 -61 38.5 -100t115.5 -39q45 0 109 30.5t114 75.5v242q-116 -13 -216 -39.5t-120 -46.5q-18 -18 -29.5 -53.5 t-11.5 -69.5z" />
<glyph unicode="b" horiz-adv-x="1116" d="M8 1497q147 55 334 72l16 -17q-8 -273 -8 -589v-97q137 119 314 119q165 0 267.5 -133t102.5 -354q0 -126 -54.5 -246.5t-155 -200.5t-218.5 -80q-72 0 -154 30.5t-151 82.5q-76 -98 -131 -125q-20 3 -36.5 16t-22.5 29q67 122 67 236v1144q-97 26 -162 33q-9 32 -9 60 q0 10 1 20zM350 236q54 -55 129 -91t150 -36q38 0 78 12.5t51 25.5q46 55 74 131.5t28 161.5q0 106 -27.5 196t-87 149t-139.5 59q-53 0 -124.5 -25t-131.5 -63v-520z" />
<glyph unicode="c" horiz-adv-x="929" d="M82 465q0 74 20 148.5t59.5 141t92.5 118t125.5 82t152.5 30.5q195 0 326 -59q0 -148 -43 -267q-28 -9 -54 -9q-36 0 -67 18q-3 99 -16 170q-58 10 -154 10q-43 0 -94.5 -11t-71.5 -28q-45 -46 -73.5 -123t-28.5 -164q0 -54 8 -107.5t28.5 -107.5t51 -95t80 -67 t111.5 -26q126 0 305 69q31 -27 34 -77q-75 -55 -181.5 -97.5t-192.5 -42.5q-108 0 -189.5 38t-130.5 106t-73.5 156t-24.5 194z" />
<glyph unicode="d" horiz-adv-x="1128" d="M82 465q0 141 62 261.5t163.5 189.5t214.5 69q50 0 114.5 -21.5t111.5 -50.5v471q-111 26 -187 33q-9 32 -9 60q0 10 1 20q157 55 358 72l17 -17q-8 -273 -8 -589v-682q0 -106 10 -162q42 6 131 33q31 -31 31 -76q-50 -43 -116 -74t-118 -31q-35 0 -63 56t-41 133 q-169 -189 -310 -189q-117 0 -200.5 67t-122.5 177t-39 250zM256 522q0 -107 25 -196.5t78.5 -148t127.5 -58.5q88 0 261 153v525q-143 51 -248 51q-36 0 -80.5 -11t-61.5 -28q-45 -48 -73.5 -125t-28.5 -162z" />
<glyph unicode="e" horiz-adv-x="983" d="M82 467q0 128 55 247.5t158.5 198t228.5 78.5q82 0 146.5 -21.5t104.5 -56t66.5 -83t37 -99t10.5 -106.5q0 -82 -10 -127l-17 -17q-168 4 -370 4h-238q3 -53 13 -102t31.5 -98t51.5 -85t77 -58.5t105 -22.5q134 0 326 74q32 -23 35 -74q-86 -57 -195.5 -102.5 t-199.5 -45.5q-107 0 -188 38t-130 106t-73.5 156.5t-24.5 195.5zM258 592h201q148 0 250 8q0 55 -8 96.5t-29.5 80.5t-66 60t-109.5 21q-36 0 -79.5 -11t-60.5 -28q-77 -84 -98 -227z" />
<glyph unicode="f" horiz-adv-x="706" d="M55 90q89 9 164 35q8 60 8 115v598q-67 16 -153 26q-7 22 -7 48q0 16 3 34q77 17 157 23v20q0 264 108 422t294 158q138 0 266 -51q0 -135 -45 -275q-29 -8 -53 -8q-35 0 -60 16q-4 104 -16 174q-64 11 -109 11q-48 0 -88 -13t-51 -26q-32 -37 -53 -136t-21 -229v-65 l248 -4q0 -70 -8 -125h-240v-557q0 -68 7 -154q136 -7 241 -37q0 -65 -12 -92q-226 4 -318 4q-42 0 -123.5 -2t-123.5 -2q-15 30 -15 92z" />
<glyph unicode="g" horiz-adv-x="1040" d="M47 -258q0 89 58 162.5t143 122.5q-25 25 -25 79q0 78 94 191q-106 27 -164.5 104t-58.5 201q0 69 26 135.5t75 122t128.5 89.5t176.5 34q133 0 221 -53q81 88 237 157q66 -51 72 -141q-71 -30 -237 -78q69 -84 69 -206q0 -71 -25.5 -137t-75 -121t-132 -88t-185.5 -33 q-29 0 -43 2q-22 -46 -22 -84q0 -47 8 -58q14 -16 197 -16q192 0 294.5 -67.5t102.5 -174.5q0 -212 -146.5 -321t-404.5 -109q-174 0 -278.5 88t-104.5 199zM219 -215q0 -26 6.5 -50.5t25.5 -51t47.5 -46t76.5 -32.5t110 -13q176 0 271 60q21 12 39 64.5t18 105.5 q0 75 -61.5 110t-206.5 35q-151 0 -232 23q-94 -97 -94 -205zM256 657q0 -103 62 -173t159 -70q39 0 83 8.5t61 17.5q29 15 54 73.5t25 115.5q0 86 -65.5 155.5t-169.5 69.5q-35 0 -75 -8t-54 -17q-31 -23 -55.5 -72t-24.5 -100z" />
<glyph unicode="h" horiz-adv-x="1189" d="M37 90q89 9 164 35q8 60 8 115v1144q-97 26 -162 33q-9 32 -9 60q0 10 1 20q147 55 334 72l16 -17q-8 -273 -8 -589v-78q63 43 152.5 74.5t181.5 31.5q282 0 282 -327v-383q0 -68 7 -154q88 -10 155 -37q0 -67 -14 -92q-110 4 -230 4q-43 0 -126 -2t-121 -2 q-15 30 -15 92q86 9 166 35q6 67 6 115v344q0 64 -6.5 107.5t-25.5 82t-57 57.5t-97 19q-133 0 -258 -59v-510q0 -80 6 -154q92 -10 154 -37q0 -63 -13 -92q-110 4 -229 4q-43 0 -126.5 -2t-121.5 -2q-14 28 -14 92z" />
<glyph unicode="i" horiz-adv-x="624" d="M63 90q80 8 164 37q9 59 9 113v565q-97 26 -162 33q-9 32 -9 60q0 10 1 20q143 54 333 71l17 -16q-8 -273 -8 -590v-102q0 -80 6 -154q90 -10 153 -37q0 -65 -12 -92q-110 4 -229 4q-43 0 -126.5 -2t-121.5 -2q-15 30 -15 92zM174 1260q0 58 42.5 108.5t98.5 50.5 q47 0 85 -33t38 -79q0 -58 -41.5 -108t-99.5 -50q-43 0 -83 33.5t-40 77.5z" />
<glyph unicode="j" horiz-adv-x="559" d="M-4 -461q104 80 159.5 203.5t55.5 312.5v750q-97 26 -162 33q-9 32 -9 60q0 10 1 20q143 54 334 71l16 -16q-8 -273 -8 -590v-356q0 -103 -17.5 -186.5t-47.5 -143t-74 -105t-94 -73t-111 -45.5q-43 21 -43 65zM150 1260q0 58 42.5 108.5t98.5 50.5q47 0 85 -33t38 -79 q0 -58 -42 -108t-100 -50q-43 0 -82.5 33.5t-39.5 77.5z" />
<glyph unicode="k" horiz-adv-x="1144" d="M37 90q89 9 164 35q8 60 8 115v1144q-91 25 -162 33q-9 32 -9 60q0 10 1 20q147 55 334 72l16 -17q-8 -273 -8 -589v-422q126 52 166 73l188 228l-127 30q0 50 15 93q30 0 115.5 -2t133.5 -2q54 0 172 4q13 -29 13 -91q-74 -30 -137 -38l-263 -281q50 -101 114.5 -206 t113.5 -159q44 -48 80 -68t90 -20q30 0 65 7q14 -15 20 -37q4 -14 5 -27q0 -8 -2 -16q-29 -16 -111.5 -32.5t-144.5 -16.5q-68 0 -138.5 74.5t-124 181.5t-94.5 237l-149 -41v-151q0 -80 6 -154q92 -10 154 -37q0 -63 -13 -92q-110 4 -229 4q-43 0 -126.5 -2t-121.5 -2 q-14 28 -14 92z" />
<glyph unicode="l" horiz-adv-x="589" d="M37 90q89 9 164 35q8 60 8 115v1144q-97 26 -162 33q-9 32 -9 60q0 10 1 20q147 55 334 72l16 -17q-8 -273 -8 -589v-682q0 -80 6 -154q92 -10 154 -37q0 -63 -13 -92q-110 4 -229 4q-43 0 -126.5 -2t-121.5 -2q-14 28 -14 92z" />
<glyph unicode="m" horiz-adv-x="1757" d="M63 90q89 9 164 35q9 67 9 115v559q-72 22 -162 32q-10 32 -10 59q0 11 2 21q148 60 290 74l17 -14q12 -49 24 -121q62 62 145 101.5t169 39.5q193 0 250 -160q63 70 150.5 115t180.5 45q137 0 206 -79.5t69 -247.5v-383q0 -80 6 -154q90 -10 153 -37q0 -67 -14 -92 q-106 4 -227 4q-43 0 -126.5 -2t-121.5 -2q-14 28 -14 92q87 9 163 35q9 68 9 115v344q0 53 -3 88t-13 71.5t-29 58t-52.5 35t-80.5 13.5q-106 0 -238 -90q6 -44 6 -96v-383q0 -56 4 -154q77 -11 133 -37q0 -62 -10 -92q-110 4 -209 4q-45 0 -123.5 -2t-103.5 -2 q-17 34 -17 92q74 12 146 35q8 60 8 115v344q0 53 -3 88t-13 71.5t-29 58t-52.5 35t-80.5 13.5q-104 0 -227 -84v-485q0 -80 6 -154q90 -10 153 -37q0 -65 -12 -92q-110 4 -229 4q-43 0 -126.5 -2t-121.5 -2q-15 30 -15 92z" />
<glyph unicode="n" horiz-adv-x="1214" d="M63 90q89 9 164 35q9 67 9 115v559q-72 22 -162 32q-10 32 -10 59q0 11 2 21q148 60 290 74l17 -14q12 -51 24 -117q186 137 344 137q283 0 283 -327v-383q0 -80 6 -154q93 -10 154 -37q0 -65 -15 -92q-106 4 -227 4q-42 0 -126.5 -2t-123.5 -2q-12 32 -12 92 q90 10 164 35q8 60 8 115v344q0 64 -6.5 107.5t-25.5 82t-57 57.5t-97 19q-122 0 -258 -94v-475q0 -80 6 -154q90 -10 153 -37q0 -65 -12 -92q-110 4 -229 4q-43 0 -126.5 -2t-121.5 -2q-15 30 -15 92z" />
<glyph unicode="o" horiz-adv-x="1050" d="M82 465q0 94 31.5 187t88 169t144.5 123t191 47q144 0 243 -65.5t144 -174.5t45 -253q0 -94 -31.5 -187t-88 -169t-144.5 -123.5t-191 -47.5q-211 0 -321.5 135t-110.5 359zM256 522q0 -70 16 -138.5t48.5 -132t92.5 -103t138 -39.5q37 0 80.5 10.5t60.5 27.5 q45 48 74 126.5t29 166.5q0 55 -9.5 110t-31.5 110.5t-55 98t-84.5 69t-114.5 26.5q-36 0 -80.5 -11t-61.5 -28q-45 -48 -73.5 -126t-28.5 -167z" />
<glyph unicode="p" horiz-adv-x="1146" d="M37 -422q89 9 164 35q8 60 8 115v1071q-72 22 -162 32q-10 32 -10 59q0 11 2 21q148 60 291 74l16 -14q9 -36 23 -109q59 56 143 92.5t182 36.5q166 0 268.5 -133t102.5 -354q0 -126 -54.5 -246.5t-155 -200.5t-218.5 -80t-256 95v-303q0 -81 6 -154q131 -7 242 -37 q0 -61 -13 -90q-226 4 -317 4q-42 0 -124 -2t-124 -2q-14 28 -14 90zM381 242q54 -56 127 -91.5t151 -35.5q38 0 78 13t51 26q47 55 75 131.5t28 160.5q0 106 -27.5 196t-87 149t-139.5 59q-53 0 -124.5 -25t-131.5 -63v-520z" />
<glyph unicode="q" horiz-adv-x="1099" d="M82 465q0 110 37.5 209t99 167.5t141 109t162.5 40.5q68 0 148 -31.5t133 -76.5q73 95 127 121q19 -3 36 -16.5t23 -29.5q-67 -122 -67 -235v-954q0 -81 6 -154q90 -10 153 -37q0 -63 -12 -90q-140 4 -229 4q-40 0 -145 -2t-160 -2q-15 30 -15 90q126 10 221 35 q9 67 9 115v335q-168 -86 -306 -86q-117 0 -200.5 66.5t-122.5 175t-39 246.5zM256 522q0 -105 25 -193t78.5 -146t127.5 -58q119 0 263 39v637q-141 53 -238 53q-60 0 -99.5 -12t-54.5 -27q-44 -47 -73 -126.5t-29 -166.5z" />
<glyph unicode="r" horiz-adv-x="882" d="M63 90q89 9 164 35q9 67 9 115v559q-72 22 -162 32q-10 32 -10 59q0 11 2 21q148 60 290 74l17 -14q20 -69 35 -178q127 192 284 192q90 0 166 -27q0 -192 -37 -352q-27 -9 -53.5 -9t-52.5 9q-8 146 -25 228q-28 4 -53 4q-66 0 -119 -33.5t-110 -128.5v-395q0 -80 6 -154 q156 -10 241 -37q0 -65 -12 -92q-152 4 -317 4q-43 0 -126.5 -2t-121.5 -2q-15 30 -15 92z" />
<glyph unicode="s" horiz-adv-x="868" d="M88 33q0 151 37 299q24 10 48 10l48 -10q2 -78 21 -205q60 -29 186 -29q101 0 140.5 31.5t39.5 120.5q0 49 -27.5 82t-78.5 61q-35 18 -97.5 42t-106.5 43.5t-90 49.5t-70.5 76.5t-24.5 108.5q0 73 31.5 128t85 85.5t113.5 44.5t126 14q168 0 293 -39q0 -126 -37 -252 q-24 -7 -47 -7q-29 0 -57 11q-5 65 -27 158q-69 21 -131 21q-60 0 -97 -8t-54 -26t-22 -37t-5 -50q0 -42 27.5 -74t71.5 -53.5t97 -41.5t106.5 -44.5t97.5 -56t71.5 -83t27.5 -118.5q0 -143 -107 -225.5t-271 -82.5q-195 0 -318 56z" />
<glyph unicode="t" horiz-adv-x="714" d="M41 946q75 19 158 25l67 278q12 1 24 1q46 0 81 -13v-270l319 -4q0 -70 -8 -125h-311v-496q0 -225 96 -225q85 0 203 43q35 -35 35 -92q-162 -97 -318 -97q-101 0 -144.5 73t-43.5 220v574q-93 19 -154 26q-7 22 -7 48q0 16 3 34z" />
<glyph unicode="u" horiz-adv-x="1191" d="M35 870q0 54 12 95q164 -4 238 -4h69l17 -17q-4 -199 -4 -559q0 -128 37.5 -195t121.5 -67q57 0 139 52t138 108v546q-71 26 -160 41q0 54 12 95q164 -4 236 -4h74l16 -17q-6 -205 -6 -590v-73q0 -106 10 -162q42 6 131 33q31 -31 31 -76q-49 -43 -116.5 -74t-119.5 -31 q-36 0 -64 58.5t-40 136.5q-86 -93 -163.5 -144t-168.5 -51q-280 0 -280 334v524q-69 25 -160 41z" />
<glyph unicode="v" horiz-adv-x="1095" d="M35 872q0 53 14 93q24 0 91 -2t108 -2q83 0 235 4q13 -31 13 -67q0 -13 -2 -26l-158 -36l205 -564l8 -149h2l256 717l-158 32q0 50 15 93q28 0 106 -2t125 -2q48 0 158 4q12 -33 12 -67q0 -13 -2 -26q-51 -26 -117 -36l-299 -818q-89 -28 -190 -28l-310 846 q-44 24 -112 36z" />
<glyph unicode="w" horiz-adv-x="1626" d="M35 872q0 53 14 93q24 0 91.5 -2t105.5 -2q75 0 227 4q12 -29 12 -65q0 -13 -2 -28l-157 -36l178 -564l10 -149h2l223 829q70 21 179 21l186 -701l12 -149h2l225 717l-157 32q0 53 14 93q30 0 107 -2t123 -2q39 0 153 4q12 -33 12 -67q0 -13 -2 -26q-52 -27 -116 -36 l-267 -818q-86 -28 -202 -28l-170 628l-13 162h-2l-211 -762q-86 -28 -196 -28l-269 846q-54 26 -112 36z" />
<glyph unicode="x" horiz-adv-x="1130" d="M27 90q88 10 161 35l273 364l-262 347q-43 20 -150 36q0 53 14 93q25 0 109 -2t123 -2q143 0 221 4q12 -29 12 -65q0 -13 -2 -28l-127 -24l189 -248l180 240l-131 32q0 53 14 93q28 0 104 -2t117 -2q99 0 152 4q12 -33 12 -67q0 -13 -2 -26q-58 -27 -127 -36l-248 -332 l291 -381q94 -11 150 -33q2 -13 2 -25q0 -34 -12 -67q-148 4 -213 4q-58 0 -146 -2t-117 -2q-14 40 -14 92l143 29l-208 274l-205 -270l145 -33q0 -65 -12 -92q-110 4 -209 4q-37 0 -110 -2t-103 -2q-14 32 -14 92z" />
<glyph unicode="y" horiz-adv-x="1095" d="M35 872q0 53 14 93q24 0 91 -2t108 -2q83 0 235 4q13 -31 13 -67q0 -13 -2 -26l-158 -36l205 -564l8 -149h2l256 717l-158 32q0 50 15 93q28 0 106 -2t125 -2q48 0 158 4q12 -33 12 -67q0 -13 -2 -26q-51 -26 -117 -36l-303 -820q-46 -124 -89.5 -217t-92.5 -168.5 t-103 -115t-110 -39.5q-61 0 -115 16t-84 37q0 52 33 90h27q71 0 128.5 22t102 66t77.5 96.5t66 126.5l31 70h-61l-306 836q-44 24 -112 36z" />
<glyph unicode="z" horiz-adv-x="978" d="M84 123l565 725h-383q-29 -121 -33 -189q-28 -6 -55 -6l-55 6q-19 129 -19 255v34l17 17q127 -4 481 -4h219q34 -52 37 -117l-569 -725h413q49 115 72 221q18 5 38 5q32 0 67 -13q1 -28 1 -56q0 -124 -18 -262l-16 -16q-127 4 -481 4h-252q-29 63 -29 121z" />
<glyph unicode="{" horiz-adv-x="909" d="M174 694q138 74 227 154q11 14 11 90q0 65 -8.5 221.5t-8.5 196.5q0 82 34 150.5t94.5 118t138.5 83.5t172 55q40 -32 43 -98q-84 -36 -159 -80.5t-106 -79.5q-14 -18 -28.5 -95.5t-14.5 -125.5v-420q0 -55 -56 -101t-161 -95q97 -38 157 -88.5t60 -106.5v-440 q0 -50 14.5 -127t28.5 -94q60 -71 265 -160q-3 -76 -43 -101q-197 44 -318 147t-121 261q0 42 8.5 193t8.5 210q0 70 -11 84q-78 90 -206 154q-21 46 -21 94z" />
<glyph unicode="|" horiz-adv-x="651" d="M250 -426v2167h151v-2167h-151z" />
<glyph unicode="}" horiz-adv-x="909" d="M33 -350q83 36 158 80.5t106 79.5q14 18 28.5 95.5t14.5 125.5v420q0 55 55.5 100.5t159.5 95.5q-95 36 -155 87.5t-60 107.5v440q0 50 -14.5 127t-28.5 94q-61 72 -264 160q3 75 43 100q197 -44 317.5 -146.5t120.5 -260.5q0 -42 -8 -193.5t-8 -210.5q0 -71 10 -84 q75 -87 207 -153q20 -44 20 -94q-138 -74 -227 -154q-10 -13 -10 -90q0 -65 8 -221.5t8 -196.5q0 -82 -33.5 -150.5t-94.5 -118.5t-138.5 -84.5t-171.5 -54.5q-40 32 -43 99z" />
<glyph unicode="~" horiz-adv-x="999" d="M61 483q62 59 143.5 104.5t133.5 45.5q44 0 93.5 -16.5t86.5 -36t82.5 -36t81.5 -16.5q37 0 95 24t110 58q48 -31 51 -90q-62 -58 -143 -103.5t-133 -45.5q-55 0 -118.5 26t-122.5 52t-104 26q-37 0 -94.5 -24t-109.5 -58q-49 32 -52 90z" />
<glyph unicode="&#xa1;" horiz-adv-x="612" d="M180 866q0 50 36.5 87.5t88.5 37.5q53 0 90 -37.5t37 -87.5q0 -49 -36.5 -82.5t-90.5 -33.5q-53 0 -89 33.5t-36 82.5zM197 -211q0 279 49 813q33 10 59 10t49 -10q56 -506 56 -807q0 -119 -9 -196q-54 -13 -98 -13q-43 0 -100 13q-6 71 -6 190z" />
<glyph unicode="&#xa2;" horiz-adv-x="960" d="M102 489q0 112 44 219.5t130.5 188.5t196.5 104v181q43 16 102 0v-172q176 -3 304 -60q0 -147 -43 -266q-70 -21 -121 8q-3 91 -17 170q-51 7 -123 10v-729q107 3 285 70q32 -28 35 -78q-65 -46 -153 -85t-167 -50v-162q-57 -12 -102 0v160q-127 11 -212 79.5t-122 172 t-37 239.5zM276 547q0 -59 10 -116.5t31.5 -114t61.5 -99.5t94 -61v710q-70 -11 -94 -32q-45 -47 -74 -123.5t-29 -163.5z" />
<glyph unicode="&#xa3;" horiz-adv-x="927" d="M66 141q90 18 129 96.5t45 223.5h-131q-19 61 0 119h133q9 198 103 327t247 129q135 0 254 -43q0 -156 -37 -274q-59 -8 -104 8q-6 89 -23 166q-39 8 -113 8q-37 0 -72 -12.5t-48 -28.5q-41 -54 -41 -280h235q17 -51 0 -119h-240q-11 -105 -48.5 -181.5t-108.5 -134.5 h434q37 91 61 189q50 8 111 -8q0 -164 -18 -312l-17 -16q-111 4 -403 4h-330q-24 66 -18 139z" />
<glyph unicode="&#xa5;" horiz-adv-x="983" d="M45 924q0 42 12 92q32 0 99.5 -2t105.5 -2q150 0 201 4q10 -51 8 -92l-133 -25l186 -276l189 274l-138 27q0 49 11 92q33 0 92 -2t84 -2q80 0 170 4q11 -48 8 -90q-59 -24 -98 -31l-199 -295h176q13 -41 0 -100h-231v-105h231q13 -41 0 -102h-231v-49q0 -66 6 -125 q71 -4 176 -29q3 -51 -10 -92q-63 4 -260 4q-48 0 -134.5 -2t-127.5 -2q-17 44 -17 92q84 5 187 29q10 36 10 108v66h-234q-12 51 0 102h234v105h-234q-12 49 0 100h164l-201 295q-57 21 -102 29z" />
<glyph unicode="&#xa7;" horiz-adv-x="978" d="M70 545q0 97 56.5 173.5t160.5 145.5q-125 90 -125 215q0 67 22.5 123t57.5 92t80.5 61.5t89.5 36.5t86 11q179 0 338 -60q-3 -137 -39 -266q-61 -12 -109 8q-3 78 -16 170q-80 25 -187 25q-36 0 -70.5 -8t-41.5 -15q-54 -44 -54 -133q0 -49 32.5 -90t84.5 -71t115 -58.5 t126 -60.5t115 -69t84.5 -91.5t32.5 -120.5q0 -98 -57 -174.5t-160 -144.5q125 -92 125 -215q0 -67 -22.5 -123t-57.5 -92t-80.5 -61.5t-89.5 -36.5t-86 -11q-182 0 -338 59q3 138 39 267q61 12 109 -8q3 -78 16 -170q80 -25 187 -25q37 0 71 7.5t41 14.5q53 43 53 134 q0 49 -32.5 90t-84.5 71t-114.5 58.5t-125.5 60.5t-115 69t-84.5 91.5t-32.5 120.5zM238 580q0 -40 21 -74t64 -63t83 -49.5t104.5 -50.5t101.5 -50q129 123 129 235q0 40 -21.5 73.5t-64 62t-83.5 49.5t-104 51t-101 51q-129 -121 -129 -235z" />
<glyph unicode="&#xa8;" horiz-adv-x="849" d="M127 1227q0 51 35 94t86 43q38 0 70 -28t32 -68q0 -51 -35.5 -91.5t-85.5 -41.5q-39 0 -70.5 27.5t-31.5 64.5zM498 1227q0 50 35.5 93.5t84.5 43.5q41 0 72 -28t31 -68q0 -51 -34.5 -91.5t-86.5 -41.5q-37 0 -69.5 27.5t-32.5 64.5z" />
<glyph unicode="&#xa9;" horiz-adv-x="1546" d="M82 662q0 189 92 348t251 251.5t347 92.5t347.5 -92.5t252 -252t92.5 -347.5q0 -141 -54.5 -269.5t-147.5 -221t-221 -147.5t-269 -55t-269 55t-220 147.5t-146.5 221t-54.5 269.5zM221 662q0 -115 42.5 -219.5t116 -180.5t176 -121t216.5 -45t217 45t176.5 121 t116.5 180.5t43 219.5q0 153 -72.5 283t-200 206t-280.5 76q-114 0 -216.5 -45t-176 -121t-116 -180t-42.5 -219zM416 655q0 72 24.5 140.5t70.5 126t121 92.5t167 35q128 0 219 -33q0 -128 -27 -213q-48 -6 -86 8q-8 78 -16 119q-41 6 -113 6q-38 0 -76.5 -8t-52.5 -17 q-25 -18 -53.5 -76t-28.5 -135q0 -134 60 -216.5t182 -82.5q52 0 98 11q14 110 15 131q43 14 92 8q16 -88 16 -221q-121 -41 -250 -41q-178 0 -270 102.5t-92 263.5z" />
<glyph unicode="&#xaa;" horiz-adv-x="684" d="M43 815q0 49 33.5 90.5t90 70.5t115.5 48.5t124 32.5q-3 64 -24.5 98.5t-70.5 34.5q-45 0 -92 -6q-10 -36 -10 -86q-53 -26 -100 -15q-37 60 -37 136q118 67 268 67q37 0 70.5 -7.5t70.5 -27t59.5 -61.5t22.5 -103v-309q32 4 90 17q23 -20 23 -52q-35 -34 -83.5 -56.5 t-92.5 -22.5q-23 0 -44.5 23.5t-35.5 62.5q-116 -86 -205 -86q-82 0 -127 39t-45 112zM205 856q0 -31 21.5 -53.5t58.5 -22.5q51 0 121 45v131q-150 -18 -175 -36q-11 -7 -18.5 -27t-7.5 -37z" />
<glyph unicode="&#xab;" horiz-adv-x="1181" d="M119 453q-6 50 12 106l399 397q49 -12 74 -61l-287 -389l299 -379q-34 -55 -90 -78zM569 453q-6 48 13 106l399 397q49 -12 74 -61l-287 -389l299 -379q-34 -55 -90 -78z" />
<glyph unicode="&#xac;" d="M102 461q-15 67 0 135h904v-596q-68 -15 -136 0v461h-768z" />
<glyph unicode="&#xad;" horiz-adv-x="778" d="M133 430q-17 65 2 137l510 11q19 -75 0 -140z" />
<glyph unicode="&#xae;" horiz-adv-x="1064" d="M29 1090q0 133 68 246.5t184 179t251 65.5q134 0 250 -65.5t185 -179t69 -246.5q0 -134 -69 -248t-185 -179t-250 -65q-135 0 -251 65.5t-184 179t-68 247.5zM145 1090q0 -161 113 -274.5t274 -113.5q160 0 274 113.5t114 274.5q0 160 -114 273.5t-274 113.5 q-161 0 -274 -113.5t-113 -273.5zM317 952l64 13v295l-64 14q-3 43 9 67l237 2q73 0 109.5 -39.5t36.5 -95.5q0 -41 -23 -75.5t-61 -55.5q41 -81 65 -103q23 -22 47 -22q21 0 35 4q19 -25 23 -57q-58 -29 -107 -29q-44 0 -89.5 57.5t-68.5 123.5l-47 4v-90l58 -15 q7 -41 -4 -67h-209q-14 28 -11 69zM483 1135h41q48 0 64 15.5t16 47.5q0 25 -16 41t-45 16h-60v-120z" />
<glyph unicode="&#xb0;" horiz-adv-x="745" d="M68 1065q0 126 89.5 215.5t215.5 89.5t215.5 -89.5t89.5 -215.5t-89.5 -215.5t-215.5 -89.5t-215.5 89.5t-89.5 215.5zM193 1065q0 -77 52.5 -130.5t127.5 -53.5t127.5 53.5t52.5 130.5t-52.5 130.5t-127.5 53.5t-127.5 -53.5t-52.5 -130.5z" />
<glyph unicode="&#xb1;" d="M156 0q-13 59 0 135h815q15 -69 0 -135h-815zM156 573q-13 59 0 136h340v325q69 15 135 0v-325h340q15 -69 0 -136h-340v-321q-59 -13 -135 0v321h-340z" />
<glyph unicode="&#xb4;" horiz-adv-x="849" d="M303 1126l225 342q94 25 203 25l17 -47l-367 -377q-52 12 -78 57z" />
<glyph unicode="&#xb5;" horiz-adv-x="1191" d="M129 954q46 19 94 19t94 -19v-432q0 -162 53.5 -265t135.5 -103q73 0 133 62.5t92.5 163t32.5 214.5v360q49 19 96 19t96 -19q-26 -209 -26 -366q0 -238 51 -416q88 6 166 33q53 -46 43 -119q-44 -50 -102.5 -82.5t-110.5 -32.5q-58 0 -95 95t-34 235h-4 q-48 -160 -129 -242t-180 -82q-181 0 -246 261h-4l51 -742q-47 -18 -100 -18q-52 0 -99 18q15 377 15 809q0 363 -23 649z" />
<glyph unicode="&#xb6;" horiz-adv-x="1153" d="M55 862q0 143 78 262.5t203.5 185.5t265.5 66q39 0 123.5 -3t134.5 -3q177 0 236 4q15 -46 12 -98q-84 -31 -166 -39q-8 -101 -8 -283v-776q0 -287 -129.5 -457t-347.5 -170q-171 0 -262 64q-10 128 71 197l21 6q42 -42 103.5 -67t119.5 -25q125 0 182 43q62 47 62 325 v330q-100 -35 -232 -35q-64 0 -129 18.5t-126 58t-108 94.5t-75.5 133t-28.5 169zM418 920q0 -158 60 -266.5t151 -108.5q68 0 125 8v690q-23 2 -74 2q-118 0 -191 -51q-26 -19 -48.5 -96.5t-22.5 -177.5z" />
<glyph unicode="&#xb7;" horiz-adv-x="612" d="M174 457q0 58 42.5 108.5t98.5 50.5q47 0 85 -33t38 -79q0 -58 -41.5 -108t-99.5 -50q-43 0 -83 33.5t-40 77.5z" />
<glyph unicode="&#xb8;" horiz-adv-x="849" d="M262 -465q32 14 62.5 31t64 41.5t54 55.5t20.5 63q0 41 -39.5 67.5t-112.5 22.5l-16 16l104 209h86l-57 -129q99 -4 151 -46.5t52 -111.5q0 -91 -102.5 -172t-243.5 -106q-23 20 -23 59z" />
<glyph unicode="&#xba;" horiz-adv-x="704" d="M45 965q0 58 21.5 114.5t60.5 103t100 75t133 28.5q149 0 224 -82.5t75 -218.5q0 -58 -21.5 -114.5t-60 -103t-100 -75t-133.5 -28.5q-146 0 -222.5 82t-76.5 219zM207 997q0 -53 14.5 -101.5t52 -86t93.5 -37.5q58 0 77 19q56 59 56 161q0 53 -14 101.5t-52 86.5t-94 38 q-59 0 -78 -19q-55 -58 -55 -162z" />
<glyph unicode="&#xbb;" horiz-adv-x="1185" d="M115 879q28 51 90 75l407 -405q9 -54 -12 -107l-399 -395q-57 19 -72 64l283 387zM567 879q28 51 90 75l408 -405q9 -54 -12 -107l-400 -395q-56 19 -71 64l282 387z" />
<glyph unicode="&#xbf;" horiz-adv-x="815" d="M55 -88q0 77 24 142.5t63 112t78.5 82.5t80 72.5t57.5 63.5q21 35 21 190q25 22 69 29.5t80 -2.5q31 -118 31 -219q0 -37 -34 -76.5t-82 -76t-96 -75t-82 -88.5t-34 -102q0 -103 66 -175.5t164 -72.5q47 0 94 7q32 96 43 210q59 20 107 9q34 -141 34 -305 q-54 -32 -142.5 -55t-178.5 -23q-174 0 -268.5 97.5t-94.5 254.5zM322 866q0 50 36 87.5t88 37.5q53 0 90 -37.5t37 -87.5q0 -49 -36.5 -82.5t-90.5 -33.5q-53 0 -88.5 33.5t-35.5 82.5z" />
<glyph unicode="&#xf7;" d="M141 461q-13 59 0 135h844q15 -69 0 -135h-844zM457 211q0 41 31.5 69.5t76.5 28.5q43 0 74 -28.5t31 -69.5q0 -43 -31 -74t-74 -31q-44 0 -76 31t-32 74zM457 846q0 40 32 68t76 28q43 0 74 -28t31 -68q0 -44 -31 -75.5t-74 -31.5q-44 0 -76 31.5t-32 75.5z" />
<glyph unicode="&#x192;" horiz-adv-x="868" d="M10 -375q46 43 82.5 100.5t62 131.5t44 144t33.5 167t24 169t21.5 181.5t21.5 175.5l4 41h-170q-18 57 0 113h186l17 123q11 85 39 151.5t62.5 106t78 65.5t82.5 35.5t78 9.5q111 0 233 -51q0 -127 -43 -264q-69 -18 -112 8q-4 105 -15 166q-42 10 -71 10 q-41 0 -69.5 -15t-45.5 -39t-29.5 -73.5t-19.5 -97.5t-17 -133v-2h205q16 -50 0 -113h-219v-12q-70 -594 -139 -836q-32 -113 -114 -203.5t-167 -123.5q-39 18 -43 65z" />
<glyph unicode="&#x2c6;" horiz-adv-x="849" d="M129 1120l225 355q64 17 135 14l250 -363q-18 -44 -73 -63l-242 252l-227 -252q-44 11 -68 57z" />
<glyph unicode="&#x2da;" horiz-adv-x="849" d="M207 1300q0 77 69.5 143t157.5 66q98 0 152.5 -51t54.5 -151q0 -75 -70 -142t-157 -67q-97 0 -152 51.5t-55 150.5zM328 1311q0 -39 29.5 -72t68.5 -33q42 0 68 21q26 19 26 71q0 40 -29.5 71.5t-68.5 31.5q-44 0 -68 -19q-26 -19 -26 -71z" />
<glyph unicode="&#x2dc;" horiz-adv-x="849" d="M39 1188q49 92 123 151.5t137 59.5q38 0 79 -21.5t70 -47t68 -47t74 -21.5q26 0 68.5 31.5t80.5 82.5q49 -12 72 -53q-50 -93 -125 -154t-141 -61q-37 0 -78 21.5t-70.5 47t-67.5 47t-71 21.5q-26 0 -68 -32t-81 -83q-54 15 -70 58z" />
<glyph unicode="&#x3a9;" horiz-adv-x="1544" d="M31 375q60 18 108 8q28 -119 74 -250h262v2q-58 57 -107 119t-92.5 137.5t-68.5 162t-25 173.5q0 112 44.5 231t121.5 220t195.5 166t253.5 65q115 0 209.5 -33.5t159.5 -91t110 -135.5t65.5 -166t20.5 -184q0 -188 -79 -361.5t-210 -302.5v-2h258q46 131 74 250 q48 10 108 -8q0 -195 -22 -361l-16 -16q-127 4 -455 4h-72q-44 38 -61 90q291 311 291 662q0 217 -125 362.5t-299 145.5q-61 0 -129 -19t-88 -39q-79 -79 -124.5 -196t-45.5 -254q0 -175 78.5 -334.5t226.5 -317.5q-19 -69 -76 -100h-57q-342 0 -469 -4l-17 16 q-22 166 -22 361z" />
<glyph unicode="&#x3c0;" horiz-adv-x="1267" d="M31 827q136 136 387 136h399q233 0 350 4q44 -67 41 -160l-16 -16h-246v-619q94 6 176 33q53 -46 43 -119q-52 -52 -110.5 -83.5t-110.5 -31.5q-63 0 -99 64t-36 168v588h-317v-453q0 -93 -26 -190t-73 -160q-141 0 -186 92q77 93 112 219t35 305v184q-175 -7 -272 -51 q-48 36 -51 90z" />
<glyph unicode="&#x400;" horiz-adv-x="1193" d="M66 96q75 8 178 39q10 49 10 125v694q0 156 -10 283q-103 31 -178 39q0 54 16 98q44 0 129.5 -2t130.5 -2h211q354 0 481 4l17 -16q6 -166 -19 -344q-54 -19 -108 0q-6 118 -33 225h-457v-467l420 8l16 -16q-3 -75 -20 -127l-416 8v-512h481q46 131 74 250q51 11 109 -8 q0 -187 -23 -361l-16 -16q-127 4 -481 4h-236q-45 0 -130.5 -2t-129.5 -2q-16 44 -16 98zM260 1729q35 69 121 118l367 -274q-14 -48 -46 -80l-432 195z" />
<glyph unicode="&#x401;" horiz-adv-x="1193" d="M66 96q75 8 178 39q10 49 10 125v694q0 156 -10 283q-103 31 -178 39q0 54 16 98q44 0 129.5 -2t130.5 -2h211q354 0 481 4l17 -16q6 -166 -19 -344q-54 -19 -108 0q-6 118 -33 225h-457v-467l420 8l16 -16q-3 -75 -20 -127l-416 8v-512h481q46 131 74 250q51 11 109 -8 q0 -187 -23 -361l-16 -16q-127 4 -481 4h-236q-45 0 -130.5 -2t-129.5 -2q-16 44 -16 98zM301 1610q0 49 34.5 91t84.5 42q37 0 67.5 -27t30.5 -65q0 -49 -34.5 -88.5t-82.5 -40.5q-38 0 -69 26t-31 62zM678 1610q0 48 35 90.5t82 42.5q39 0 69.5 -26.5t30.5 -65.5 q0 -49 -34 -88.5t-85 -40.5q-35 0 -66.5 26.5t-31.5 61.5z" />
<glyph unicode="&#x402;" horiz-adv-x="1492" d="M33 1358l16 16q127 -4 481 -4h265q354 0 481 4l16 -16q6 -164 -18 -328q-63 -18 -109 0q-6 112 -32 209h-422v-485q153 100 327 100q180 0 282.5 -129t102.5 -350q0 -182 -67 -341.5t-201.5 -283.5t-323.5 -190q-43 40 -43 102q210 99 329.5 272t119.5 410 q0 168 -71 265.5t-214 97.5q-127 0 -241 -62v-340q0 -99 8 -170q82 -8 166 -39q3 -49 -13 -98q-59 4 -254 4q-52 0 -150 -2t-149 -2q-18 42 -18 98q88 7 219 39q10 49 10 125v979h-337q-27 -122 -33 -250q-59 -19 -109 0q-24 179 -18 369z" />
<glyph unicode="&#x403;" horiz-adv-x="1056" d="M66 96q75 8 178 39q10 66 10 211v608q0 156 -10 283q-103 31 -178 39q0 54 16 98q44 0 129.5 -2t130.5 -2h195q354 0 481 4l16 -16q6 -184 -18 -369q-54 -19 -109 0q-6 131 -33 250h-440v-934q0 -99 8 -170q102 -8 207 -39q3 -54 -14 -98q-68 4 -285 4q-46 0 -134 -2 t-134 -2q-16 44 -16 98zM414 1571l381 266q59 -34 104 -117l-6 -41l-436 -190q-27 21 -43 82z" />
<glyph unicode="&#x404;" horiz-adv-x="1241" d="M92 662q0 108 27 213.5t82.5 201t133 168t186 115.5t233.5 43q211 0 374 -55q3 -166 -47 -324q-66 -12 -104 8q-5 99 -31 211q-83 12 -229 12q-64 0 -152 -20.5t-121 -48.5q-65 -64 -113 -169.5t-52 -244.5l495 14l17 -16q3 -80 -21 -139l-487 12q10 -112 42 -204.5 t89.5 -166t149.5 -114.5t210 -41q111 0 199 18q22 113 28 236q50 20 109 8q31 -158 31 -340q-217 -70 -422 -70q-124 0 -227 35.5t-176.5 98.5t-124 150t-75 190t-24.5 219z" />
<glyph unicode="&#x405;" horiz-adv-x="1114" d="M98 59q6 179 49 353q47 12 109 -9q6 -122 29 -249q110 -37 276 -37q44 0 91 11t73.5 22.5t32.5 17.5q69 66 69 209q0 74 -58.5 132.5t-145.5 90.5l-150 57q-54 20 -95.5 39t-91.5 51.5t-83 68t-55.5 87.5t-22.5 111q0 83 28.5 150.5t74.5 111t107 73t124 42t129 12.5 q94 0 202 -19.5t193 -52.5q-3 -161 -45 -311q-64 -16 -107 8q-10 120 -30 201q-98 26 -236 26q-65 0 -124 -11.5t-70 -20.5q-60 -53 -60 -146q0 -82 63 -140.5t150 -90.5l176 -64q318 -114 318 -352q0 -197 -128 -329t-341 -132q-133 0 -253.5 24t-197.5 66z" />
<glyph unicode="&#x406;" horiz-adv-x="684" d="M66 96q75 8 178 39q10 49 10 125v694q0 156 -10 283q-103 31 -178 39q0 54 16 98q44 0 129.5 -2t130.5 -2q195 0 254 4q15 -46 12 -98q-84 -31 -166 -39q-8 -101 -8 -283v-649q0 -99 8 -170q82 -8 166 -39q3 -52 -12 -98q-59 4 -254 4q-45 0 -130.5 -2t-129.5 -2 q-16 44 -16 98z" />
<glyph unicode="&#x407;" horiz-adv-x="684" d="M47 1610q0 49 34.5 91t84.5 42q37 0 67.5 -27t30.5 -65q0 -49 -34.5 -88.5t-82.5 -40.5q-38 0 -69 26t-31 62zM66 96q75 8 178 39q10 49 10 125v694q0 156 -10 283q-103 31 -178 39q0 54 16 98q44 0 129.5 -2t130.5 -2q195 0 254 4q15 -46 12 -98q-84 -31 -166 -39 q-8 -101 -8 -283v-649q0 -99 8 -170q82 -8 166 -39q3 -52 -12 -98q-59 4 -254 4q-45 0 -130.5 -2t-129.5 -2q-16 44 -16 98zM424 1610q0 48 35 90.5t82 42.5q39 0 69.5 -26.5t30.5 -65.5q0 -49 -34 -88.5t-85 -40.5q-35 0 -66.5 26.5t-31.5 61.5z" />
<glyph unicode="&#x408;" horiz-adv-x="626" d="M-90 -336q110 42 177 94.5t103.5 135.5t36.5 202v858q0 156 -10 283q-103 31 -178 39q0 54 16 98q44 0 129.5 -2t130.5 -2q195 0 254 4q16 -49 13 -98q-84 -31 -166 -39q-8 -101 -8 -283v-899q0 -236 -119.5 -353t-343.5 -142q-35 35 -35 104z" />
<glyph unicode="&#x409;" horiz-adv-x="1761" d="M10 145q13 68 86 109l172 -72q39 45 69 103.5t53.5 143.5t39 156t31 198t24 208t23.5 242q-88 30 -178 43q0 54 16 98q44 0 129.5 -2t130.5 -2h393q225 0 293 4q18 -46 15 -98q-105 -31 -207 -39q-8 -101 -8 -283v-161q113 22 221 22q88 0 165.5 -31t129 -81t81 -113.5 t29.5 -128.5q0 -86 -28 -167.5t-81.5 -149.5t-141 -109t-195.5 -41q-41 0 -130 4t-143 4q-52 0 -150 -2t-149 -2q-18 42 -18 98q88 7 219 39q10 49 10 125v979h-247q-11 -147 -20.5 -247t-25.5 -224t-35.5 -210t-49.5 -182t-67.5 -165.5t-90 -134.5t-117.5 -113 q-170 47 -248 182zM1092 131h163q53 0 100 8.5t71 18t30 16.5q76 87 76 234q0 110 -77.5 185t-190.5 75q-94 0 -172 -11v-526z" />
<glyph unicode="&#x40a;" horiz-adv-x="1923" d="M66 96q75 8 178 39q10 61 10 195v624q0 156 -10 283q-103 31 -178 39q0 54 16 98q44 0 129.5 -2t130.5 -2q195 0 254 4q15 -46 12 -98q-84 -31 -166 -39q-8 -90 -8 -354v-101h639v172q0 156 -10 283q-103 31 -178 39q0 54 16 98q44 0 129.5 -2t130.5 -2q225 0 295 4 q15 -46 12 -98q-101 -31 -206 -39q-9 -114 -9 -283v-161q113 22 222 22q88 0 165.5 -31t129 -81t81 -113.5t29.5 -128.5q0 -86 -28 -167.5t-81.5 -149.5t-141 -109t-195.5 -41q-41 0 -130 4t-143 4q-45 0 -130.5 -2t-129.5 -2q-16 44 -16 98q75 8 178 39q10 66 10 211v299 q-238 10 -422 10h-217v-350q0 -99 8 -170q82 -8 166 -39q3 -52 -12 -98q-59 4 -254 4q-45 0 -130.5 -2t-129.5 -2q-16 44 -16 98zM1253 131h164q53 0 100 8.5t71 18t30 16.5q76 87 76 234q0 110 -78 185t-191 75q-94 0 -172 -11v-526z" />
<glyph unicode="&#x40b;" horiz-adv-x="1595" d="M33 1358l16 16q127 -4 481 -4h265q354 0 481 4l16 -16q6 -164 -18 -328q-63 -18 -109 0q-6 112 -32 209h-422v-489q177 106 354 106q163 0 242 -79.5t79 -262.5v-379q82 -8 166 -39q3 -52 -12 -98q-49 4 -244 4q-45 0 -126.5 -2t-125.5 -2q-16 44 -16 98q75 8 178 39v320 q0 133 -48.5 192.5t-151.5 59.5q-157 0 -295 -64v-338q0 -99 8 -170q82 -8 166 -39q3 -52 -15 -98q-57 4 -252 4q-52 0 -150 -2t-149 -2q-18 42 -18 98q88 7 219 39q10 49 10 125v979h-337q-27 -122 -33 -250q-59 -19 -109 0q-24 179 -18 369z" />
<glyph unicode="&#x40c;" horiz-adv-x="1329" d="M66 96q75 8 178 39q10 61 10 195v624q0 156 -10 283q-103 31 -178 39q0 54 16 98q44 0 129.5 -2t130.5 -2q195 0 254 4q15 -46 12 -98q-84 -31 -166 -39q-8 -90 -8 -354v-113h236l217 449q61 125 121 180q70 -9 137 -36t112 -63q8 -32 -2.5 -71t-35.5 -68l-197 19 l-227 -482l346 -563q103 -12 178 -39q0 -70 -14 -98q-70 2 -236 2h-74l-397 639h-164v-334q0 -99 8 -170q82 -8 166 -39q3 -52 -12 -98q-59 4 -254 4q-45 0 -130.5 -2t-129.5 -2q-16 44 -16 98zM510 1571l381 266q59 -34 104 -117l-6 -41l-436 -190q-27 21 -43 82z" />
<glyph unicode="&#x40d;" horiz-adv-x="1544" d="M66 96q75 8 178 39q10 61 10 195v624q0 156 -10 283q-103 31 -178 39q0 54 16 98q44 0 129.5 -2t130.5 -2q195 0 254 4q15 -46 12 -98q-84 -31 -166 -39q-8 -90 -8 -354v-426l676 663l-6 117q-103 31 -178 39q0 54 16 98q44 0 129.5 -2t130.5 -2q195 0 254 4 q15 -46 12 -98q-85 -31 -165 -39q-9 -101 -9 -354v-578q0 -91 9 -170q80 -8 165 -39q3 -52 -12 -98q-59 4 -254 4q-45 0 -130.5 -2t-129.5 -2q-16 44 -16 98q75 8 178 39q10 61 10 195v606l-680 -660q0 -81 8 -141q82 -8 166 -39q3 -52 -12 -98q-59 4 -254 4 q-45 0 -130.5 -2t-129.5 -2q-16 44 -16 98zM436 1729q35 69 121 118l367 -274q-15 -50 -45 -80l-433 195z" />
<glyph unicode="&#x40e;" horiz-adv-x="1339" d="M10 1276q0 51 17 98q45 0 133 -2t135 -2q197 0 256 4q15 -46 12 -98l-180 -39l346 -698l293 698l-193 39q0 51 17 98q46 0 125 -2t110 -2q167 0 226 4q15 -46 12 -98q-77 -31 -152 -39l-422 -997q-72 -173 -190 -277q-178 49 -256 191q12 66 84 106l172 -72q35 46 78 144 l-459 905q-97 32 -164 39zM354 1739q22 27 95.5 38t113.5 1v-25q0 -57 37.5 -96t106.5 -39q65 0 100 35q11 9 20 43.5t9 66.5v15q36 10 110 0t101 -39q0 -99 -107 -166.5t-258 -67.5q-139 0 -233.5 62.5t-94.5 171.5z" />
<glyph unicode="&#x40f;" horiz-adv-x="1443" d="M66 96q75 8 178 39q10 61 10 195v624q0 156 -10 283q-103 31 -178 39q0 54 16 98q44 0 129.5 -2t130.5 -2q195 0 254 4q15 -46 12 -98q-84 -31 -166 -39q-8 -90 -8 -354v-750h580v821q0 156 -10 283q-102 31 -179 39q0 51 17 98q44 0 129.5 -2t130.5 -2q195 0 254 4 q15 -46 12 -98q-84 -31 -166 -39q-8 -101 -8 -283v-649q0 -99 8 -170q82 -8 166 -39q3 -52 -12 -98l-22 3h1l-57 1h-459q-25 -191 -33 -340q-28 -9 -63.5 -9t-63.5 9q-8 162 -32 340h-285q-45 0 -130.5 -2t-129.5 -2q-16 44 -16 98z" />
<glyph unicode="&#x410;" horiz-adv-x="1386" d="M10 96q67 7 164 39l420 1219q74 28 180 28l440 -1247q75 -8 152 -39q3 -52 -12 -98q-59 4 -254 4q-45 0 -130.5 -2t-129.5 -2q-17 47 -17 98l193 39l-113 318q-145 8 -323 8h-150l-108 -326l180 -39q3 -49 -13 -98q-59 4 -227 4q-32 0 -110 -2t-125 -2q-17 47 -17 98z M471 586h387l-166 471l-10 149h-2z" />
<glyph unicode="&#x411;" horiz-adv-x="1212" d="M66 96q75 8 178 39q10 49 10 125v694q0 156 -10 283q-103 31 -178 39q0 54 16 98q44 0 129.5 -2t130.5 -2h213q354 0 481 4l17 -16q6 -159 -19 -328q-54 -19 -108 0q-6 111 -33 209h-459v-461q135 27 268 27q101 0 186 -30.5t139.5 -80t85 -112t30.5 -127.5 q0 -67 -17.5 -132t-56 -125t-94 -105t-137.5 -72t-181 -27q-47 0 -149.5 4t-165.5 4q-45 0 -130.5 -2t-129.5 -2q-16 44 -16 98zM434 131h195q62 0 117.5 8.5t84 18t35.5 16.5q90 86 90 227q0 108 -89.5 182t-219.5 74q-112 0 -213 -14v-512z" />
<glyph unicode="&#x412;" horiz-adv-x="1212" d="M66 96q75 8 178 39q10 66 10 211v608q0 156 -10 283q-103 31 -178 39q0 54 16 98q44 0 129.5 -2t130.5 -2q84 0 215 4t178 4q152 0 252 -88.5t100 -222.5q0 -207 -198 -301q126 -44 190 -124.5t64 -190.5q0 -84 -29 -163t-85.5 -146t-153 -107.5t-218.5 -40.5 q-47 0 -149.5 4t-165.5 4q-45 0 -130.5 -2t-129.5 -2q-16 44 -16 98zM434 131h195q62 0 117.5 8.5t84 17.5t35.5 15q90 76 90 227q0 107 -90 180.5t-219 73.5h-213v-522zM434 791h174q145 0 219 64.5t74 160.5q0 97 -69.5 163t-178.5 66q-3 0 -219 -6v-448z" />
<glyph unicode="&#x413;" horiz-adv-x="1056" d="M66 96q75 8 178 39q10 66 10 211v608q0 156 -10 283q-103 31 -178 39q0 54 16 98q44 0 129.5 -2t130.5 -2h195q354 0 481 4l16 -16q6 -184 -18 -369q-54 -19 -109 0q-6 131 -33 250h-440v-934q0 -99 8 -170q102 -8 207 -39q3 -54 -14 -98q-68 4 -285 4q-46 0 -134 -2 t-134 -2q-16 44 -16 98z" />
<glyph unicode="&#x414;" horiz-adv-x="1374" d="M12 121l17 16l188 -4q127 198 191 471t96 633q-102 31 -178 39q0 54 16 98q44 0 129.5 -2t130.5 -2h414q195 0 254 4q15 -46 12 -98q-84 -31 -166 -39q-8 -101 -8 -283v-821q106 0 238 4l16 -16q6 -199 -19 -455q-68 -17 -116 0q-6 180 -35 336h-1010q-33 -145 -43 -336 q-58 -19 -108 0q-25 250 -19 455zM387 133h123h354h64v1106h-273q-56 -748 -268 -1106z" />
<glyph unicode="&#x415;" horiz-adv-x="1193" d="M66 96q75 8 178 39q10 49 10 125v694q0 156 -10 283q-103 31 -178 39q0 54 16 98q44 0 129.5 -2t130.5 -2h211q354 0 481 4l17 -16q6 -166 -19 -344q-54 -19 -108 0q-6 118 -33 225h-457v-467l420 8l16 -16q-3 -75 -20 -127l-416 8v-512h481q46 131 74 250q51 11 109 -8 q0 -187 -23 -361l-16 -16q-127 4 -481 4h-236q-45 0 -130.5 -2t-129.5 -2q-16 44 -16 98z" />
<glyph unicode="&#x416;" horiz-adv-x="1841" d="M10 96q72 5 178 39l347 565l-234 480l-197 -19q-25 29 -35.5 68t-2.5 71q45 36 112 63t137 36q58 -51 121 -180l219 -449h176v184q0 156 -10 283q-95 31 -168 39q0 51 17 98q42 0 123 -2t122 -2q183 0 240 4q15 -46 12 -98q-82 -31 -155 -39q-8 -90 -8 -354v-113h178 l217 449q61 125 121 180q70 -9 137 -36t112 -63q8 -32 -2.5 -71t-35.5 -68l-197 19l-227 -482l346 -563q103 -12 178 -39q0 -70 -14 -98q-70 2 -236 2h-74l-397 639h-106v-334q0 -99 8 -170q73 -8 155 -39q3 -52 -12 -98q-57 4 -240 4q-41 0 -122 -2t-123 -2q-17 47 -17 98 q73 8 168 39q10 61 10 195v309h-110l-393 -639h-68q-165 0 -235 -2q-15 30 -15 98z" />
<glyph unicode="&#x417;" horiz-adv-x="1105" d="M100 33q3 190 23 340q47 19 113 8q14 -143 43 -244q79 -20 210 -20q79 0 146.5 18.5t91.5 38.5q100 84 100 223q0 95 -76 167.5t-190 84.5l-203 -16l-16 18q-6 82 29 162l194 -8q94 25 150.5 96t56.5 146q0 87 -79 147.5t-210 60.5q-109 0 -200 -18q-23 -97 -29 -209 q-50 -19 -107 -8q-31 143 -34 280q199 103 448 103q166 0 281.5 -91.5t115.5 -215.5q0 -104 -58 -190t-171 -142q141 -36 215 -124t74 -208q0 -122 -81 -230t-208.5 -170.5t-263.5 -62.5q-188 0 -365 64z" />
<glyph unicode="&#x418;" horiz-adv-x="1544" d="M66 96q75 8 178 39q10 61 10 195v624q0 156 -10 283q-103 31 -178 39q0 54 16 98q44 0 129.5 -2t130.5 -2q195 0 254 4q15 -46 12 -98q-84 -31 -166 -39q-8 -90 -8 -354v-426l676 663l-6 117q-103 31 -178 39q0 54 16 98q44 0 129.5 -2t130.5 -2q195 0 254 4 q15 -46 12 -98q-85 -31 -165 -39q-9 -101 -9 -354v-578q0 -91 9 -170q80 -8 165 -39q3 -52 -12 -98q-59 4 -254 4q-45 0 -130.5 -2t-129.5 -2q-16 44 -16 98q75 8 178 39q10 61 10 195v606l-680 -660q0 -81 8 -141q82 -8 166 -39q3 -52 -12 -98q-59 4 -254 4 q-45 0 -130.5 -2t-129.5 -2q-16 44 -16 98z" />
<glyph unicode="&#x419;" horiz-adv-x="1544" d="M66 96q75 8 178 39q10 61 10 195v624q0 156 -10 283q-103 31 -178 39q0 54 16 98q44 0 129.5 -2t130.5 -2q195 0 254 4q15 -46 12 -98q-84 -31 -166 -39q-8 -90 -8 -354v-426l676 663l-6 117q-103 31 -178 39q0 54 16 98q44 0 129.5 -2t130.5 -2q195 0 254 4 q15 -46 12 -98q-85 -31 -165 -39q-9 -101 -9 -354v-578q0 -91 9 -170q80 -8 165 -39q3 -52 -12 -98q-59 4 -254 4q-45 0 -130.5 -2t-129.5 -2q-16 44 -16 98q75 8 178 39q10 61 10 195v606l-680 -660q0 -81 8 -141q82 -8 166 -39q3 -52 -12 -98q-59 4 -254 4 q-45 0 -130.5 -2t-129.5 -2q-16 44 -16 98zM428 1739q22 27 95.5 38t113.5 1v-25q0 -58 37 -96.5t106 -38.5q66 0 101 35q11 9 19.5 43.5t8.5 66.5v15q36 10 110 0t101 -39q0 -99 -106.5 -166.5t-257.5 -67.5q-139 0 -233.5 62.5t-94.5 171.5z" />
<glyph unicode="&#x41a;" horiz-adv-x="1329" d="M66 96q75 8 178 39q10 61 10 195v624q0 156 -10 283q-103 31 -178 39q0 54 16 98q44 0 129.5 -2t130.5 -2q195 0 254 4q15 -46 12 -98q-84 -31 -166 -39q-8 -90 -8 -354v-113h236l217 449q61 125 121 180q70 -9 137 -36t112 -63q8 -32 -2.5 -71t-35.5 -68l-197 19 l-227 -482l346 -563q103 -12 178 -39q0 -70 -14 -98q-70 2 -236 2h-74l-397 639h-164v-334q0 -99 8 -170q82 -8 166 -39q3 -52 -12 -98q-59 4 -254 4q-45 0 -130.5 -2t-129.5 -2q-16 44 -16 98z" />
<glyph unicode="&#x41b;" horiz-adv-x="1361" d="M10 145q13 68 86 109l172 -72q39 45 69 103.5t53.5 143.5t39 156t31 198t24 208t23.5 242q-88 30 -178 43q0 54 16 98q44 0 129.5 -2t130.5 -2h414q195 0 254 4q15 -46 12 -98q-84 -31 -166 -39q-8 -101 -8 -283v-649q0 -99 8 -170q82 -8 166 -39q3 -52 -12 -98 q-59 4 -254 4q-52 0 -150 -2t-149 -2q-19 45 -19 98q90 7 220 39q10 49 10 125v979h-268q-11 -149 -20.5 -247.5t-25.5 -223.5t-35 -210t-48.5 -181.5t-67 -166t-90 -134.5t-117.5 -113q-173 47 -250 182z" />
<glyph unicode="&#x41c;" horiz-adv-x="1882" d="M45 96q73 7 184 41l99 1100q-127 33 -189 39q0 51 17 98q46 0 126 -2t115 -2q113 0 201 -8l313 -989l4 -199h3l362 1190q66 6 188 6q199 0 258 4q16 -49 13 -98q-74 -27 -172 -39l96 -1102q90 -8 174 -39q3 -52 -12 -98q-59 4 -260 4q-45 0 -131.5 -2t-130.5 -2 q-17 47 -17 98l187 39l-80 920l-7 184h-2l-372 -1221q-83 -25 -187 -28l-338 1065l-24 184h-2l-96 -1104l172 -39q3 -49 -13 -98q-59 4 -229 4q-35 0 -112.5 -2t-121.5 -2q-16 44 -16 98z" />
<glyph unicode="&#x41d;" horiz-adv-x="1544" d="M66 96q75 8 178 39q10 61 10 195v624q0 156 -10 283q-103 31 -178 39q0 54 16 98q44 0 129.5 -2t130.5 -2q195 0 254 4q15 -46 12 -98q-84 -31 -166 -39q-8 -90 -8 -354v-101h680v172q0 156 -10 283q-103 31 -178 39q0 54 16 98q44 0 129.5 -2t130.5 -2q195 0 254 4 q15 -46 12 -98q-85 -31 -165 -39q-9 -101 -9 -354v-578q0 -91 9 -170q80 -8 165 -39q3 -52 -12 -98q-59 4 -254 4q-45 0 -130.5 -2t-129.5 -2q-16 44 -16 98q75 8 178 39q10 61 10 195v315q-238 10 -422 10h-258v-350q0 -99 8 -170q82 -8 166 -39q3 -52 -12 -98 q-59 4 -254 4q-45 0 -130.5 -2t-129.5 -2q-16 44 -16 98z" />
<glyph unicode="&#x41e;" horiz-adv-x="1413" d="M92 662q0 107 28 213.5t83 202.5t130 170t176.5 117.5t215.5 43.5q141 0 255 -53.5t188 -148t113.5 -221.5t39.5 -275q0 -107 -28 -214.5t-83 -203t-130 -169.5t-176.5 -117.5t-215.5 -43.5q-142 0 -256.5 54t-188 149t-112.5 221.5t-39 274.5zM279 750 q0 -104 16.5 -196.5t52.5 -174.5t89.5 -141t132 -93t175.5 -34q52 0 124 20.5t100 48.5q68 66 117 180.5t49 262.5q0 131 -27 243t-81.5 202.5t-146.5 142t-212 51.5q-51 0 -123.5 -21t-100.5 -49q-67 -66 -116 -179.5t-49 -262.5z" />
<glyph unicode="&#x41f;" horiz-adv-x="1503" d="M66 96q75 8 178 39q10 61 10 195v624q0 156 -10 283q-103 31 -178 39q0 54 16 98q44 0 129.5 -2t130.5 -2h819q195 0 254 4q15 -46 12 -98q-85 -31 -165 -39q-9 -101 -9 -354v-578q0 -91 9 -170q80 -8 165 -39q3 -52 -12 -98q-59 4 -254 4q-45 0 -130.5 -2t-129.5 -2 q-16 44 -16 98q75 8 178 39q10 61 10 195v909h-639v-934q0 -99 8 -170q82 -8 166 -39q3 -52 -12 -98q-59 4 -254 4q-45 0 -130.5 -2t-129.5 -2q-16 44 -16 98z" />
<glyph unicode="&#x420;" horiz-adv-x="1153" d="M66 96q75 8 178 39q10 49 10 125v694q0 156 -10 283q-103 31 -178 39q0 54 16 98q44 0 129.5 -2t130.5 -2q78 0 209 4t174 4q99 0 172.5 -31t116.5 -85t63.5 -121t20.5 -146q0 -109 -62 -221.5t-170 -189t-227 -76.5q-121 0 -205 16v-219q0 -99 8 -170q102 -8 207 -39 q3 -54 -14 -98q-68 4 -285 4q-46 0 -134 -2t-134 -2q-16 44 -16 98zM434 659q68 -8 180 -8q45 0 95 13t78.5 25.5t35.5 19.5q40 35 64 95.5t24 133.5q0 43 -7.5 84.5t-26 82.5t-45.5 71.5t-69 49.5t-93 19q-26 0 -236 -6v-580z" />
<glyph unicode="&#x421;" horiz-adv-x="1241" d="M92 662q0 108 27 213.5t82.5 201t133 168t186 115.5t233.5 43q211 0 374 -55q3 -173 -47 -338q-66 -12 -104 8q-5 107 -31 225q-83 12 -229 12q-64 0 -152 -20.5t-121 -48.5q-68 -66 -116.5 -177.5t-48.5 -258.5q0 -104 16 -195t53.5 -172.5t93.5 -139.5t141 -92t191 -34 q111 0 199 18q22 121 28 250q50 20 109 8q31 -163 31 -354q-217 -70 -422 -70q-124 0 -227 35.5t-176.5 98.5t-124 150t-75 190t-24.5 219z" />
<glyph unicode="&#x422;" horiz-adv-x="1241" d="M33 1358l16 16q127 -4 481 -4h181q354 0 481 4l16 -16q6 -184 -18 -369q-63 -18 -109 0q-7 137 -32 250h-338v-934q0 -99 8 -170q102 -8 207 -39q3 -52 -15 -98q-68 4 -293 4q-52 0 -150 -2t-149 -2q-18 42 -18 98q88 7 219 39q10 49 10 125v979h-337q-27 -122 -33 -250 q-59 -19 -109 0q-24 179 -18 369z" />
<glyph unicode="&#x423;" horiz-adv-x="1339" d="M10 1276q0 51 17 98q45 0 133 -2t135 -2q197 0 256 4q15 -46 12 -98l-180 -39l346 -698l293 698l-193 39q0 51 17 98q46 0 125 -2t110 -2q167 0 226 4q15 -46 12 -98q-77 -31 -152 -39l-422 -997q-72 -173 -190 -277q-178 49 -256 191q12 66 84 106l172 -72q35 46 78 144 l-459 905q-97 32 -164 39z" />
<glyph unicode="&#x424;" horiz-adv-x="1470" d="M61 649q0 151 81.5 275.5t216 194t290.5 71.5v96q-143 34 -229 41q0 56 18 98q51 0 148 -2t147 -2q221 0 289 4q17 -44 14 -98q-106 -31 -215 -39v-98q273 0 430.5 -116.5t157.5 -344.5q0 -152 -82 -277t-216.5 -194t-289.5 -70v-104q109 -8 215 -39q3 -54 -14 -98 q-68 4 -289 4q-49 0 -146 -2t-149 -2q-18 42 -18 98q76 6 229 39v104q-274 0 -431 116.5t-157 344.5zM242 715q0 -195 105 -297t302 -107v756q-98 -3 -173.5 -18.5t-100.5 -34.5q-57 -39 -95 -123t-38 -176zM821 311q99 3 175 18.5t100 35.5q57 39 95 123t38 176 q0 194 -106 296t-302 107v-756z" />
<glyph unicode="&#x425;" horiz-adv-x="1347" d="M8 96q69 8 172 39l385 561l-375 541q-97 32 -163 39q0 54 16 98q45 0 134 -2t138 -2q199 0 256 4q13 -40 13 -98l-164 -39l276 -399l277 397l-178 39q0 56 16 100q45 0 121.5 -2t109.5 -2q175 0 238 4q12 -37 12 -98q-77 -31 -151 -39l-365 -516l408 -586q74 -8 151 -39 q3 -52 -12 -98q-59 4 -270 4q-51 0 -141.5 -2t-133.5 -2q-16 44 -16 98l192 39l-307 443l-305 -443l180 -39q3 -52 -12 -98q-59 4 -234 4q-33 0 -116.5 -2t-134.5 -2q-17 47 -17 98z" />
<glyph unicode="&#x426;" horiz-adv-x="1460" d="M66 96q75 8 178 39q10 61 10 195v624q0 156 -10 283q-103 31 -178 39q0 54 16 98q44 0 129.5 -2t130.5 -2q195 0 254 4q15 -46 12 -98q-84 -31 -166 -39q-8 -90 -8 -354v-750h516h64v821q0 156 -10 283q-102 31 -179 39q0 51 17 98q44 0 129.5 -2t130.5 -2q195 0 254 4 q15 -46 12 -98q-84 -31 -166 -39q-8 -90 -8 -354v-750q106 0 238 4l16 -16q6 -219 -18 -455q-69 -18 -117 0q-7 185 -35 336h-936q-45 0 -130.5 -2t-129.5 -2q-16 44 -16 98z" />
<glyph unicode="&#x427;" horiz-adv-x="1366" d="M10 1276q0 51 17 98q44 0 129.5 -2t130.5 -2q186 0 243 4q16 -49 13 -98q-82 -32 -164 -39v-272q0 -146 61.5 -228t165.5 -82q175 0 330 74v225q0 156 -10 283q-103 31 -178 39q0 54 16 98q44 0 129.5 -2t130.5 -2q195 0 254 4q15 -46 12 -98q-84 -31 -166 -39 q-8 -101 -8 -283v-649q0 -99 8 -170q82 -8 166 -39q3 -52 -12 -98q-59 4 -254 4q-52 0 -150 -2t-149 -2q-18 42 -18 98q88 7 219 39q10 49 10 125v338q-167 -92 -369 -92q-368 0 -368 409v320q-118 34 -189 41z" />
<glyph unicode="&#x428;" horiz-adv-x="1994" d="M66 96q75 8 178 39q10 61 10 195v624q0 156 -10 283q-103 31 -178 39q0 54 16 98q44 0 129.5 -2t130.5 -2q195 0 254 4q15 -46 12 -98q-84 -31 -166 -39q-8 -90 -8 -354v-750h475v821q0 156 -10 283q-103 31 -178 39q0 54 16 98q44 0 129.5 -2t130.5 -2q195 0 254 4 q16 -49 13 -98q-84 -31 -166 -39q-8 -90 -8 -354v-750h475v821q0 144 -11 283q-103 31 -178 39q0 51 17 98q44 0 129.5 -2t130.5 -2q195 0 254 4q15 -46 12 -98q-84 -31 -166 -39q-8 -101 -8 -283v-649q0 -99 8 -170q82 -8 166 -39q3 -52 -12 -98q-59 4 -254 4h-1311 q-45 0 -130.5 -2t-129.5 -2q-16 44 -16 98z" />
<glyph unicode="&#x429;" horiz-adv-x="2011" d="M66 96q75 8 178 39q10 61 10 195v624q0 156 -10 283q-103 31 -178 39q0 54 16 98q44 0 129.5 -2t130.5 -2q195 0 254 4q15 -46 12 -98q-84 -31 -166 -39q-8 -90 -8 -354v-750h475v821q0 156 -10 283q-103 31 -178 39q0 54 16 98q44 0 129.5 -2t130.5 -2q195 0 254 4 q16 -49 13 -98q-84 -31 -166 -39q-8 -90 -8 -354v-750h411h64v821q0 144 -11 283q-103 31 -178 39q0 51 17 98q44 0 129.5 -2t130.5 -2q195 0 254 4q15 -46 12 -98q-84 -31 -166 -39q-8 -90 -8 -354v-750q105 0 237 4l17 -16q6 -220 -19 -455q-68 -17 -116 0q-6 180 -35 336 h-1487q-45 0 -130.5 -2t-129.5 -2q-16 44 -16 98z" />
<glyph unicode="&#x42a;" horiz-adv-x="1396" d="M33 1358l16 16q127 -4 481 -4h23q225 0 295 4q15 -46 12 -98q-101 -31 -207 -39q-8 -101 -8 -283v-166q135 27 268 27q101 0 186 -30.5t139.5 -81t85 -113.5t30.5 -129q0 -69 -17.5 -134.5t-56 -126t-94 -106.5t-137.5 -73t-181 -27q-47 0 -149.5 4t-165.5 4 q-45 0 -130.5 -2t-129.5 -2q-17 47 -17 98q77 8 179 39q10 66 10 211v893h-272q-27 -122 -33 -250q-59 -19 -109 0q-24 179 -18 369zM645 131h195q62 0 117.5 8.5t84 18t35.5 16.5q90 79 90 234q0 110 -90 185t-219 75q-105 0 -213 -15v-522z" />
<glyph unicode="&#x42b;" horiz-adv-x="1757" d="M66 96q75 8 178 39q10 66 10 211v608q0 156 -10 283q-103 31 -178 39q0 54 16 98q44 0 129.5 -2t130.5 -2q225 0 295 4q15 -46 12 -98q-101 -31 -207 -39q-8 -101 -8 -283v-161q113 22 221 22q88 0 165.5 -31t129.5 -81t81.5 -113.5t29.5 -128.5q0 -68 -17 -134 t-54 -126.5t-88.5 -106.5t-126 -73t-161.5 -27q-41 0 -129.5 4t-142.5 4q-45 0 -130.5 -2t-129.5 -2q-16 44 -16 98zM434 131h164q53 0 100 8.5t71 18t30 16.5q75 86 75 234q0 110 -77.5 185t-190.5 75q-94 0 -172 -11v-526zM1139 96q75 8 178 39q10 49 10 125v694 q0 156 -10 283q-103 31 -178 39q0 54 16 98q44 0 129.5 -2t130.5 -2q195 0 254 4q15 -46 12 -98q-85 -31 -165 -39q-9 -114 -9 -283v-649q0 -91 9 -170q80 -8 165 -39q3 -52 -12 -98q-59 4 -254 4q-45 0 -130.5 -2t-129.5 -2q-16 44 -16 98z" />
<glyph unicode="&#x42c;" horiz-adv-x="1185" d="M66 96q75 8 178 39q10 66 10 211v608q0 156 -10 283q-103 31 -178 39q0 54 16 98q44 0 129.5 -2t130.5 -2q225 0 295 4q15 -46 12 -98q-101 -31 -207 -39q-8 -101 -8 -283v-166q135 27 268 27q101 0 186 -30.5t139.5 -81t85 -113.5t30.5 -129q0 -69 -17.5 -134.5 t-56 -126t-94 -106.5t-137.5 -73t-181 -27q-47 0 -149.5 4t-165.5 4q-45 0 -130.5 -2t-129.5 -2q-16 44 -16 98zM434 131h195q62 0 117.5 8.5t84 18t35.5 16.5q90 79 90 234q0 110 -90 185t-219 75q-105 0 -213 -15v-522z" />
<glyph unicode="&#x42d;" horiz-adv-x="1234" d="M100 33q3 182 23 340q50 19 113 8q13 -141 43 -244q84 -20 239 -20q64 0 152 20.5t121 48.5q68 66 116.5 178t48.5 259v20l-495 -12l-17 16q-3 74 21 139l481 -14q-14 105 -47 190t-89 152t-141.5 104t-195.5 37q-105 0 -190 -18q-22 -101 -29 -209q-49 -21 -107 -8 q-34 156 -34 280q208 103 424 103q148 0 265 -54t190.5 -149t112 -219t38.5 -270q0 -108 -27 -214t-82.5 -201t-133 -168t-186 -116t-233.5 -43q-208 0 -381 64z" />
<glyph unicode="&#x42e;" horiz-adv-x="1970" d="M66 96q75 8 178 39q10 49 10 125v694q0 156 -10 283q-103 31 -178 39q0 54 16 98q44 0 129.5 -2t130.5 -2q195 0 254 4q15 -46 12 -98q-84 -31 -166 -39q-8 -101 -8 -283v-182h307q16 121 63.5 234t120 203.5t176.5 145t222 54.5q131 0 237 -53.5t175 -148t106 -221.5 t37 -275q0 -107 -26 -214.5t-77.5 -203t-121 -169.5t-164 -117.5t-199.5 -43.5q-172 0 -298 90.5t-189.5 240.5t-67.5 343h-301v-332q0 -99 8 -170q82 -8 166 -39q3 -52 -12 -98q-59 4 -254 4q-45 0 -130.5 -2t-129.5 -2q-16 44 -16 98zM922 750q0 -104 14.5 -196.5 t47 -174.5t80.5 -141t119 -93t158 -34q47 0 111.5 20.5t89.5 48.5q61 66 105.5 180.5t44.5 262.5q0 104 -14.5 196.5t-47.5 174.5t-81 141t-119 93t-158 34q-46 0 -111 -21t-90 -49q-61 -66 -105 -180t-44 -262z" />
<glyph unicode="&#x42f;" horiz-adv-x="1243" d="M25 96q75 27 178 39l241 461q-138 35 -216 129.5t-78 220.5q0 102 57.5 202t158 165t212.5 65q44 0 157 -4t166 -4q195 0 254 4q15 -46 12 -98q-84 -31 -166 -39q-8 -101 -8 -283v-649q0 -99 8 -170q82 -8 166 -39q3 -52 -12 -98q-59 4 -254 4q-45 0 -130.5 -2t-129.5 -2 q-16 44 -16 98q75 8 178 39q10 49 10 125v334q-93 -16 -213 -16h-6l-260 -578h-66q-161 0 -229 -2q-14 28 -14 98zM338 997q0 -124 87.5 -200t211.5 -76q95 0 176 8v510q-114 6 -235 6q-47 0 -95 -11t-63 -22q-40 -33 -61 -90.5t-21 -124.5z" />
<glyph unicode="&#x430;" horiz-adv-x="997" d="M72 215q0 66 33.5 123t87 98t129 74t150 54t159.5 36q-2 130 -38.5 196t-133.5 66q-91 0 -162 -16q-14 -62 -14 -166q-66 -30 -119 -14q-49 100 -49 219q173 104 364 104q42 0 81 -6.5t85 -27.5t79.5 -54.5t56 -94t22.5 -140.5v-385q0 -106 10 -162q42 6 131 33 q31 -31 31 -76q-50 -43 -116 -74t-118 -31q-31 0 -58.5 45.5t-41.5 116.5q-88 -75 -178.5 -118.5t-159.5 -43.5q-103 0 -167 66t-64 178zM254 266q0 -61 38.5 -100t115.5 -39q45 0 109 30.5t114 75.5v242q-116 -13 -216 -39.5t-120 -46.5q-18 -18 -29.5 -53.5t-11.5 -69.5z " />
<glyph unicode="&#x431;" horiz-adv-x="1071" d="M98 639q0 678 410 750q148 27 209.5 67t52.5 111q27 24 78 24q55 -94 55 -194q0 -47 -39 -79t-104.5 -49t-134.5 -28t-146.5 -27t-122.5 -36q-43 -18 -74 -118t-40 -241q141 144 319 144q109 0 192.5 -36.5t135.5 -102t78 -151.5t26 -190q0 -92 -31.5 -182.5t-87.5 -164 t-143.5 -119.5t-191.5 -46q-222 0 -331.5 166t-109.5 502zM274 516q0 -63 18.5 -131t53 -131t95 -104t134.5 -41q37 0 81 9.5t61 26.5q45 45 73.5 121t28.5 162q0 65 -17 132.5t-49.5 128t-89 98.5t-126.5 38q-263 0 -263 -309z" />
<glyph unicode="&#x432;" horiz-adv-x="1046" d="M63 90q81 9 164 37q9 53 9 113v483q0 57 -9 113q-84 28 -164 36q0 58 15 93q42 0 116.5 -2t102.5 -2q67 0 181 2t149 2q122 0 199 -62.5t77 -157.5q0 -66 -37.5 -119t-136.5 -91q111 -16 167 -78.5t56 -143.5q0 -47 -14.5 -92t-45.5 -86t-75 -72.5t-108.5 -50 t-141.5 -18.5q-37 0 -114 4t-127 4q-39 0 -123.5 -2t-124.5 -2q-15 47 -15 92zM408 115h129q47 0 89.5 5t65.5 11t27 10q59 41 59 146q0 71 -57 115t-158 44h-155v-331zM408 559h108q102 0 155.5 40t53.5 101q0 65 -43.5 103.5t-124.5 38.5q-51 0 -149 -4v-279z" />
<glyph unicode="&#x433;" horiz-adv-x="901" d="M63 90q81 9 164 37q9 53 9 113v483q0 57 -9 113q-84 28 -164 36q0 58 15 93q42 0 116.5 -2t102.5 -2h168q287 0 389 4l14 -17q6 -159 -16 -289q-55 -13 -107 0q-3 99 -26 189h-311v-561q0 -86 6 -160q109 -10 186 -37q0 -67 -14 -92q-122 4 -260 4q-39 0 -123.5 -2 t-124.5 -2q-15 47 -15 92z" />
<glyph unicode="&#x434;" horiz-adv-x="1155" d="M33 106l16 17l158 -4q78 130 118 296t70 419q-97 29 -157 38q0 61 14 93q40 0 120.5 -2t119.5 -2h331q116 0 242 4q12 -32 12 -93q-66 -27 -153 -36q-6 -74 -6 -154v-563q82 0 184 4l16 -17q3 -224 -18 -403q-57 -12 -111 0q-5 119 -33 299h-761q-28 -180 -33 -299 q-54 -12 -111 0q-21 179 -18 403zM360 119h99h233h53v717h-210q-47 -460 -175 -717z" />
<glyph unicode="&#x435;" horiz-adv-x="983" d="M82 467q0 128 55 247.5t158.5 198t228.5 78.5q82 0 146.5 -21.5t104.5 -56t66.5 -83t37 -99t10.5 -106.5q0 -82 -10 -127l-17 -17q-168 4 -370 4h-238q3 -53 13 -102t31.5 -98t51.5 -85t77 -58.5t105 -22.5q134 0 326 74q32 -23 35 -74q-86 -57 -195.5 -102.5 t-199.5 -45.5q-107 0 -188 38t-130 106t-73.5 156.5t-24.5 195.5zM258 592h201q148 0 250 8q0 55 -8 96.5t-29.5 80.5t-66 60t-109.5 21q-36 0 -79.5 -11t-60.5 -28q-77 -84 -98 -227z" />
<glyph unicode="&#x436;" horiz-adv-x="1613" d="M2 29q-9 42 21 80q35 -7 63 -7q50 0 84 20t76 68q73 87 188 312l-147 299q-75 6 -160 -6q-41 44 -37 116q93 74 180 74q51 0 92 -43t64 -98t57 -136.5t62 -127.5q9 -14 60.5 -22.5t119.5 -8.5v174q0 64 -8 113q-78 28 -152 36q0 58 15 93q37 0 110 -2t109 -2q107 0 225 4 q12 -32 12 -93q-60 -27 -141 -36q-6 -74 -6 -154v-133q68 0 119.5 8.5t60.5 22.5q28 46 62 127.5t56.5 136.5t63.5 98t92 43q88 0 181 -74q4 -72 -37 -116q-85 12 -160 6l-147 -299q115 -225 188 -312q42 -48 76 -68t84 -20q28 0 63 7q30 -38 21 -80q-28 -16 -105.5 -32.5 t-136.5 -16.5q-90 0 -178.5 129t-153.5 319l-149 -2v-139q0 -86 6 -160q81 -10 141 -37q0 -65 -12 -92q-102 4 -213 4q-37 0 -115.5 -2t-115.5 -2q-15 47 -15 92q75 9 152 37q8 47 8 113v186l-150 2q-43 -122 -93 -219t-114 -163t-124 -66q-59 0 -136.5 16.5t-105.5 32.5z " />
<glyph unicode="&#x437;" horiz-adv-x="913" d="M68 41q-3 105 63 168l16 6q65 -38 141.5 -63t143.5 -25q52 0 101.5 10t62.5 21q45 42 45 123q0 107 -102 157l-197 -16l-16 16q-13 74 22 127l195 -6q75 49 75 154q0 61 -50.5 103t-135.5 42q-103 0 -182 -16q-14 -60 -14 -162q-66 -30 -119 -14q-49 100 -49 217 q175 102 387 102q164 0 250 -62.5t86 -183.5q0 -130 -113 -213q69 -39 105 -95t36 -122q0 -144 -118 -238t-291 -94q-211 0 -342 64z" />
<glyph unicode="&#x438;" horiz-adv-x="1292" d="M63 90q81 9 164 37q9 53 9 113v483q0 57 -9 113q-84 28 -164 36q0 58 15 93q40 0 118 -2t117 -2q116 0 242 4q12 -32 12 -93q-66 -27 -153 -36q-6 -73 -6 -154v-328l-23 -170h2l471 774q50 3 107 3q115 0 241 4q13 -35 13 -93q-66 -26 -154 -36q-6 -74 -6 -154v-395 q0 -86 6 -160q92 -10 154 -37q0 -63 -13 -92q-110 4 -229 4q-39 0 -123.5 -2t-124.5 -2q-14 43 -14 92q81 9 164 37q8 47 8 113v415l26 170h-2l-497 -821q-27 -2 -88 -2q-39 0 -123.5 -2t-124.5 -2q-15 47 -15 92z" />
<glyph unicode="&#x439;" horiz-adv-x="1292" d="M63 90q81 9 164 37q9 53 9 113v483q0 57 -9 113q-84 28 -164 36q0 58 15 93q40 0 118 -2t117 -2q116 0 242 4q12 -32 12 -93q-66 -27 -153 -36q-6 -73 -6 -154v-328l-23 -170h2l471 774q50 3 107 3q115 0 241 4q13 -35 13 -93q-66 -26 -154 -36q-6 -74 -6 -154v-395 q0 -86 6 -160q92 -10 154 -37q0 -63 -13 -92q-110 4 -229 4q-39 0 -123.5 -2t-124.5 -2q-14 43 -14 92q81 9 164 37q8 47 8 113v415l26 170h-2l-497 -821q-27 -2 -88 -2q-39 0 -123.5 -2t-124.5 -2q-15 47 -15 92zM358 1372q23 32 81 42.5t91 -1.5v-24q0 -69 36 -116.5 t100 -47.5q34 0 63 11.5t41 25.5q11 14 20 54t9 79v18q35 11 91.5 1.5t84.5 -44.5q0 -99 -91.5 -176.5t-228.5 -77.5q-126 0 -211.5 73t-85.5 183z" />
<glyph unicode="&#x43a;" horiz-adv-x="1159" d="M63 90q81 9 164 37q9 53 9 113v483q0 57 -9 113q-84 28 -164 36q0 58 15 93q40 0 118 -2t117 -2q116 0 242 4q12 -32 12 -93q-66 -27 -153 -36q-6 -73 -6 -154v-133h20q167 0 186 31q24 40 50.5 101t46.5 110t45 95.5t58.5 72.5t74.5 26q87 0 180 -74q4 -72 -37 -116 q-86 12 -160 6l-147 -299q115 -225 188 -312q42 -48 76 -68t84 -20q29 0 64 7q30 -37 20 -80q-28 -16 -105.5 -32.5t-136.5 -16.5q-61 0 -125.5 66.5t-114.5 164t-91 219.5l-176 -4v-139q0 -86 6 -160q90 -10 153 -37q0 -65 -12 -92q-110 4 -229 4q-39 0 -123.5 -2 t-124.5 -2q-15 47 -15 92z" />
<glyph unicode="&#x43b;" horiz-adv-x="1116" d="M10 147q5 28 25 55.5t49 41.5q73 -46 143 -72q113 222 156 659q-98 32 -162 41q0 58 15 93q40 0 118 -2t117 -2h317q116 0 242 4q12 -32 12 -93q-66 -27 -153 -36q-6 -74 -6 -154v-395q0 -86 6 -160q90 -10 153 -37q0 -65 -12 -92q-110 4 -229 4q-42 0 -132.5 -2 t-133.5 -2q-17 44 -17 92q93 9 184 37q9 53 9 113v596h-187q-20 -229 -72.5 -432.5t-115 -318t-115.5 -114.5q-58 0 -116.5 53t-94.5 123z" />
<glyph unicode="&#x43c;" horiz-adv-x="1509" d="M45 90q73 8 164 37l80 709q-75 26 -164 36q0 57 14 93q37 0 110 -2t109 -2q88 0 154 -5l205 -628l20 -144h2l238 772q71 5 170 5q101 0 227 4q12 -35 12 -93q-75 -28 -153 -36l78 -709q76 -7 153 -37q0 -60 -12 -92q-51 4 -223 4q-43 0 -122.5 -2t-117.5 -2 q-14 36 -14 92l164 37l-66 578v141h-4l-256 -832q-71 -19 -139 -22l-225 713l-29 141h-2l-80 -721l143 -35q0 -57 -12 -92q-53 4 -205 4q-30 0 -99 -2t-106 -2q-14 43 -14 92z" />
<glyph unicode="&#x43d;" horiz-adv-x="1280" d="M63 90q81 9 164 37q9 53 9 113v483q0 57 -9 113q-84 28 -164 36q0 58 15 93q40 0 118 -2t117 -2q116 0 242 4q12 -32 12 -93q-66 -27 -153 -36q-6 -73 -6 -154v-127h466v168q0 64 -8 113q-84 28 -164 36q0 58 15 93q40 0 118 -2t117 -2q116 0 242 4q12 -32 12 -93 q-66 -27 -153 -36q-6 -74 -6 -154v-395q0 -86 6 -160q90 -10 153 -37q0 -65 -12 -92q-110 4 -229 4q-39 0 -123.5 -2t-124.5 -2q-15 47 -15 92q81 9 164 37q8 47 8 113v200q-159 6 -313 6h-153v-159q0 -86 6 -160q90 -10 153 -37q0 -65 -12 -92q-110 4 -229 4 q-39 0 -123.5 -2t-124.5 -2q-15 47 -15 92z" />
<glyph unicode="&#x43e;" horiz-adv-x="1050" d="M82 465q0 94 31.5 187t88 169t144.5 123t191 47q144 0 243 -65.5t144 -174.5t45 -253q0 -94 -31.5 -187t-88 -169t-144.5 -123.5t-191 -47.5q-211 0 -321.5 135t-110.5 359zM256 522q0 -70 16 -138.5t48.5 -132t92.5 -103t138 -39.5q37 0 80.5 10.5t60.5 27.5 q45 48 74 126.5t29 166.5q0 55 -9.5 110t-31.5 110.5t-55 98t-84.5 69t-114.5 26.5q-36 0 -80.5 -11t-61.5 -28q-45 -48 -73.5 -126t-28.5 -167z" />
<glyph unicode="&#x43f;" horiz-adv-x="1234" d="M63 90q81 9 164 37q9 53 9 113v483q0 57 -9 113q-84 28 -164 36q0 58 15 93q40 0 118 -2t117 -2h594q116 0 242 4q12 -32 12 -93q-66 -27 -153 -36q-7 -86 -7 -154v-395q0 -74 7 -160q90 -10 153 -37q0 -65 -12 -92q-110 4 -229 4q-38 0 -119.5 -2t-120.5 -2 q-14 43 -14 92q74 8 155 37q8 47 8 113v608h-421v-561q0 -86 6 -160q85 -10 145 -37q0 -65 -12 -92q-106 4 -221 4q-39 0 -123.5 -2t-124.5 -2q-15 47 -15 92z" />
<glyph unicode="&#x440;" horiz-adv-x="1146" d="M37 -422q89 9 164 35q8 60 8 115v1071q-72 22 -162 32q-14 46 -8 80q148 60 291 74l16 -14q9 -36 23 -109q59 56 143 92.5t182 36.5q166 0 268.5 -133t102.5 -354q0 -126 -54.5 -246.5t-155 -200.5t-218.5 -80t-256 95v-303q0 -81 6 -154q131 -7 242 -37q0 -61 -13 -90 q-226 4 -317 4q-42 0 -124 -2t-124 -2q-14 28 -14 90zM381 242q54 -56 127 -91.5t151 -35.5q38 0 78 13t51 26q47 55 75 131.5t28 160.5q0 106 -27.5 196t-87 149t-139.5 59q-53 0 -124.5 -25t-131.5 -63v-520z" />
<glyph unicode="&#x441;" horiz-adv-x="929" d="M82 465q0 74 20 148.5t59.5 141t92.5 118t125.5 82t152.5 30.5q195 0 326 -59q0 -148 -43 -267q-69 -21 -121 9q-3 99 -16 170q-58 10 -154 10q-43 0 -94.5 -11t-71.5 -28q-45 -46 -73.5 -123t-28.5 -164q0 -54 8 -107.5t28.5 -107.5t51 -95t80 -67t111.5 -26 q126 0 305 69q31 -27 34 -77q-75 -55 -181.5 -97.5t-192.5 -42.5q-108 0 -189.5 38t-130.5 106t-73.5 156t-24.5 194z" />
<glyph unicode="&#x442;" horiz-adv-x="1003" d="M33 948l16 17q109 -4 369 -4h168q259 0 368 4l17 -17q3 -165 -19 -309q-57 -12 -110 0q-5 82 -33 209h-221v-561q0 -86 6 -160q109 -10 186 -37q0 -67 -14 -92q-122 4 -260 4q-44 0 -139 -2t-140 -2q-16 41 -16 92q99 9 197 37q8 47 8 113v608h-221q-28 -127 -33 -209 q-54 -12 -111 0q-21 138 -18 309z" />
<glyph unicode="&#x443;" horiz-adv-x="1095" d="M35 872q0 53 14 93q24 0 91 -2t108 -2q83 0 235 4q17 -42 11 -93l-158 -36l205 -564l8 -149h2l256 717l-158 32q0 50 15 93q28 0 106 -2t125 -2q48 0 158 4q16 -46 10 -93q-51 -26 -117 -36l-303 -820q-46 -124 -89.5 -217t-92.5 -168.5t-103 -115t-110 -39.5 q-61 0 -115 16t-84 37q0 52 33 90h27q71 0 128.5 22t102 66t77.5 96.5t66 126.5l31 70h-61l-306 836q-44 24 -112 36z" />
<glyph unicode="&#x444;" horiz-adv-x="1318" d="M82 463q0 86 28 169t85 158.5t156.5 126t228.5 58.5v409q-110 25 -189 33q-13 45 -8 80q157 55 350 72l17 -17q-11 -368 -11 -575q188 -7 279 -51q112 -54 165.5 -167.5t53.5 -258.5q0 -68 -17 -135.5t-55.5 -133.5t-95 -117.5t-142 -85.5t-188.5 -40v-219q0 -81 6 -154 q133 -7 244 -37q0 -63 -12 -90q-226 4 -313 4q-48 0 -149.5 -2t-152.5 -2q-14 28 -14 90q120 10 223 35q9 67 9 115v258q-190 6 -279 51q-112 54 -165.5 167.5t-53.5 258.5zM248 520q0 -82 19 -152t58 -127.5t104 -91.5t151 -38v741h-15q-58 0 -112 -12t-74 -29 q-56 -46 -93.5 -124t-37.5 -167zM739 111h15q58 0 112 12t74 29q56 46 93.5 123.5t37.5 166.5q0 81 -19.5 151t-58.5 127.5t-104 92.5t-150 39v-741z" />
<glyph unicode="&#x445;" horiz-adv-x="1130" d="M27 90q88 10 161 35l273 364l-262 347q-43 20 -150 36q0 53 14 93q25 0 109 -2t123 -2q143 0 221 4q16 -40 10 -93l-127 -24l189 -248l180 240l-131 32q0 53 14 93q28 0 104 -2t117 -2q99 0 152 4q16 -46 10 -93q-58 -27 -127 -36l-248 -332l291 -381q94 -11 150 -33 q6 -47 -10 -92q-148 4 -213 4q-58 0 -146 -2t-117 -2q-14 40 -14 92l143 29l-208 274l-205 -270l145 -33q0 -65 -12 -92q-110 4 -209 4q-37 0 -110 -2t-103 -2q-14 32 -14 92z" />
<glyph unicode="&#x446;" horiz-adv-x="1226" d="M63 90q81 9 164 37q9 53 9 113v483q0 57 -9 113q-84 28 -164 36q0 58 15 93q40 0 118 -2t117 -2q110 0 228 4q12 -32 12 -93q-64 -27 -139 -36q-6 -73 -6 -154v-563h356h53v604q0 64 -8 113q-79 28 -150 36q0 58 15 93q37 0 110.5 -2t110.5 -2q116 0 242 4q12 -32 12 -93 q-66 -26 -154 -36q-6 -74 -6 -154v-563q83 0 185 4l16 -17q3 -216 -19 -403q-57 -12 -110 0q-5 119 -33 299h-702q-39 0 -123.5 -2t-124.5 -2q-15 47 -15 92z" />
<glyph unicode="&#x447;" horiz-adv-x="1148" d="M10 872q0 54 15 93q39 0 120 -2t127 -2q101 0 203 4q12 -35 12 -93q-56 -27 -133 -36v-154q0 -88 48.5 -133t134.5 -45q93 0 206 53v166q0 64 -8 113q-73 28 -141 36q0 61 14 93q36 0 106.5 -2t106.5 -2q116 0 242 4q12 -32 12 -93q-66 -27 -153 -36q-7 -86 -7 -154v-395 q0 -74 7 -160q90 -10 153 -37q0 -65 -12 -92q-110 4 -229 4q-44 0 -139 -2t-140 -2q-16 41 -16 92q95 9 194 37q10 44 10 113v206q-125 -69 -274 -69q-137 0 -212 71.5t-75 217.5v168q-92 29 -172 38z" />
<glyph unicode="&#x448;" horiz-adv-x="1763" d="M63 90q81 9 164 37q9 53 9 113v483q0 57 -9 113q-84 28 -164 36q0 58 15 93q40 0 118 -2t117 -2q107 0 217 4q13 -35 13 -93q-54 -26 -129 -36q-6 -73 -6 -154v-563h389v604q0 57 -9 113q-73 28 -139 36q0 58 15 93q35 0 105 -2t105 -2q108 0 218 4q12 -32 12 -93 q-54 -26 -129 -36q-6 -74 -6 -154v-563h389v604q0 64 -8 113q-71 27 -142 36q0 58 15 93q36 0 107 -2t106 -2q115 0 241 4q13 -35 13 -93q-66 -26 -154 -36q-6 -74 -6 -154v-395q0 -86 6 -160q92 -10 154 -37q0 -63 -13 -92q-110 4 -229 4h-1122q-39 0 -123.5 -2t-124.5 -2 q-15 47 -15 92z" />
<glyph unicode="&#x449;" horiz-adv-x="1767" d="M63 90q81 9 164 37q9 53 9 113v483q0 57 -9 113q-84 28 -164 36q0 58 15 93q40 0 118 -2t117 -2q107 0 217 4q13 -35 13 -93q-54 -26 -129 -36q-6 -73 -6 -154v-563h389v604q0 57 -9 113q-73 28 -139 36q0 58 15 93q35 0 105 -2t105 -2q108 0 218 4q12 -32 12 -93 q-54 -26 -129 -36q-6 -74 -6 -154v-563h336h53v604q0 64 -8 113q-72 28 -140 36q0 58 15 93q35 0 105.5 -2t105.5 -2q115 0 241 4q13 -35 13 -93q-66 -26 -154 -36q-6 -74 -6 -154v-563q82 0 184 4l17 -17q3 -216 -19 -403q-61 -12 -115 0q-5 110 -34 299h-1237 q-39 0 -123.5 -2t-124.5 -2q-15 47 -15 92z" />
<glyph unicode="&#x44a;" horiz-adv-x="1177" d="M33 948l16 17q113 -4 426 -4q131 0 275 4q12 -32 12 -93q-78 -26 -187 -36q-6 -73 -6 -154v-94q110 20 199 20q165 0 269 -79.5t104 -192.5q0 -67 -27.5 -128t-78 -109t-130.5 -76.5t-178 -28.5q-38 0 -118.5 4t-131.5 4q-39 0 -118 -2t-119 -2q-15 46 -15 92 q81 9 164 37q8 47 8 113v608h-202q-27 -113 -33 -209q-65 -13 -111 0q-23 154 -18 309zM569 115h133q75 0 128.5 8.5t62.5 17.5q61 57 61 160q0 77 -69 126.5t-174 49.5q-48 0 -142 -8v-354z" />
<glyph unicode="&#x44b;" horiz-adv-x="1560" d="M63 90q81 9 164 37q9 53 9 113v483q0 57 -9 113q-84 28 -164 36q0 58 15 93q40 0 118 -2t117 -2q129 0 273 4q14 -31 14 -93q-82 -27 -186 -36q-6 -73 -6 -154v-92q99 18 172 18q153 0 253.5 -80t100.5 -192q0 -65 -27 -126t-75.5 -109.5t-124 -77.5t-166.5 -29 q-34 0 -107 4t-119 4q-39 0 -118 -2t-119 -2q-15 47 -15 92zM408 115h116q54 0 108 9t60 17q56 63 56 160q0 77 -63 126.5t-159 49.5q-66 0 -118 -8v-354zM983 90q81 9 164 37q8 47 8 113v483q0 64 -8 113q-84 28 -164 36q0 61 14 93q40 0 118.5 -2t117.5 -2q116 0 242 4 q12 -32 12 -93q-66 -26 -154 -36q-6 -74 -6 -154v-395q0 -86 6 -160q92 -10 154 -37q0 -65 -12 -92q-110 4 -230 4q-39 0 -123.5 -2t-124.5 -2q-14 43 -14 92z" />
<glyph unicode="&#x44c;" horiz-adv-x="1015" d="M63 90q81 9 164 37q9 53 9 113v483q0 57 -9 113q-84 28 -164 36q0 58 15 93q40 0 118 -2t117 -2q129 0 273 4q14 -31 14 -93q-82 -27 -186 -36q-6 -73 -6 -154v-94q110 20 198 20q165 0 269 -79.5t104 -192.5q0 -142 -110.5 -242t-303.5 -100q-38 0 -118.5 4t-131.5 4 q-39 0 -118 -2t-119 -2q-15 47 -15 92zM408 115h133q75 0 128 8.5t62 17.5q62 58 62 160q0 77 -69.5 126.5t-174.5 49.5q-47 0 -141 -8v-354z" />
<glyph unicode="&#x44d;" horiz-adv-x="950" d="M76 41q-6 102 63 168l17 6q62 -40 141.5 -64t134.5 -24q45 0 95 8.5t67 24.5q46 44 73 118t27 162l-325 -18l-17 16q-12 73 23 127l309 -8q-11 59 -30.5 109.5t-51 95.5t-80 70.5t-108.5 25.5q-74 0 -156 -16q-14 -66 -14 -162q-62 -28 -119 -14q-46 90 -49 217 q173 102 375 102q108 0 189.5 -38t130.5 -105.5t73 -155.5t24 -194q0 -73 -20.5 -147t-61 -140t-95.5 -117t-130 -81t-158 -30q-205 0 -327 64z" />
<glyph unicode="&#x44e;" horiz-adv-x="1597" d="M63 90q81 9 164 37q9 53 9 113v483q0 57 -9 113q-84 28 -164 36q0 58 15 93q40 0 118 -2t117 -2q116 0 242 4q12 -32 12 -93q-66 -27 -153 -36q-6 -73 -6 -154v-123h264q13 84 48.5 160.5t88.5 137.5t129 97.5t164 36.5q138 0 233 -65.5t138 -174.5t43 -253 q0 -94 -30.5 -187t-84.5 -169t-138.5 -123.5t-183.5 -47.5q-197 0 -302.5 129t-110.5 344h-258v-157q0 -86 6 -160q90 -10 153 -37q0 -65 -12 -92q-110 4 -229 4q-39 0 -123.5 -2t-124.5 -2q-15 47 -15 92zM840 522q0 -70 14.5 -138.5t45 -132.5t86 -103t128.5 -39 q35 0 75 10.5t56 27.5q43 47 69.5 125.5t26.5 167.5q0 70 -14.5 139t-45 132.5t-86 103t-128.5 39.5q-34 0 -74.5 -11t-56.5 -28q-43 -47 -69.5 -125.5t-26.5 -167.5z" />
<glyph unicode="&#x44f;" horiz-adv-x="1083" d="M23 37q-2 22 7 49t25 41h39q167 0 279 240l20 43q-111 24 -176 92t-65 168q0 45 24.5 96.5t65.5 95.5t102 73.5t127 29.5q39 0 135 -2t150 -2q115 0 241 4q13 -35 13 -93q-66 -26 -154 -36q-6 -74 -6 -154v-395q0 -86 6 -160q92 -10 154 -37q0 -63 -13 -92q-110 4 -229 4 q-39 0 -123.5 -2t-124.5 -2q-14 43 -14 92q81 9 164 37q8 47 8 113v168q-67 -11 -158 -11q-32 -90 -63 -158.5t-69 -129t-82 -93t-91 -32.5q-58 0 -110 16t-82 37zM332 696q0 -83 65 -131.5t148 -48.5q92 0 133 4v318q-114 4 -172 4q-34 0 -72.5 -5t-48.5 -12 q-53 -46 -53 -129z" />
<glyph unicode="&#x450;" horiz-adv-x="983" d="M82 467q0 128 55 247.5t158.5 198t228.5 78.5q82 0 146.5 -21.5t104.5 -56t66.5 -83t37 -99t10.5 -106.5q0 -82 -10 -127l-17 -17q-168 4 -370 4h-238q3 -53 13 -102t31.5 -98t51.5 -85t77 -58.5t105 -22.5q134 0 326 74q32 -23 35 -74q-86 -57 -195.5 -102.5 t-199.5 -45.5q-107 0 -188 38t-130 106t-73.5 156.5t-24.5 195.5zM227 1425l11 39q75 40 170 43l239 -377q-24 -44 -82 -53zM258 592h201q148 0 250 8q0 55 -8 96.5t-29.5 80.5t-66 60t-109.5 21q-36 0 -79.5 -11t-60.5 -28q-77 -84 -98 -227z" />
<glyph unicode="&#x451;" horiz-adv-x="983" d="M82 467q0 128 55 247.5t158.5 198t228.5 78.5q82 0 146.5 -21.5t104.5 -56t66.5 -83t37 -99t10.5 -106.5q0 -82 -10 -127l-17 -17q-168 4 -370 4h-238q3 -53 13 -102t31.5 -98t51.5 -85t77 -58.5t105 -22.5q134 0 326 74q32 -23 35 -74q-86 -57 -195.5 -102.5 t-199.5 -45.5q-107 0 -188 38t-130 106t-73.5 156.5t-24.5 195.5zM217 1227q0 51 35 94t86 43q38 0 70 -28t32 -68q0 -51 -35.5 -91.5t-85.5 -41.5q-39 0 -70.5 27.5t-31.5 64.5zM258 592h201q148 0 250 8q0 55 -8 96.5t-29.5 80.5t-66 60t-109.5 21q-36 0 -79.5 -11 t-60.5 -28q-77 -84 -98 -227zM588 1227q0 50 36 93.5t85 43.5q41 0 71.5 -28t30.5 -68q0 -51 -34.5 -91.5t-86.5 -41.5q-37 0 -69.5 27.5t-32.5 64.5z" />
<glyph unicode="&#x452;" horiz-adv-x="1130" d="M41 90q89 9 164 35q8 60 8 115v854h-160q-13 62 0 114h160v176q-97 26 -162 33q-13 45 -8 80q147 55 334 72l16 -17q-4 -133 -8 -344h301q12 -57 0 -114h-301v-131v-144q153 131 291 131q72 0 134 -27.5t112.5 -83.5t80 -153t29.5 -225q0 -191 -34.5 -345t-103.5 -271 t-154.5 -204t-204.5 -167q-38 20 -46 65q182 166 275.5 371.5t93.5 484.5q0 194 -67 304t-177 110t-229 -90v-438q0 -80 6 -154q92 -10 154 -37q0 -63 -13 -92q-110 4 -229 4q-43 0 -126.5 -2t-121.5 -2q-14 28 -14 92z" />
<glyph unicode="&#x453;" horiz-adv-x="901" d="M63 90q81 9 164 37q9 53 9 113v483q0 57 -9 113q-84 28 -164 36q0 58 15 93q42 0 116.5 -2t102.5 -2h168q287 0 389 4l14 -17q6 -159 -16 -289q-55 -13 -107 0q-3 99 -26 189h-311v-561q0 -86 6 -160q109 -10 186 -37q0 -67 -14 -92q-122 4 -260 4q-39 0 -123.5 -2 t-124.5 -2q-15 47 -15 92zM358 1126l226 342q94 25 202 25l17 -47l-367 -377q-52 12 -78 57z" />
<glyph unicode="&#x454;" horiz-adv-x="929" d="M82 465q0 74 20 148.5t59.5 141t92.5 118t125.5 82t152.5 30.5q195 0 326 -59q0 -148 -43 -267q-69 -21 -121 9q-3 99 -16 170q-58 10 -154 10q-43 0 -94.5 -11t-71.5 -28q-44 -45 -72.5 -117.5t-29.5 -156.5l346 22l16 -16q13 -74 -22 -127l-334 6q9 -59 28.5 -109.5 t51 -95.5t81.5 -70.5t112 -25.5q126 0 305 69q31 -27 34 -77q-75 -55 -181.5 -97.5t-192.5 -42.5q-108 0 -189.5 38t-130.5 106t-73.5 156t-24.5 194z" />
<glyph unicode="&#x455;" horiz-adv-x="868" d="M88 33q0 151 37 299q48 20 96 0q2 -78 21 -205q60 -29 186 -29q101 0 140.5 31.5t39.5 120.5q0 49 -27.5 82t-78.5 61q-35 18 -97.5 42t-106.5 43.5t-90 49.5t-70.5 76.5t-24.5 108.5q0 73 31.5 128t85 85.5t113.5 44.5t126 14q168 0 293 -39q0 -126 -37 -252 q-55 -15 -104 4q-5 65 -27 158q-69 21 -131 21q-60 0 -97 -8t-54 -26t-22 -37t-5 -50q0 -42 27.5 -74t71.5 -53.5t97 -41.5t106.5 -44.5t97.5 -56t71.5 -83t27.5 -118.5q0 -143 -107 -225.5t-271 -82.5q-195 0 -318 56z" />
<glyph unicode="&#x456;" horiz-adv-x="624" d="M63 90q80 8 164 37q9 59 9 113v565q-97 26 -162 33q-13 45 -8 80q143 54 333 71l17 -16q-8 -273 -8 -590v-102q0 -80 6 -154q90 -10 153 -37q0 -65 -12 -92q-110 4 -229 4q-43 0 -126.5 -2t-121.5 -2q-15 30 -15 92zM174 1260q0 58 42.5 108.5t98.5 50.5q47 0 85 -33 t38 -79q0 -58 -41.5 -108t-99.5 -50q-43 0 -83 33.5t-40 77.5z" />
<glyph unicode="&#x457;" horiz-adv-x="624" d="M35 1227q0 51 35 94t86 43q38 0 70 -28t32 -68q0 -51 -35.5 -91.5t-85.5 -41.5q-39 0 -70.5 27.5t-31.5 64.5zM63 90q80 8 164 37q9 59 9 113v565q-97 26 -162 33q-13 45 -8 80q143 54 333 71l17 -16q-8 -273 -8 -590v-102q0 -80 6 -154q90 -10 153 -37q0 -65 -12 -92 q-110 4 -229 4q-43 0 -126.5 -2t-121.5 -2q-15 30 -15 92zM352 1227q0 50 36 93.5t85 43.5q41 0 71.5 -28t30.5 -68q0 -52 -34 -92t-86 -41q-37 0 -70 27.5t-33 64.5z" />
<glyph unicode="&#x458;" horiz-adv-x="559" d="M-4 -461q104 80 159.5 203.5t55.5 312.5v750q-97 26 -162 33q-13 45 -8 80q143 54 334 71l16 -16q-8 -273 -8 -590v-356q0 -103 -17.5 -186.5t-47.5 -143t-74 -105t-94 -73t-111 -45.5q-43 21 -43 65zM150 1260q0 58 42.5 108.5t98.5 50.5q47 0 85 -33t38 -79 q0 -58 -42 -108t-100 -50q-43 0 -82.5 33.5t-39.5 77.5z" />
<glyph unicode="&#x459;" horiz-adv-x="1435" d="M10 147q5 28 25 55.5t49 41.5q73 -46 143 -72q113 222 156 659q-98 32 -162 41q0 58 15 93q40 0 118 -2t117 -2h307q129 0 273 4q14 -31 14 -93q-82 -27 -186 -36q-7 -86 -7 -154v-92q99 18 172 18q153 0 254 -80t101 -192q0 -65 -27 -126t-75.5 -109.5t-124 -77.5 t-166.5 -29q-34 0 -107 4t-119 4q-39 0 -118 -2t-119 -2q-15 47 -15 92q81 9 164 37q8 47 8 113v596h-176q-20 -229 -72.5 -432.5t-115 -318t-115.5 -114.5q-58 0 -116.5 53t-94.5 123zM872 115h117q61 0 111 9t57 17q55 62 55 160q0 77 -62.5 126.5t-158.5 49.5 q-67 0 -119 -8v-354z" />
<glyph unicode="&#x45a;" horiz-adv-x="1599" d="M63 90q81 9 164 37q9 53 9 113v483q0 57 -9 113q-84 28 -164 36q0 58 15 93q40 0 118 -2t117 -2q116 0 242 4q12 -32 12 -93q-66 -27 -153 -36q-6 -73 -6 -154v-127h456v168q0 64 -8 113q-84 28 -164 36q0 58 15 93q40 0 118 -2t117 -2q128 0 272 4q15 -34 15 -93 q-82 -27 -187 -36q-6 -74 -6 -154v-92q99 18 172 18q153 0 254 -80t101 -192q0 -65 -27 -126t-76 -109.5t-124.5 -77.5t-166.5 -29q-34 0 -106.5 4t-118.5 4q-39 0 -118 -2t-119 -2q-15 47 -15 92q81 9 164 37q8 47 8 113v200q-159 6 -313 6h-143v-159q0 -86 6 -160 q90 -10 153 -37q0 -65 -12 -92q-110 4 -229 4q-39 0 -123.5 -2t-124.5 -2q-15 47 -15 92zM1036 115h117q61 0 111 9t57 17q55 62 55 160q0 77 -62.5 126.5t-158.5 49.5q-67 0 -119 -8v-354z" />
<glyph unicode="&#x45b;" horiz-adv-x="1193" d="M41 90q89 9 164 35q8 60 8 115v854h-160q-13 62 0 114h160v176q-97 26 -162 33q-13 45 -8 80q147 55 334 72l16 -17q-4 -133 -8 -344h301q12 -57 0 -114h-301v-131v-119q63 43 152.5 74.5t181.5 31.5q282 0 282 -309v-360q0 -68 7 -154q88 -10 155 -37q0 -67 -14 -92 q-110 4 -229 4q-43 0 -126.5 -2t-121.5 -2q-15 30 -15 92q86 9 166 35q6 67 6 115v319q0 61 -6.5 101.5t-25.5 77t-57 54t-97 17.5q-133 0 -258 -59v-469q0 -80 6 -154q92 -10 154 -37q0 -63 -13 -92q-110 4 -229 4q-43 0 -126.5 -2t-121.5 -2q-14 28 -14 92z" />
<glyph unicode="&#x45c;" horiz-adv-x="1159" d="M63 90q81 9 164 37q9 53 9 113v483q0 57 -9 113q-84 28 -164 36q0 58 15 93q40 0 118 -2t117 -2q116 0 242 4q12 -32 12 -93q-66 -27 -153 -36q-6 -73 -6 -154v-133h20q167 0 186 31q24 40 50.5 101t46.5 110t45 95.5t58.5 72.5t74.5 26q87 0 180 -74q4 -72 -37 -116 q-86 12 -160 6l-147 -299q115 -225 188 -312q42 -48 76 -68t84 -20q29 0 64 7q30 -37 20 -80q-28 -16 -105.5 -32.5t-136.5 -16.5q-61 0 -125.5 66.5t-114.5 164t-91 219.5l-176 -4v-139q0 -86 6 -160q90 -10 153 -37q0 -65 -12 -92q-110 4 -229 4q-39 0 -123.5 -2 t-124.5 -2q-15 47 -15 92zM475 1126l225 342q94 25 203 25l17 -47l-367 -377q-52 12 -78 57z" />
<glyph unicode="&#x45d;" horiz-adv-x="1292" d="M63 90q81 9 164 37q9 53 9 113v483q0 57 -9 113q-84 28 -164 36q0 58 15 93q40 0 118 -2t117 -2q116 0 242 4q12 -32 12 -93q-66 -27 -153 -36q-6 -73 -6 -154v-328l-23 -170h2l471 774q50 3 107 3q115 0 241 4q13 -35 13 -93q-66 -26 -154 -36q-6 -74 -6 -154v-395 q0 -86 6 -160q92 -10 154 -37q0 -63 -13 -92q-110 4 -229 4q-39 0 -123.5 -2t-124.5 -2q-14 43 -14 92q81 9 164 37q8 47 8 113v415l26 170h-2l-497 -821q-27 -2 -88 -2q-39 0 -123.5 -2t-124.5 -2q-15 47 -15 92zM371 1425l10 39q75 40 170 43l240 -377q-24 -44 -82 -53z " />
<glyph unicode="&#x45e;" horiz-adv-x="1095" d="M35 872q0 53 14 93q24 0 91 -2t108 -2q83 0 235 4q17 -42 11 -93l-158 -36l205 -564l8 -149h2l256 717l-158 32q0 50 15 93q28 0 106 -2t125 -2q48 0 158 4q16 -46 10 -93q-51 -26 -117 -36l-303 -820q-46 -124 -89.5 -217t-92.5 -168.5t-103 -115t-110 -39.5 q-61 0 -115 16t-84 37q0 52 33 90h27q71 0 128.5 22t102 66t77.5 96.5t66 126.5l31 70h-61l-306 836q-44 24 -112 36zM254 1372q23 32 81 42.5t91 -1.5v-24q0 -69 35.5 -116.5t99.5 -47.5q34 0 63.5 11.5t41.5 25.5q11 14 19.5 54t8.5 79v18q35 11 91.5 1.5t84.5 -44.5 q0 -100 -91 -177t-228 -77q-126 0 -211.5 73t-85.5 183z" />
<glyph unicode="&#x45f;" horiz-adv-x="1222" d="M63 90q81 9 164 37q9 53 9 113v483q0 57 -9 113q-84 28 -164 36q0 58 15 93q40 0 118 -2t117 -2q110 0 228 4q12 -32 12 -93q-64 -27 -139 -36q-6 -73 -6 -154v-563h409v604q0 64 -8 113q-79 28 -150 36q0 58 15 93q37 0 110.5 -2t110.5 -2q116 0 242 4q12 -32 12 -93 q-66 -26 -154 -36q-6 -74 -6 -154v-395q0 -86 6 -160q92 -10 154 -37q0 -65 -12 -92q-110 4 -230 4h-198q-26 -165 -35 -321q-61 -13 -123 0q-9 156 -35 321h-190q-39 0 -123.5 -2t-124.5 -2q-15 47 -15 92z" />
<glyph unicode="&#x462;" horiz-adv-x="1476" d="M33 1257l16 17q127 -4 481 -4v131q-98 30 -188 39q0 54 16 98q44 0 129.5 -2t130.5 -2q195 0 256 4q14 -53 11 -98q-82 -30 -174 -39v-131h67q355 0 482 4l16 -17q6 -156 -19 -327q-56 -16 -108 -2q-6 109 -33 211h-405v-389q120 24 245 24q190 0 316.5 -103.5 t126.5 -232.5q0 -82 -30.5 -159.5t-88.5 -142t-153 -103.5t-212 -39q-45 0 -141.5 4t-155.5 4q-52 0 -150 -2t-149 -2q-18 42 -18 98q88 7 219 39q10 66 10 211v793h-337q-27 -122 -33 -250q-59 -19 -109 0q-24 178 -18 368zM711 129h188q58 0 111 8t80.5 17t33.5 16 q88 84 88 215q0 103 -88.5 173.5t-216.5 70.5q-89 0 -196 -13v-487z" />
<glyph unicode="&#x463;" horiz-adv-x="1198" d="M33 948l16 17q92 -4 348 -4v288q-98 26 -161 33q-14 47 -9 80q147 55 334 72l17 -17q-9 -243 -9 -456h33q287 0 389 4l15 -17q6 -128 -17 -237q-55 -13 -106 0q-3 67 -27 137h-287v-21v-237q103 18 181 18q157 0 258.5 -79.5t101.5 -192.5q0 -65 -27 -125.5t-76 -109 t-126 -78t-170 -29.5q-36 0 -111.5 4t-122.5 4q-39 0 -118 -2t-119 -2q-15 46 -15 92q81 9 164 37q8 47 8 113v608h-202q-27 -113 -33 -209q-65 -13 -111 0q-23 154 -18 309zM569 115h121q69 0 119 8.5t57 17.5q58 65 58 160q0 77 -65.5 126.5t-164.5 49.5q-43 0 -125 -8 v-354z" />
<glyph unicode="&#x472;" horiz-adv-x="1413" d="M92 662q0 107 28 213.5t83 202.5t130 170t176.5 117.5t215.5 43.5q141 0 255 -53.5t188 -148t113.5 -221.5t39.5 -275q0 -107 -28 -214.5t-83 -203t-130 -169.5t-176.5 -117.5t-215.5 -43.5q-142 0 -256.5 54t-188 149t-112.5 221.5t-39 274.5zM279 764q113 70 231 70 q78 0 160 -22t169.5 -44.5t176.5 -22.5q38 0 110 7q-12 109 -44.5 199.5t-87 161t-138 110t-188.5 39.5q-51 0 -123.5 -21t-100.5 -49q-65 -64 -113.5 -174.5t-51.5 -253.5zM281 662q7 -93 27.5 -173.5t58.5 -150.5t90 -120t125.5 -78.5t162.5 -28.5q52 0 124 20.5t100 48.5 q68 66 117 180.5t49 262.5v26q-108 -67 -230 -67q-78 0 -160 22t-169.5 44t-176.5 22q-61 0 -118 -8z" />
<glyph unicode="&#x473;" horiz-adv-x="1050" d="M82 465q0 94 31.5 187t88 169t144.5 123t191 47q144 0 243 -65.5t144 -174.5t45 -253q0 -94 -31.5 -187t-88 -169t-144.5 -123.5t-191 -47.5q-211 0 -321.5 135t-110.5 359zM256 479q5 -67 23.5 -129t52 -118t90 -89.5t129.5 -33.5q37 0 80.5 10.5t60.5 27.5 q45 48 74 126.5t29 166.5v2q-73 -45 -179 -45q-42 0 -88 21t-103 42t-126 21q-29 0 -43 -2zM256 561q89 47 195 47q35 0 70 -14t61.5 -30t72.5 -30t99 -14h34q-8 64 -28 120.5t-53.5 106t-86.5 78.5t-120 29q-36 0 -80.5 -11t-61.5 -28q-40 -43 -68 -110.5t-34 -143.5z" />
<glyph unicode="&#x474;" horiz-adv-x="1398" d="M10 1276q0 51 17 98q44 0 129.5 -2t130.5 -2q205 0 293 4q17 -44 14 -98l-221 -39l315 -899l19 -174h2l340 1055q40 121 104 180q136 -18 231 -99q7 -32 -3 -71t-33 -68l-166 19l-387 -1162q-74 -28 -181 -28l-440 1247q-97 32 -164 39z" />
<glyph unicode="&#x475;" horiz-adv-x="1136" d="M35 872q0 53 14 93q24 0 91 -2t108 -2q94 0 262 4q16 -40 10 -93l-184 -36l205 -564l8 -149h2l229 680q61 182 164 182q87 0 180 -74q4 -72 -37 -116q-86 12 -167 6l-273 -783q-89 -28 -190 -28l-310 846q-44 24 -112 36z" />
<glyph unicode="&#x490;" horiz-adv-x="1067" d="M66 96q75 8 178 39q10 66 10 211v608q0 156 -10 283q-103 31 -178 39q0 54 16 98q37 0 135.5 -2t175.5 -2h502q46 142 74 275q48 10 108 -9q0 -208 -22 -385l-17 -16q-127 4 -481 4h-123v-934q0 -99 8 -170q102 -8 207 -39q3 -54 -14 -98q-68 4 -285 4q-46 0 -134 -2 t-134 -2q-16 44 -16 98z" />
<glyph unicode="&#x491;" horiz-adv-x="901" d="M63 90q81 9 164 37q9 53 9 113v483q0 57 -9 113q-84 28 -164 36q0 58 15 93q42 0 116.5 -2t102.5 -2h403q42 100 64 217q47 9 106 -9q0 -190 -16 -309l-16 -16q-102 4 -389 4h-41v-561q0 -86 6 -160q109 -10 186 -37q0 -67 -14 -92q-122 4 -260 4q-39 0 -123.5 -2 t-124.5 -2q-15 47 -15 92z" />
<glyph unicode="&#x492;" horiz-adv-x="1060" d="M70 96q75 8 178 39q10 66 10 211v285h-172q-13 72 0 135h172v188q0 156 -10 283q-103 31 -178 39q0 54 16 98q44 0 129.5 -2t130.5 -2h195q354 0 481 4l16 -16q6 -184 -18 -369q-54 -19 -109 0q-7 137 -32 250h-441v-473h301q11 -68 0 -135h-301v-326q0 -99 8 -170 q102 -8 207 -39q3 -54 -14 -98q-68 4 -285 4q-46 0 -134 -2t-134 -2q-16 44 -16 98z" />
<glyph unicode="&#x493;" horiz-adv-x="905" d="M68 90q80 9 163 37q9 53 9 113v200h-154q-13 62 0 115h154v168q0 57 -9 113q-85 28 -163 36q0 61 14 93q42 0 116.5 -2t102.5 -2h168q287 0 389 4l14 -17q6 -159 -16 -289q-55 -13 -106 0q-3 95 -27 189h-311v-293h186q12 -58 0 -115h-186v-153q0 -86 6 -160 q109 -10 186 -37q0 -67 -14 -92q-122 4 -260 4q-39 0 -123.5 -2t-124.5 -2q-14 43 -14 92z" />
<glyph unicode="&#x496;" horiz-adv-x="1855" d="M10 96q75 27 178 39l347 565l-234 480l-197 -19q-25 29 -35.5 68t-2.5 71q45 36 112 63t137 36q58 -51 121 -180l219 -449h176v184q0 156 -10 283q-95 31 -168 39q0 51 17 98q42 0 123 -2t122 -2q183 0 240 4q15 -46 12 -98q-82 -31 -155 -39q-8 -90 -8 -354v-113h178 l217 449q61 125 121 180q70 -9 137 -36t112 -63q8 -32 -2.5 -71t-35.5 -68l-197 19l-227 -482l346 -563l174 2l16 -16q6 -227 -18 -455q-69 -18 -117 0q-6 180 -35 336h-166l-397 637h-106v-334q0 -99 8 -170q73 -8 155 -39q3 -52 -12 -98q-57 4 -240 4q-41 0 -122 -2 t-123 -2q-17 47 -17 98q73 8 168 39q10 61 10 195v309h-110l-393 -639h-68q-165 0 -235 -2q-15 30 -15 98z" />
<glyph unicode="&#x497;" horiz-adv-x="1628" d="M2 29q-9 42 21 80q35 -7 63 -7q50 0 84 20t76 68q73 87 188 312l-147 299q-75 6 -160 -6q-41 44 -37 116q93 74 180 74q51 0 92 -43t64 -98t57 -136.5t62 -127.5q9 -14 60.5 -22.5t119.5 -8.5v174q0 64 -8 113q-78 28 -152 36q0 58 15 93q37 0 110 -2t109 -2q107 0 225 4 q12 -32 12 -93q-60 -27 -141 -36q-6 -74 -6 -154v-133q68 0 119.5 8.5t60.5 22.5q28 46 62 127.5t56.5 136.5t63.5 98t92 43q88 0 181 -74q4 -72 -37 -116q-85 12 -160 6l-147 -297q116 -218 192 -303q87 -98 223 -84l17 -17q3 -211 -19 -397q-60 -12 -114 0q-4 103 -37 287 h-45q-54 0 -107 37t-98.5 101t-83 139t-70.5 163l-149 -4v-139q0 -86 6 -160q81 -10 141 -37q0 -65 -12 -92q-102 4 -213 4q-37 0 -115.5 -2t-115.5 -2q-15 47 -15 92q75 9 152 37q8 47 8 113v186l-150 2q-43 -122 -93 -219t-114 -163t-124 -66q-59 0 -136.5 16.5 t-105.5 32.5z" />
<glyph unicode="&#x498;" horiz-adv-x="1105" d="M100 33q3 190 23 340q47 19 113 8q14 -143 43 -244q79 -20 210 -20q79 0 146.5 18.5t91.5 38.5q100 84 100 223q0 95 -76 167.5t-190 84.5l-203 -16l-16 18q-6 82 29 162l194 -8q94 25 150.5 96t56.5 146q0 87 -79 147.5t-210 60.5q-109 0 -200 -18q-23 -97 -29 -209 q-50 -19 -107 -8q-31 143 -34 280q199 103 448 103q166 0 281.5 -91.5t115.5 -215.5q0 -104 -58 -190t-171 -142q141 -36 215 -124t74 -208q0 -110 -66.5 -209.5t-173.5 -164t-229 -83.5q-10 -20 -10 -49q0 -16 41 -28q159 -48 159 -164q0 -87 -101 -160t-245 -98 q-22 19 -22 59q74 30 137 73.5t63 88.5q0 56 -108 86q-36 9 -48 19t-12 34q0 62 48 133q-180 3 -351 64z" />
<glyph unicode="&#x499;" horiz-adv-x="913" d="M68 41q-3 105 63 168l16 6q65 -38 141.5 -63t143.5 -25q52 0 101.5 10t62.5 21q45 42 45 123q0 107 -102 157l-197 -16l-16 16q-13 74 22 127l195 -6q75 49 75 154q0 61 -50.5 103t-135.5 42q-103 0 -182 -16q-14 -60 -14 -162q-66 -30 -119 -14q-49 100 -49 217 q175 102 387 102q164 0 250 -62.5t86 -183.5q0 -130 -113 -213q69 -39 105 -95t36 -122q0 -135 -105 -226.5t-265 -102.5q-11 -25 -11 -54q0 -16 41 -28q160 -48 160 -164q0 -87 -101 -160t-245 -98q-23 20 -23 59q32 13 62.5 28.5t64 37t54 47t20.5 49.5q0 56 -109 86 q-36 9 -47.5 19t-11.5 34q0 69 53 144q-178 6 -288 61z" />
<glyph unicode="&#x49a;" horiz-adv-x="1343" d="M66 96q75 8 178 39q10 61 10 195v624q0 156 -10 283q-103 31 -178 39q0 54 16 98q44 0 129.5 -2t130.5 -2q195 0 254 4q15 -46 12 -98q-84 -31 -166 -39q-8 -90 -8 -354v-113h236l217 449q61 125 121 180q70 -9 137 -36t112 -63q8 -32 -2.5 -71t-35.5 -68l-197 19 l-227 -482l346 -563l174 2l16 -16q6 -227 -18 -455q-69 -18 -117 0q-6 180 -35 336h-166l-397 637h-164v-334q0 -99 8 -170q82 -8 166 -39q3 -52 -12 -98q-59 4 -254 4q-45 0 -130.5 -2t-129.5 -2q-16 44 -16 98z" />
<glyph unicode="&#x49b;" horiz-adv-x="1173" d="M63 90q81 9 164 37q9 53 9 113v483q0 57 -9 113q-84 28 -164 36q0 58 15 93q40 0 118 -2t117 -2q116 0 242 4q12 -32 12 -93q-66 -27 -153 -36q-6 -73 -6 -154v-133h20q167 0 186 31q24 40 50.5 101t46.5 110t45 95.5t58.5 72.5t74.5 26q87 0 180 -74q4 -72 -37 -116 q-86 12 -160 6l-147 -297q114 -215 193 -303q87 -98 223 -84l16 -17q3 -218 -18 -397q-61 -12 -115 0q-4 103 -37 287h-45q-54 0 -107 37t-98 101.5t-82.5 139t-70.5 162.5l-176 -4v-139q0 -86 6 -160q90 -10 153 -37q0 -65 -12 -92q-110 4 -229 4q-39 0 -123.5 -2 t-124.5 -2q-15 47 -15 92z" />
<glyph unicode="&#x4a0;" horiz-adv-x="1540" d="M33 1358l16 16q127 -4 481 -4h23q225 0 295 4q15 -46 12 -98q-101 -31 -207 -39q-8 -101 -8 -354v-113h236l217 449q61 125 121 180q70 -9 137 -36t112 -63q8 -32 -2.5 -71t-35.5 -68l-197 19l-227 -482l346 -563q103 -12 178 -39q0 -70 -14 -98q-70 2 -236 2h-74 l-397 639h-164v-334q0 -99 8 -170q82 -8 166 -39q3 -52 -12 -98q-59 4 -254 4q-45 0 -130.5 -2t-129.5 -2q-17 47 -17 98q77 8 179 39q10 61 10 195v909h-272q-27 -122 -33 -250q-59 -19 -109 0q-24 179 -18 369z" />
<glyph unicode="&#x4a1;" horiz-adv-x="1320" d="M33 948l16 17q113 -4 426 -4q131 0 275 4q12 -32 12 -93q-78 -26 -187 -36q-6 -73 -6 -154v-133h21q167 0 186 31q24 40 50.5 101t46.5 110t45 95.5t58.5 72.5t74.5 26q87 0 180 -74q4 -72 -37 -116q-86 12 -160 6l-147 -299q115 -225 188 -312q42 -48 76 -68t84 -20 q28 0 63 7q30 -38 21 -80q-28 -16 -105.5 -32.5t-136.5 -16.5q-90 0 -178.5 130t-153.5 320l-176 -4v-139q0 -86 6 -160q92 -10 154 -37q0 -65 -12 -92q-110 4 -230 4q-39 0 -123 -2t-124 -2q-15 46 -15 92q81 9 164 37q8 47 8 113v608h-202q-27 -113 -33 -209 q-65 -13 -111 0q-23 154 -18 309z" />
<glyph unicode="&#x4a2;" horiz-adv-x="1560" d="M66 96q75 8 178 39q10 61 10 195v624q0 156 -10 283q-103 31 -178 39q0 54 16 98q44 0 129.5 -2t130.5 -2q195 0 254 4q15 -46 12 -98q-84 -31 -166 -39q-8 -90 -8 -354v-101h680v172q0 156 -10 283q-103 31 -178 39q0 54 16 98q44 0 129.5 -2t130.5 -2q195 0 254 4 q15 -46 12 -98q-85 -31 -165 -39q-9 -101 -9 -354v-750l238 4l16 -16q6 -219 -18 -455q-69 -18 -117 0q-7 185 -35 336h-176q-45 0 -130.5 -2t-129.5 -2q-16 44 -16 98q75 8 178 39q10 61 10 195v315q-238 10 -422 10h-258v-350q0 -99 8 -170q82 -8 166 -39q3 -52 -12 -98 q-59 4 -254 4q-45 0 -130.5 -2t-129.5 -2q-16 44 -16 98z" />
<glyph unicode="&#x4a3;" horiz-adv-x="1284" d="M63 90q81 9 164 37q9 53 9 113v483q0 57 -9 113q-84 28 -164 36q0 58 15 93q40 0 118 -2t117 -2q116 0 242 4q12 -32 12 -93q-66 -27 -153 -36q-6 -73 -6 -154v-127h466v168q0 64 -8 113q-84 28 -164 36q0 58 15 93q40 0 118 -2t117 -2q116 0 242 4q12 -32 12 -93 q-66 -27 -153 -36q-6 -74 -6 -154v-563l184 4l16 -17q3 -224 -18 -403q-61 -12 -115 0q-4 101 -35 299h-114q-39 0 -123.5 -2t-124.5 -2q-15 47 -15 92q81 9 164 37q8 47 8 113v200q-159 6 -313 6h-153v-159q0 -86 6 -160q90 -10 153 -37q0 -65 -12 -92q-110 4 -229 4 q-39 0 -123.5 -2t-124.5 -2q-15 47 -15 92z" />
<glyph unicode="&#x4aa;" horiz-adv-x="1241" d="M92 662q0 108 27 213.5t82.5 201t133 168t186 115.5t233.5 43q211 0 374 -55q3 -173 -47 -338q-66 -12 -104 8q-5 107 -31 225q-83 12 -229 12q-64 0 -152 -20.5t-121 -48.5q-68 -66 -116.5 -177.5t-48.5 -258.5q0 -104 16 -195t53.5 -172.5t93.5 -139.5t141 -92t191 -34 q111 0 199 18q22 121 28 250q50 20 109 8q31 -163 31 -354q-217 -70 -422 -70h-12q-9 -21 -9 -43q0 -16 41 -28q160 -48 160 -164q0 -87 -101 -160t-245 -98q-23 20 -23 59q32 13 62.5 28.5t64 37t54 47t20.5 49.5q0 56 -108 86q-36 9 -48 19t-12 34q0 66 53 141 q-129 16 -230 76t-164.5 152.5t-96.5 208t-33 248.5z" />
<glyph unicode="&#x4ab;" horiz-adv-x="929" d="M82 465q0 74 20 148.5t59.5 141t92.5 118t125.5 82t152.5 30.5q195 0 326 -59q0 -148 -43 -267q-69 -21 -121 9q-3 99 -16 170q-58 10 -154 10q-43 0 -94.5 -11t-71.5 -28q-45 -46 -73.5 -123t-28.5 -164q0 -54 8 -107.5t28.5 -107.5t51 -95t80 -67t111.5 -26 q126 0 305 69q31 -27 34 -77q-73 -54 -176.5 -95.5t-187.5 -44.5q-8 -19 -8 -45q0 -16 41 -28q159 -48 159 -164q0 -87 -101 -160t-245 -98q-22 19 -22 59q32 13 62.5 28.5t64 37t54 47t20.5 49.5q0 56 -109 86q-36 9 -47.5 19t-11.5 34q0 69 53 141q-115 17 -192.5 87 t-111.5 171t-34 230z" />
<glyph unicode="&#x4ae;" horiz-adv-x="1331" d="M10 1276q0 51 17 98q43 0 131.5 -2t138.5 -2q201 0 260 4q15 -46 12 -98l-180 -39l307 -571l312 571l-193 39q0 54 16 98q46 0 125.5 -2t112.5 -2q170 0 229 4q16 -49 13 -98q-77 -31 -152 -39l-395 -727v-205q0 -99 8 -170q102 -8 207 -39q3 -54 -14 -98q-68 4 -293 4 q-52 0 -150 -2t-149 -2q-19 45 -19 98q88 7 219 39q11 54 11 125v223l-410 754q-97 32 -164 39z" />
<glyph unicode="&#x4af;" horiz-adv-x="1095" d="M35 872q0 53 14 93q24 0 91 -2t108 -2q83 0 235 4q17 -42 11 -93l-158 -36l205 -564l8 -149h2l256 717l-158 32q0 50 15 93q28 0 106 -2t125 -2q48 0 158 4q16 -46 10 -93q-51 -26 -117 -36l-315 -854v-211q0 -81 6 -154q117 -10 197 -37q0 -65 -15 -92q-132 4 -268 4 q-50 0 -148 -2t-143 -2q-16 32 -16 92q104 9 207 37q8 52 8 113v252l-312 854q-44 24 -112 36z" />
<glyph unicode="&#x4b0;" horiz-adv-x="1331" d="M10 1276q0 51 17 98q43 0 131.5 -2t138.5 -2q201 0 260 4q15 -46 12 -98l-180 -39l307 -571l312 571l-193 39q0 54 16 98q46 0 125.5 -2t112.5 -2q170 0 229 4q16 -49 13 -98q-77 -31 -152 -39l-362 -666h254q11 -67 0 -135h-287v-131q0 -99 8 -170q102 -8 207 -39 q3 -54 -14 -98q-68 4 -293 4q-52 0 -150 -2t-149 -2q-19 45 -19 98q88 7 219 39q11 54 11 125v176h-291q-13 72 0 135h242l-361 666q-97 32 -164 39z" />
<glyph unicode="&#x4b1;" horiz-adv-x="1095" d="M35 872q0 53 14 93q24 0 91 -2t108 -2q83 0 235 4q17 -42 11 -93l-158 -36l205 -564l8 -149h2l256 717l-158 32q0 50 15 93q28 0 106 -2t125 -2q48 0 158 4q16 -46 10 -93q-51 -26 -117 -36l-280 -758h237q12 -58 0 -115h-272v-192q0 -81 6 -154q117 -10 197 -37 q0 -65 -15 -92q-132 4 -268 4q-50 0 -148 -2t-143 -2q-16 32 -16 92q104 9 207 37q8 52 8 113v233h-271q-13 62 0 115h236l-277 758q-44 24 -112 36z" />
<glyph unicode="&#x4b2;" horiz-adv-x="1366" d="M8 96q69 8 172 39l385 561l-375 541q-97 32 -163 39q0 54 16 98q45 0 134 -2t138 -2q199 0 256 4q13 -40 13 -98l-164 -39l276 -399l277 397l-178 39q0 56 16 100q45 0 121.5 -2t109.5 -2q175 0 238 4q12 -37 12 -98q-77 -31 -151 -39l-365 -516l408 -586l153 2l17 -16 q6 -220 -19 -455q-68 -17 -116 0q-6 180 -35 336h-131q-51 0 -141.5 -2t-133.5 -2q-16 44 -16 98l192 39l-307 443l-305 -443l180 -39q3 -52 -12 -98q-59 4 -234 4q-33 0 -116.5 -2t-134.5 -2q-17 47 -17 98z" />
<glyph unicode="&#x4b3;" horiz-adv-x="1150" d="M27 90q88 10 161 35l273 364l-262 347q-43 20 -150 36q0 53 14 93q25 0 109 -2t123 -2q143 0 221 4q16 -40 10 -93l-127 -24l189 -248l180 240l-131 32q0 53 14 93q28 0 104 -2t117 -2q99 0 152 4q16 -46 10 -93q-58 -27 -127 -36l-248 -332l293 -385l146 4l16 -17 q3 -224 -18 -403q-61 -12 -115 0q-4 101 -35 299h-125q-23 0 -97 -2t-110 -2q-14 40 -14 92l143 29l-208 274l-205 -270l145 -33q0 -65 -12 -92q-110 4 -209 4q-37 0 -110 -2t-103 -2q-14 32 -14 92z" />
<glyph unicode="&#x4b6;" horiz-adv-x="1382" d="M10 1276q0 51 17 98q44 0 129.5 -2t130.5 -2q186 0 243 4q16 -49 13 -98q-82 -32 -164 -39v-272q0 -146 61.5 -228t165.5 -82q175 0 330 74v225q0 156 -10 283q-103 31 -178 39q0 54 16 98q44 0 129.5 -2t130.5 -2q195 0 254 4q15 -46 12 -98q-84 -31 -166 -39 q-8 -90 -8 -354v-750l238 4l16 -16q6 -219 -18 -455q-69 -18 -117 0q-7 185 -35 336h-176q-52 0 -150 -2t-149 -2q-18 42 -18 98q88 7 219 39q10 61 10 195v268q-167 -92 -369 -92q-368 0 -368 409v320q-118 34 -189 41z" />
<glyph unicode="&#x4b7;" horiz-adv-x="1153" d="M10 872q0 54 15 93q39 0 120 -2t127 -2q101 0 203 4q12 -35 12 -93q-55 -27 -127 -36q-6 -64 -6 -154q0 -88 48.5 -133t134.5 -45q93 0 206 53v166q0 64 -8 113q-72 28 -141 36q0 58 12 93q37 0 108 -2t107 -2q116 0 242 4q12 -32 12 -93q-66 -27 -153 -36 q-7 -86 -7 -154v-563l185 4l16 -17q3 -224 -18 -403q-61 -12 -115 0q-4 101 -35 299h-114q-44 0 -139 -2t-140 -2q-16 41 -16 92q98 9 196 37q8 47 8 113v206q-125 -69 -274 -69q-137 0 -212 71.5t-75 217.5q0 127 -8 170q-83 27 -164 36z" />
<glyph unicode="&#x4ba;" horiz-adv-x="1368" d="M66 96q75 8 178 39q10 49 10 125v694q0 156 -10 283q-103 31 -178 39q0 54 16 98q44 0 129.5 -2t130.5 -2q195 0 254 4q15 -46 12 -98q-84 -31 -166 -39q-8 -101 -8 -283v-188q199 111 389 111q177 0 262.5 -82t85.5 -271v-389q92 -8 177 -39q3 -49 -13 -98q-59 4 -254 4 q-45 0 -128.5 -2t-127.5 -2q-16 44 -16 98q76 8 182 39v332q0 137 -54.5 198.5t-168.5 61.5q-185 0 -334 -65v-357q0 -99 8 -170q82 -8 166 -39q3 -52 -12 -98q-59 4 -254 4q-45 0 -130.5 -2t-129.5 -2q-16 44 -16 98z" />
<glyph unicode="&#x4bb;" horiz-adv-x="1189" d="M37 90q89 9 164 35q8 60 8 115v1144q-97 26 -162 33q-13 45 -8 80q147 55 334 72l16 -17q-8 -273 -8 -589v-78q63 43 152.5 74.5t181.5 31.5q282 0 282 -327v-383q0 -68 7 -154q88 -10 155 -37q0 -67 -14 -92q-110 4 -230 4q-43 0 -126 -2t-121 -2q-15 30 -15 92 q86 9 166 35q6 67 6 115v344q0 64 -6.5 107.5t-25.5 82t-57 57.5t-97 19q-133 0 -258 -59v-510q0 -80 6 -154q92 -10 154 -37q0 -63 -13 -92q-110 4 -229 4q-43 0 -126.5 -2t-121.5 -2q-14 28 -14 92z" />
<glyph unicode="&#x4c0;" horiz-adv-x="684" d="M66 96q75 8 178 39q10 49 10 125v694q0 156 -10 283q-103 31 -178 39q0 54 16 98q44 0 129.5 -2t130.5 -2q195 0 254 4q15 -46 12 -98q-84 -31 -166 -39q-8 -101 -8 -283v-649q0 -99 8 -170q82 -8 166 -39q3 -52 -12 -98q-59 4 -254 4q-45 0 -130.5 -2t-129.5 -2 q-16 44 -16 98z" />
<glyph unicode="&#x4cf;" horiz-adv-x="641" d="M63 90q81 9 164 37q9 53 9 113v483q0 57 -9 113q-84 28 -164 36q0 58 15 93q40 0 118 -2t117 -2q116 0 242 4q12 -32 12 -93q-66 -27 -153 -36q-6 -73 -6 -154v-395q0 -86 6 -160q90 -10 153 -37q0 -65 -12 -92q-110 4 -229 4q-39 0 -123.5 -2t-124.5 -2q-15 47 -15 92z " />
<glyph unicode="&#x4d0;" horiz-adv-x="1386" d="M10 96q67 7 164 39l420 1219q74 28 180 28l440 -1247q75 -8 152 -39q3 -52 -12 -98q-59 4 -254 4q-45 0 -130.5 -2t-129.5 -2q-17 47 -17 98l193 39l-113 318q-145 8 -323 8h-150l-108 -326l180 -39q3 -49 -13 -98q-59 4 -227 4q-32 0 -110 -2t-125 -2q-17 47 -17 98z M356 1739q22 27 95.5 38t113.5 1v-25q0 -57 37.5 -96t106.5 -39q65 0 100 35q11 9 20 43.5t9 66.5v15q36 10 110 0t101 -39q0 -99 -107 -166.5t-258 -67.5q-139 0 -233.5 62.5t-94.5 171.5zM471 586h387l-166 471l-10 149h-2z" />
<glyph unicode="&#x4d1;" horiz-adv-x="997" d="M72 215q0 66 33.5 123t87 98t129 74t150 54t159.5 36q-2 130 -38.5 196t-133.5 66q-91 0 -162 -16q-14 -62 -14 -166q-66 -30 -119 -14q-49 100 -49 219q173 104 364 104q42 0 81 -6.5t85 -27.5t79.5 -54.5t56 -94t22.5 -140.5v-385q0 -106 10 -162q42 6 131 33 q31 -31 31 -76q-50 -43 -116 -74t-118 -31q-31 0 -58.5 45.5t-41.5 116.5q-88 -75 -178.5 -118.5t-159.5 -43.5q-103 0 -167 66t-64 178zM164 1372q23 32 81 42.5t91 -1.5v-24q0 -69 35.5 -116.5t99.5 -47.5q34 0 63 11.5t41 25.5q11 14 20 54t9 79v18q35 11 91.5 1.5 t84.5 -44.5q0 -100 -91 -177t-228 -77q-126 0 -211.5 73t-85.5 183zM254 266q0 -61 38.5 -100t115.5 -39q45 0 109 30.5t114 75.5v242q-116 -13 -216 -39.5t-120 -46.5q-18 -18 -29.5 -53.5t-11.5 -69.5z" />
<glyph unicode="&#x4d4;" horiz-adv-x="1812" d="M8 96q67 7 164 39l506 1108l-176 33q0 54 16 98q44 0 129.5 -2t130.5 -2h396q352 0 479 4l16 -16q6 -172 -18 -344q-63 -18 -109 0q-6 118 -33 225h-446v-508l410 8l16 -16q-3 -74 -21 -129l-405 6v-467h471q46 131 74 250q50 11 108 -8q0 -195 -22 -361l-17 -16 q-127 4 -479 4h-217q-45 0 -130.5 -2t-129.5 -2q-16 44 -16 98q75 8 178 39q10 49 10 125v342h-361l-213 -467l181 -39q3 -49 -13 -98q-59 4 -227 4q-32 0 -110 -2t-125 -2q-17 47 -17 98zM592 731h301v506h-70z" />
<glyph unicode="&#x4d5;" horiz-adv-x="1531" d="M72 215q0 70 38 130.5t95 101t135.5 72.5t147.5 49.5t143 29.5q-2 128 -39 196t-133 68q-91 0 -162 -16q-14 -62 -14 -166q-66 -30 -119 -14q-49 100 -49 219q173 104 364 104q207 0 273 -168q61 78 143.5 124t177.5 46q82 0 146.5 -21.5t104.5 -56t66.5 -83t37 -99 t10.5 -106.5q0 -77 -11 -127l-16 -17q-168 4 -371 4h-237q3 -53 13 -102t31.5 -98t51.5 -85t77 -58.5t105 -22.5q131 0 326 74q32 -23 35 -74q-86 -57 -195.5 -102.5t-199.5 -45.5q-260 0 -359 209q-81 -87 -190 -148t-195 -61q-103 0 -167 66t-64 178zM254 266 q0 -60 38 -99.5t116 -39.5q57 0 126.5 39t122.5 94q-26 91 -26 213q-116 -10 -215.5 -36.5t-120.5 -47.5q-18 -18 -29.5 -53.5t-11.5 -69.5zM805 592h203q147 0 249 8q0 55 -8 96.5t-29.5 80.5t-66 60t-109.5 21q-105 0 -166 -71.5t-73 -194.5z" />
<glyph unicode="&#x4d6;" horiz-adv-x="1193" d="M66 96q75 8 178 39q10 49 10 125v694q0 156 -10 283q-103 31 -178 39q0 54 16 98q44 0 129.5 -2t130.5 -2h211q354 0 481 4l17 -16q6 -166 -19 -344q-54 -19 -108 0q-6 118 -33 225h-457v-467l420 8l16 -16q-3 -75 -20 -127l-416 8v-512h481q46 131 74 250q51 11 109 -8 q0 -187 -23 -361l-16 -16q-127 4 -481 4h-236q-45 0 -130.5 -2t-129.5 -2q-16 44 -16 98zM268 1739q22 27 95.5 38t113.5 1v-25q0 -57 37.5 -96t106.5 -39q65 0 100 35q11 9 20 43.5t9 66.5v15q36 10 110 0t101 -39q0 -99 -107 -166.5t-258 -67.5q-139 0 -233.5 62.5 t-94.5 171.5z" />
<glyph unicode="&#x4d7;" horiz-adv-x="983" d="M82 467q0 128 55 247.5t158.5 198t228.5 78.5q82 0 146.5 -21.5t104.5 -56t66.5 -83t37 -99t10.5 -106.5q0 -82 -10 -127l-17 -17q-168 4 -370 4h-238q3 -53 13 -102t31.5 -98t51.5 -85t77 -58.5t105 -22.5q134 0 326 74q32 -23 35 -74q-86 -57 -195.5 -102.5 t-199.5 -45.5q-107 0 -188 38t-130 106t-73.5 156.5t-24.5 195.5zM207 1372q23 32 81 42.5t91 -1.5v-24q0 -69 35.5 -116.5t99.5 -47.5q34 0 63 11.5t41 25.5q11 14 20 54t9 79v18q35 11 91.5 1.5t84.5 -44.5q0 -100 -91 -177t-228 -77q-126 0 -211.5 73t-85.5 183zM258 592 h201q148 0 250 8q0 55 -8 96.5t-29.5 80.5t-66 60t-109.5 21q-36 0 -79.5 -11t-60.5 -28q-77 -84 -98 -227z" />
<glyph unicode="&#x4d8;" horiz-adv-x="1251" d="M72 512q0 79 14 156l18 16q176 -4 404 -4h463q-5 121 -34.5 221.5t-85 181.5t-148 126.5t-214.5 45.5q-105 0 -190 -18q-22 -101 -29 -209q-48 -20 -106 -8q-35 161 -35 280q208 103 424 103q148 0 265 -54t190.5 -149t112 -219t38.5 -270q0 -103 -25.5 -207 t-79.5 -201.5t-129 -173t-183 -121t-232 -45.5q-97 0 -173.5 33t-125 86.5t-81 126t-45.5 147.5t-13 156zM260 553q0 -87 18.5 -164.5t56 -140.5t101 -100t146.5 -37q57 0 124 20t93 43q62 59 110.5 157t59.5 222h-709z" />
<glyph unicode="&#x4d9;" horiz-adv-x="987" d="M98 346q0 80 11 137l16 17q168 -4 371 -4h235q-4 53 -15 102t-33 97.5t-53 83.5t-78.5 57t-105.5 22q-80 0 -151 -12q-14 -55 -14 -146q-67 -31 -121 -14q-50 105 -47 197q171 102 376 102q106 0 186.5 -37t130 -103.5t74.5 -154t25 -194.5q0 -95 -33 -189t-90 -168.5 t-141 -121t-178 -46.5q-82 0 -146.5 22t-104.5 57.5t-66.5 85t-37 101t-10.5 109.5zM279 381q0 -47 4.5 -83.5t18 -74.5t36.5 -63t62 -40.5t92 -15.5q36 0 79 11t60 28q83 90 98 246h-201q-147 0 -249 -8z" />
<glyph unicode="&#x4e2;" horiz-adv-x="1544" d="M66 96q75 8 178 39q10 61 10 195v624q0 156 -10 283q-103 31 -178 39q0 54 16 98q44 0 129.5 -2t130.5 -2q195 0 254 4q15 -46 12 -98q-84 -31 -166 -39q-8 -90 -8 -354v-426l676 663l-6 117q-103 31 -178 39q0 54 16 98q44 0 129.5 -2t130.5 -2q195 0 254 4 q15 -46 12 -98q-85 -31 -165 -39q-9 -101 -9 -354v-578q0 -91 9 -170q80 -8 165 -39q3 -52 -12 -98q-59 4 -254 4q-45 0 -130.5 -2t-129.5 -2q-16 44 -16 98q75 8 178 39q10 61 10 195v606l-680 -660q0 -81 8 -141q82 -8 166 -39q3 -52 -12 -98q-59 4 -254 4 q-45 0 -130.5 -2t-129.5 -2q-16 44 -16 98zM483 1524q-20 61 0 133h580q25 -67 0 -133h-580z" />
<glyph unicode="&#x4e3;" horiz-adv-x="1292" d="M63 90q81 9 164 37q9 53 9 113v483q0 57 -9 113q-84 28 -164 36q0 58 15 93q40 0 118 -2t117 -2q116 0 242 4q12 -32 12 -93q-66 -27 -153 -36q-6 -73 -6 -154v-328l-23 -170h2l471 774q50 3 107 3q115 0 241 4q13 -35 13 -93q-66 -26 -154 -36q-6 -74 -6 -154v-395 q0 -86 6 -160q92 -10 154 -37q0 -63 -13 -92q-110 4 -229 4q-39 0 -123.5 -2t-124.5 -2q-14 43 -14 92q81 9 164 37q8 47 8 113v415l26 170h-2l-497 -821q-27 -2 -88 -2q-39 0 -123.5 -2t-124.5 -2q-15 47 -15 92zM375 1157q-20 63 0 137h563q24 -68 0 -137h-563z" />
<glyph unicode="&#x4e6;" horiz-adv-x="1413" d="M92 662q0 107 28 213.5t83 202.5t130 170t176.5 117.5t215.5 43.5q141 0 255 -53.5t188 -148t113.5 -221.5t39.5 -275q0 -107 -28 -214.5t-83 -203t-130 -169.5t-176.5 -117.5t-215.5 -43.5q-142 0 -256.5 54t-188 149t-112.5 221.5t-39 274.5zM279 750 q0 -104 16.5 -196.5t52.5 -174.5t89.5 -141t132 -93t175.5 -34q52 0 124 20.5t100 48.5q68 66 117 180.5t49 262.5q0 131 -27 243t-81.5 202.5t-146.5 142t-212 51.5q-51 0 -123.5 -21t-100.5 -49q-67 -66 -116 -179.5t-49 -262.5zM428 1610q0 49 34.5 91t84.5 42 q37 0 67.5 -27t30.5 -65q0 -49 -34.5 -88.5t-82.5 -40.5q-38 0 -69 26t-31 62zM805 1610q0 48 35 90.5t82 42.5q39 0 69.5 -26.5t30.5 -65.5q0 -49 -34 -88.5t-85 -40.5q-35 0 -66.5 26.5t-31.5 61.5z" />
<glyph unicode="&#x4e7;" horiz-adv-x="1050" d="M82 465q0 94 31.5 187t88 169t144.5 123t191 47q144 0 243 -65.5t144 -174.5t45 -253q0 -94 -31.5 -187t-88 -169t-144.5 -123.5t-191 -47.5q-211 0 -321.5 135t-110.5 359zM225 1227q0 51 35 94t86 43q39 0 71 -28t32 -68q0 -51 -35.5 -91.5t-85.5 -41.5q-39 0 -71 27.5 t-32 64.5zM256 522q0 -70 16 -138.5t48.5 -132t92.5 -103t138 -39.5q37 0 80.5 10.5t60.5 27.5q45 48 74 126.5t29 166.5q0 55 -9.5 110t-31.5 110.5t-55 98t-84.5 69t-114.5 26.5q-36 0 -80.5 -11t-61.5 -28q-45 -48 -73.5 -126t-28.5 -167zM596 1227q0 50 36 93.5t85 43.5 q41 0 71.5 -28t30.5 -68q0 -51 -34.5 -91.5t-86.5 -41.5q-37 0 -69.5 27.5t-32.5 64.5z" />
<glyph unicode="&#x4e8;" horiz-adv-x="1413" d="M92 662q0 107 28 213.5t83 202.5t130 170t176.5 117.5t215.5 43.5q141 0 255 -53.5t188 -148t113.5 -221.5t39.5 -275q0 -107 -28 -214.5t-83 -203t-130 -169.5t-176.5 -117.5t-215.5 -43.5q-142 0 -256.5 54t-188 149t-112.5 221.5t-39 274.5zM279 770h845 q-14 105 -47 192t-87.5 155.5t-136.5 106.5t-185 38q-51 0 -123.5 -21t-100.5 -49q-65 -64 -113.5 -173t-51.5 -249zM283 643q10 -113 42 -207t87 -168t140 -115.5t193 -41.5q52 0 124 20.5t100 48.5q68 66 117 180.5t49 262.5v20h-852z" />
<glyph unicode="&#x4e9;" horiz-adv-x="1050" d="M82 465q0 94 31.5 187t88 169t144.5 123t191 47q144 0 243 -65.5t144 -174.5t45 -253q0 -94 -31.5 -187t-88 -169t-144.5 -123.5t-191 -47.5q-211 0 -321.5 135t-110.5 359zM256 559h526q-23 125 -93 210t-189 85q-36 0 -80.5 -11t-61.5 -28q-40 -43 -68 -111t-34 -145z M260 444q8 -64 28 -120.5t54 -106.5t88 -79t121 -29q37 0 80.5 10.5t60.5 27.5q45 48 74 126.5t29 166.5v4h-535z" />
<glyph unicode="&#x4ee;" horiz-adv-x="1339" d="M10 1276q0 51 17 98q45 0 133 -2t135 -2q197 0 256 4q15 -46 12 -98l-180 -39l346 -698l293 698l-193 39q0 51 17 98q46 0 125 -2t110 -2q167 0 226 4q15 -46 12 -98q-77 -31 -152 -39l-422 -997q-72 -173 -190 -277q-178 49 -256 191q12 66 84 106l172 -72q35 46 78 144 l-459 905q-97 32 -164 39zM410 1524q-20 61 0 133h579q25 -67 0 -133h-579z" />
<glyph unicode="&#x4ef;" horiz-adv-x="1095" d="M35 872q0 53 14 93q24 0 91 -2t108 -2q83 0 235 4q17 -42 11 -93l-158 -36l205 -564l8 -149h2l256 717l-158 32q0 50 15 93q28 0 106 -2t125 -2q48 0 158 4q16 -46 10 -93q-51 -26 -117 -36l-303 -820q-46 -124 -89.5 -217t-92.5 -168.5t-103 -115t-110 -39.5 q-61 0 -115 16t-84 37q0 52 33 90h27q71 0 128.5 22t102 66t77.5 96.5t66 126.5l31 70h-61l-306 836q-44 24 -112 36zM279 1157q-20 63 0 137h563q24 -68 0 -137h-563z" />
<glyph unicode="&#x4f2;" horiz-adv-x="1339" d="M10 1276q0 51 17 98q45 0 133 -2t135 -2q197 0 256 4q15 -46 12 -98l-180 -39l346 -698l293 698l-193 39q0 51 17 98q46 0 125 -2t110 -2q167 0 226 4q15 -46 12 -98q-77 -31 -152 -39l-422 -997q-72 -173 -190 -277q-178 49 -256 191q12 66 84 106l172 -72q35 46 78 144 l-459 905q-97 32 -164 39zM487 1524l134 307q80 29 163 29l13 -48l-230 -331q-54 9 -80 43zM807 1524l133 307q80 29 164 29l12 -48l-229 -331q-54 9 -80 43z" />
<glyph unicode="&#x4f3;" horiz-adv-x="1095" d="M35 872q0 53 14 93q24 0 91 -2t108 -2q83 0 235 4q17 -42 11 -93l-158 -36l205 -564l8 -149h2l256 717l-158 32q0 50 15 93q28 0 106 -2t125 -2q48 0 158 4q16 -46 10 -93q-51 -26 -117 -36l-303 -820q-46 -124 -89.5 -217t-92.5 -168.5t-103 -115t-110 -39.5 q-61 0 -115 16t-84 37q0 52 33 90h27q71 0 128.5 22t102 66t77.5 96.5t66 126.5l31 70h-61l-306 836q-44 24 -112 36zM344 1137l111 338q79 43 174 43l10 -37l-211 -379q-55 6 -84 35zM635 1137l110 338q82 43 177 43l10 -37l-211 -379q-54 6 -86 35z" />
<glyph unicode="&#x2000;" horiz-adv-x="930" />
<glyph unicode="&#x2001;" horiz-adv-x="1860" />
<glyph unicode="&#x2002;" horiz-adv-x="930" />
<glyph unicode="&#x2003;" horiz-adv-x="1860" />
<glyph unicode="&#x2004;" horiz-adv-x="620" />
<glyph unicode="&#x2005;" horiz-adv-x="465" />
<glyph unicode="&#x2006;" horiz-adv-x="310" />
<glyph unicode="&#x2007;" horiz-adv-x="310" />
<glyph unicode="&#x2008;" horiz-adv-x="232" />
<glyph unicode="&#x2009;" horiz-adv-x="372" />
<glyph unicode="&#x200a;" horiz-adv-x="103" />
<glyph unicode="&#x2010;" horiz-adv-x="778" d="M133 430q-17 65 2 137l510 11q19 -75 0 -140z" />
<glyph unicode="&#x2011;" horiz-adv-x="778" d="M133 430q-17 65 2 137l510 11q19 -75 0 -140z" />
<glyph unicode="&#x2012;" horiz-adv-x="778" d="M133 430q-17 65 2 137l510 11q19 -75 0 -140z" />
<glyph unicode="&#x2013;" horiz-adv-x="999" d="M111 440q-9 64 0 125h778q9 -64 0 -125h-778z" />
<glyph unicode="&#x2014;" horiz-adv-x="2048" d="M203 440q-12 61 0 125h1640q15 -61 0 -125h-1640z" />
<glyph unicode="&#x2018;" horiz-adv-x="471" d="M86 1223q0 101 85 212.5t187 159.5q45 -17 48 -57q-51 -49 -88 -113.5t-37 -117.5q0 -77 75 -99q-6 -59 -44 -95t-91 -36q-61 0 -98 40t-37 106z" />
<glyph unicode="&#x2019;" horiz-adv-x="471" d="M66 1147q50 49 87 113.5t37 117.5q0 77 -75 99q6 59 44 95t91 36q61 0 98 -40t37 -106q0 -101 -85 -212.5t-187 -159.5q-44 16 -47 57z" />
<glyph unicode="&#x201a;" horiz-adv-x="471" d="M66 -227q50 49 87 113.5t37 117.5q0 76 -75 98q6 59 44 95t91 36q61 0 98 -39.5t37 -105.5q0 -101 -85 -213t-187 -160q-44 16 -47 58z" />
<glyph unicode="&#x201c;" horiz-adv-x="845" d="M86 1223q0 101 85 212.5t187 159.5q45 -17 48 -57q-51 -49 -88 -113.5t-37 -117.5q0 -77 75 -99q-6 -59 -44 -95t-91 -36q-61 0 -98 40t-37 106zM461 1223q0 101 85 212.5t187 159.5q44 -16 47 -57q-51 -49 -88 -113.5t-37 -117.5q0 -77 76 -99q-6 -59 -44 -95t-91 -36 q-61 0 -98 40t-37 106z" />
<glyph unicode="&#x201d;" horiz-adv-x="845" d="M66 1147q50 49 87 113.5t37 117.5q0 77 -75 99q6 59 44 95t91 36q61 0 98 -40t37 -106q0 -101 -85 -212.5t-187 -159.5q-44 16 -47 57zM440 1147q51 49 88 113.5t37 117.5q0 77 -76 99q6 59 44.5 95t91.5 36q61 0 98 -40t37 -106q0 -101 -85.5 -212.5t-187.5 -159.5 q-44 16 -47 57z" />
<glyph unicode="&#x201e;" horiz-adv-x="845" d="M66 -227q50 49 87 113.5t37 117.5q0 76 -75 98q6 59 44 95t91 36q61 0 98 -39.5t37 -105.5q0 -101 -85 -213t-187 -160q-44 16 -47 58zM440 -227q51 49 88 113.5t37 117.5q0 76 -76 98q6 59 44.5 95t91.5 36q61 0 98 -39.5t37 -105.5q0 -101 -85.5 -213t-187.5 -160 q-44 16 -47 58z" />
<glyph unicode="&#x2020;" horiz-adv-x="800" d="M84 829q-15 67 0 134h227l-8 260q93 19 180 4l17 -17l-8 -247h225q15 -67 0 -134q-88 -15 -232 -22l-39 -1219q-45 -15 -90 0l-41 1219q-143 6 -231 22z" />
<glyph unicode="&#x2021;" horiz-adv-x="800" d="M84 326q-15 67 0 133h244l-13 348q-143 6 -231 22q-15 67 0 134h227l-8 260q93 19 180 4l17 -17l-8 -247h225q15 -67 0 -134q-88 -15 -232 -22l-10 -348h242q15 -66 0 -133q-118 -19 -248 -25l-23 -713q-45 -15 -90 0l-24 713q-135 6 -248 25z" />
<glyph unicode="&#x2022;" horiz-adv-x="1069" d="M309 508q0 89 66 149t160 60q95 0 160 -60t65 -149q0 -91 -65 -155t-160 -64q-94 0 -160 64t-66 155z" />
<glyph unicode="&#x2026;" horiz-adv-x="1658" d="M135 111q0 57 40.5 94t100.5 37t101 -37t41 -94q0 -59 -41 -99.5t-101 -40.5t-100.5 40.5t-40.5 99.5zM688 111q0 57 40.5 94t100.5 37t101 -37t41 -94q0 -59 -41 -99.5t-101 -40.5t-100.5 40.5t-40.5 99.5zM1241 111q0 57 40.5 94t100.5 37t101 -37t41 -94 q0 -59 -41 -99.5t-101 -40.5t-100.5 40.5t-40.5 99.5z" />
<glyph unicode="&#x202f;" horiz-adv-x="372" />
<glyph unicode="&#x2030;" horiz-adv-x="2203" d="M51 1014q0 92 37.5 176.5t112 141.5t168.5 57t161.5 -50t98 -127.5t30.5 -171.5q0 -91 -37 -175t-111.5 -140.5t-168.5 -56.5q-140 0 -215.5 100t-75.5 246zM209 1057q0 -118 41.5 -195.5t116.5 -77.5q52 0 73 21q62 67 62 194q0 118 -41.5 195.5t-116.5 77.5 q-22 0 -44 -7.5t-30 -15.5q-61 -66 -61 -192zM252 23l891 1404q63 -13 104 -67l-891 -1403q-68 19 -104 66zM838 332q0 92 36 176.5t109.5 141.5t167.5 57q140 0 217.5 -101.5t77.5 -247.5q0 -91 -37.5 -175.5t-112 -141.5t-168.5 -57q-71 0 -128 28.5t-91.5 77.5 t-52.5 110.5t-18 131.5zM995 375q0 -118 41.5 -195.5t116.5 -77.5q22 0 44 6.5t30 14.5q61 66 61 194q0 118 -41.5 195.5t-116.5 77.5q-22 0 -43.5 -7.5t-29.5 -15.5q-62 -67 -62 -192zM1544 332q0 92 36.5 176.5t110 141.5t167.5 57q140 0 217 -101.5t77 -247.5 q0 -91 -37 -175.5t-111.5 -141.5t-168.5 -57q-95 0 -162.5 50t-98 127t-30.5 171zM1702 375q0 -118 41.5 -195.5t116.5 -77.5q52 0 73 21q62 67 62 194q0 118 -41.5 195.5t-116.5 77.5q-22 0 -44 -7.5t-30 -15.5q-61 -66 -61 -192z" />
<glyph unicode="&#x2039;" horiz-adv-x="731" d="M119 453q-6 50 12 106l399 397q49 -12 74 -61l-287 -389l299 -379q-34 -55 -90 -78z" />
<glyph unicode="&#x203a;" horiz-adv-x="733" d="M115 879q28 51 90 75l407 -405q9 -54 -12 -107l-399 -395q-57 19 -72 64l283 387z" />
<glyph unicode="&#x2044;" horiz-adv-x="368" d="M-324 23l891 1404q64 -13 105 -67l-891 -1403q-69 19 -105 66z" />
<glyph unicode="&#x205f;" horiz-adv-x="465" />
<glyph unicode="&#x20ac;" horiz-adv-x="983" d="M86 362q-12 49 0 101h84v26q0 24 4 78h-88q-12 49 0 101h109q44 159 156 263.5t272 104.5q151 0 278 -43q0 -152 -39 -262q-61 -9 -102 8q-6 75 -25 154q-41 8 -133 8q-50 0 -95.5 -11.5t-66.5 -29.5q-66 -58 -88 -192h271q14 -42 0 -101h-281v-14q0 -61 4 -90h277 q14 -42 0 -101h-261q59 -249 275 -249q57 0 119 12q15 78 22 172q50 17 109 8q24 -115 24 -272q-177 -56 -311 -56q-176 0 -283.5 105.5t-136.5 279.5h-94z" />
<glyph unicode="&#x2122;" horiz-adv-x="1484" d="M63 1356l17 16h727l160 -356l18 -82h4l160 438h217q13 -38 8 -72l-78 -20l25 -399l82 -19q8 -38 -6 -71h-267q-14 33 -6 71l82 19l-16 249l-2 105h-4l-150 -436q-57 -11 -94 -13l-143 342l-29 103h-4l-25 -350l82 -21q6 -34 -6 -69h-244q-12 29 -6 71l82 19l21 399h-262 v-399l106 -21q0 -42 -6 -69h-320q-12 33 -6 71l111 19v399h-135l-13 -121q-31 -13 -63 0z" />
<glyph unicode="&#x2202;" horiz-adv-x="1124" d="M74 1419q84 51 195 84t204 33q135 0 240 -59t168 -159.5t95 -225.5t32 -267q0 -140 -20 -264.5t-64 -235t-110 -190t-164.5 -126t-219.5 -46.5q-145 0 -242.5 106.5t-97.5 247.5q0 89 36 178.5t96 159.5t145.5 114t177.5 44q77 0 140.5 -21t133.5 -77q2 20 2 61 q0 152 -51 291.5t-147 230.5t-211 91q-147 0 -295 -68q-43 43 -43 98zM274 403q0 -120 66.5 -206t161.5 -86q72 0 134.5 34t98.5 78q37 46 64 250q-54 89 -132 133.5t-169 44.5q-43 0 -94 -16t-62 -27q-68 -68 -68 -205z" />
<glyph unicode="&#x2206;" horiz-adv-x="1249" d="M63 135l461 1219q74 28 181 28l481 -1247q3 -82 -21 -135h-1081q-24 59 -21 135zM225 172h744l-346 885l-11 149h-2z" />
<glyph unicode="&#x220f;" horiz-adv-x="1441" d="M35 -330q75 8 178 39q10 49 10 125v1120q0 156 -10 283q-103 31 -178 39q0 54 16 98q44 0 129.5 -2t130.5 -2h819q195 0 254 4q16 -49 13 -98q-84 -31 -166 -39q-8 -101 -8 -283v-1075q0 -99 8 -170q82 -8 166 -39q3 -49 -13 -98q-59 4 -254 4q-45 0 -130.5 -2t-129.5 -2 q-16 44 -16 98q75 8 178 39q10 49 10 125v1405h-639v-1360q0 -91 9 -170q82 -8 166 -39q3 -49 -13 -98q-59 4 -254 4q-45 0 -130.5 -2t-129.5 -2q-16 44 -16 98z" />
<glyph unicode="&#x2211;" horiz-adv-x="1132" d="M61 -274l531 761l-508 775q11 67 55 108h420q354 0 481 4l17 -14q6 -207 -19 -410q-50 -19 -108 0q-6 150 -33 289h-571l456 -690v-25l-551 -790h689q43 134 73 274q51 11 109 -8q0 -188 -23 -412l-16 -16q-127 4 -481 4h-498q-23 68 -23 150z" />
<glyph unicode="&#x221a;" horiz-adv-x="1114" d="M0 551q188 123 340 227l20 -4l277 -780l338 1747h129l-379 -1927q-92 -29 -195 -29l-282 778l-203 -96q-45 31 -45 84z" />
<glyph unicode="&#x221e;" horiz-adv-x="1490" d="M61 485q0 87 31.5 158t83 116t114 69t128.5 24q69 0 149.5 -47t208.5 -166q87 95 189 158t200 63q112 0 188.5 -85.5t76.5 -211.5q0 -87 -31.5 -158t-83 -115.5t-114 -68.5t-128.5 -24q-74 0 -155 43t-201 159q-81 -91 -186 -151t-205 -60q-112 0 -188.5 85.5 t-76.5 211.5zM221 512q0 -77 35.5 -125.5t95.5 -48.5q129 0 269 162q-71 90 -146 146t-137 56q-21 0 -46 -10.5t-34 -19.5q-37 -45 -37 -160zM870 547q71 -89 145.5 -145t137.5 -56q22 0 47 10.5t33 20.5q37 51 37 158q0 78 -35 126t-96 48q-132 0 -269 -162z" />
<glyph unicode="&#x222b;" horiz-adv-x="921" d="M0 -651q0 61 26 111t68 79h25q105 -108 229 -108q32 0 59 7.5t35 18.5q18 26 21 66.5t-4 95.5l-180 1724q-10 89 18.5 167.5t82 130t122 81t139.5 29.5q184 0 281 -65q0 -60 -26.5 -111t-68.5 -80h-24q-106 109 -230 109q-32 0 -59 -8t-35 -19q-29 -42 -16 -162 l180 -1724q10 -89 -18.5 -167.5t-82 -130t-122 -81t-139.5 -29.5q-183 0 -281 66z" />
<glyph unicode="&#x2248;" d="M104 346q60 57 144.5 97t150.5 40q60 0 126.5 -26.5t126.5 -53t102 -26.5q81 0 225 78q37 -25 51 -80q-59 -58 -143.5 -98.5t-149.5 -40.5q-61 0 -127.5 26t-126 52t-102.5 26q-54 0 -119.5 -25.5t-105.5 -50.5q-44 47 -52 82zM104 684q60 57 144.5 97t150.5 40 q60 0 126.5 -26.5t126.5 -53t102 -26.5q81 0 225 78q37 -25 51 -80q-60 -58 -144 -99t-149 -41q-61 0 -127.5 26.5t-126 52.5t-102.5 26q-54 0 -119.5 -25.5t-105.5 -50.5q-44 47 -52 82z" />
<glyph unicode="&#x2260;" d="M141 297q-13 59 0 135h303l99 193h-402q-13 59 0 135h469l140 272q68 -20 110 -57l-110 -215h235q15 -69 0 -135h-303l-98 -193h401q15 -69 0 -135h-471l-137 -270q-62 15 -111 55l109 215h-234z" />
<glyph unicode="&#x2264;" d="M145 578q-22 65 0 122l824 328q40 -42 57 -117l-692 -272l688 -277q-11 -64 -53 -118zM156 0q-13 59 0 135h843q15 -69 0 -135h-843z" />
<glyph unicode="&#x2265;" d="M129 360l692 273l-688 276q12 65 53 119l824 -334q22 -66 0 -123l-824 -327q-40 42 -57 116zM156 0q-13 59 0 135h843q15 -69 0 -135h-843z" />
<glyph unicode="&#x25ca;" horiz-adv-x="1146" d="M109 686l383 670q71 26 143 26l403 -696l-381 -670q-71 -26 -143 -26zM268 715l324 -553l285 493l-322 555z" />
<glyph unicode="&#x25fc;" horiz-adv-x="962" d="M0 0v963h963v-963h-963z" />
</font>
</defs>
</svg>
